<?xml version="1.0" encoding="utf-8"?>
<!-- Generator: Adobe Illustrator 25.3.0, SVG Export Plug-In . SVG Version: 6.00 Build 0)  -->
<svg version="1.1" xmlns="http://www.w3.org/2000/svg" xmlns:xlink="http://www.w3.org/1999/xlink" x="0px" y="0px"
	 viewBox="0 0 321 321" style="enable-background:new 0 0 321 321;" xml:space="preserve">
<style type="text/css">
	.st0{fill:#FF63FF;}
	.st1{clip-path:url(#SVGID_2_);fill:#FFFFFF;}
	.st2{clip-path:url(#SVGID_2_);}
	.st3{clip-path:url(#SVGID_4_);}
	.st4{clip-path:url(#SVGID_6_);}
</style>
<g id="Layer_1">
</g>
<g id="Layer_2">
	<g>
		<g>
			<defs>
				<path id="SVGID_1_" d="M160.5,321L160.5,321C71.9,321,0,249.1,0,160.5v0C0,71.9,71.9,0,160.5,0h0C249.1,0,321,71.9,321,160.5v0
					C321,249.1,249.1,321,160.5,321z"/>
			</defs>
			<clipPath id="SVGID_2_">
				<use xlink:href="#SVGID_1_"  style="overflow:visible;"/>
			</clipPath>
			<path class="st1" d="M78.4,266.8c0.3,0,0.5,0,0.8,0l-0.4,0.5C78.6,267.1,78.5,267,78.4,266.8z"/>
			<path class="st2" d="M76.3,835.4c-0.2,7.3-0.9,14.6-0.6,21.8c0.3,6.8,1.2,13.7,2.7,20.3c3.3,14.8,7.1,29.5,10.8,44.2
				c0.5,1.8,1.6,3.5,2.4,5.2c0,0.2,0,0.4,0.1,0.5c0.2,0.8,0.3,1.6,0.5,2.4c-0.2,0.1-0.3,0.2-0.5,0.3c0.2,0.2,0.3,0.3,0.5,0.5
				c1.1,3.5,2.1,7,3.2,10.4l1.9,5.6c1,3.3,2,6.6,3.1,9.9c0.2,1,0.4,2.1,0.6,3.1c4.7,15.5,9.4,31,14.1,46.5c1,3.3,2.3,6.6,3,10
				c0.4,1.7,0.7,3.8-1.9,4.6c-0.7,0.2-1,1.3-1.5,2c-5.6-2.5-6.4-8.4-9-13.1c-0.6-0.7-1.2-1.4-1.8-2.1c0-0.2-0.1-0.3-0.3-0.3
				c-0.1-0.6-0.2-1.3-0.3-1.9c0.1-0.7,0.4-1.5,0.2-2.1c-3-10.1-6.2-20.2-9.2-30.3c-5.9-19.6-11.8-39.2-17.4-58.9
				c-2.9-10.2-5.5-20.6-8-31c-1-4.4-1.6-9-1.9-13.6c-0.4-6.7-1-13.6-0.5-20.3c0.7-9.6,2.3-19.1,3.5-28.6c0.5-4,1.3-7.9,1.9-11.9
				c0.6-1.7,1.1-3.3,1.7-5c2.6-8.3,4.8-16.7,9.4-24.1c0.4-0.7,0.7-1.8,0.5-2.6c-1.8-6-3.6-12-5.5-18c-0.2-0.6-0.7-1.1-1.1-1.6
				l-0.6-3.7c-0.6-3.7-1-7.4-1.7-11.1c-0.3-1.9-1-3.7-1.4-5.6l-0.6-3.6c-0.1-3,0-6-0.4-9c-0.1-0.5-2.7-0.8-4.1-0.9
				c-1.9-0.1-4.1,0.5-5.4-1.7c-0.2-0.3-0.6-0.6-0.7-0.9c-1.2-5.6-2.3-11.3-3.6-17.3c-1.4,3.6-2.6,7.1-3.9,10.5
				c-0.1,0.4-0.3,0.7-0.4,1.1c0.3-0.2,0.6-0.4,0.8-0.5l2-1.5c-1.8,7-5.6,12.4-11.8,15.8c-9,5.1-18.6,5.8-28.3,2.4
				c-6-2-11.8-4.6-17.6-6.9c0,0.4,0.1,1.1,0.2,1.7c-4.8-2.8-9.1-6.3-14.7-7.3c-1.9-0.8-3.7-1.6-5.6-2.4c-7.2-4.7-14.6-9.1-21.6-14.2
				c-5-3.6-9.4-8.1-14-12.3c-0.7-0.6-0.8-1.8-1.2-2.7c0.2-0.3,0.5-0.5,0.7-0.8c1.8,0.8,3.8,1.3,5.4,2.3
				c11.3,7.5,22.5,15.1,33.8,22.5c3.2,2.1,6.8,3.3,9.8,4.7c9-13.9,17.8-27.4,26.6-41c1.1-1.4,2.1-2.8,3.2-4.2c1.7-2.3,3.3-4.5,5-6.8
				c0.8-0.7,1.6-1.4,2.4-2.2c-1.2-0.4-2.1-0.7-3.1-1.1c-10.5-5-21-9.9-31.5-14.9c-5.6-2.6-11.2-5.3-16.8-7.9
				c-0.6-0.4-1.2-0.7-2.3-1.3c-0.3,2.2-0.6,3.9-0.9,5.7c-4.1,6.9-7.8,14.2-12.4,20.8c-5.4,7.5-11.6,14.3-17.6,21.4
				c-0.6,0.7-1.6,1.2-2.5,1.9c-0.7-0.9-1.4-1.8-2-2.6c3.2-5,6.4-9.9,9.6-14.8c6.5-10,12.9-20,19.5-29.9c1-1.5,1.2-2.7,1.2-4.5
				c0-3.7,0.8-7.4,1.4-11c0.5-2.9,1.1-5.7,1.7-8.7c-1.3-0.1-2.4-0.1-3.5-0.4c-6.7-1.7-8-4.5-5.7-12c1.4-4.5,3.9-7.9,8-10.6
				c2.8-1.9,4.7-1.9,7.5-0.1c2.4-7.4,3.8-15.5,10.8-19.1c6.4-3.3,13.5-5.8,21.2-4.9c1.9-9.3,3.7-18.5,5.5-27.6
				c-0.2,0.1-0.4,0.2-0.6,0.3c-0.4-1.2-1.4-2.7-1-3.6c1.2-3.2,4.9-5.5,6.3-4.2c0.7,0.6,0.8,3.5,0.3,3.8c-3,1.7-1.6,4.9-2.7,7.2
				c-0.9,1.9-0.8,4.1-1.2,6.2c0,0.8,0,1.7,0,2.5c-0.5,2.6-0.9,5.3-1.4,7.9c-0.4,1.9-0.8,3.7-1.2,5.6c-1.1,2.3-1.4,4.2,1.7,5.3
				c1.6,0.5,3,1.4,4.5,2.1c2.8,0.9,4.2-0.4,4.8-3c0.6-1.2,1.2-2.5,1.9-3.7c0.7-2.3,1.4-4.5,2-6.8c1.2-4.5,2.4-9.1,3.5-13.6
				c0.7-2,1.3-4.1,2-6.1c1.2-3.1,2.4-6.3,3.5-9.5c0.1-0.3-0.7-0.8-1-1.2c-1.2-1.2-2.5-2.5-3.7-3.7c-0.4-0.2-0.8-0.4-1.2-0.6
				c-3.1-1.6-6.2-3.2-9.3-4.8c-11.9-7.9-22-17.9-32.7-27.3c-5.4-4.8-6.3-10.3-5.6-16.7c0.5-4.2,1.1-8.4,1.8-12.6
				c0.6-3.5,1.5-4.2,4.3-3.5c3.1-7.9,6.1-15.8,9.3-23.6c2.6-6.5,5.3-13,8-19.5c0.3-0.8,0.5-1.7,0.7-2.6c0.9-1.8,1.8-3.7,2.7-5.5
				c1.1-1.6,2.1-3.1,3.2-4.7l1.3,0.6c-1,3.6-2,7.2-2.9,10.8c-0.6,1.4-1.2,2.9-1.8,4.3c-0.6,1.6-1.2,3.3-1.9,4.9l-2,5.5
				c-5.2,10.7-10.5,21.4-15.5,32.1c-0.6,1.2,0.1,2.9,0.1,4.4c-0.1,3.5-0.3,6.9-0.6,10.3c-0.2,2.1,0.1,3.8,2.1,5.1
				c1.5,1.1,2.7,2.6,4,4c1,1,2.1,2,3.1,3c7.7,6.7,14.9,14,23.2,20c11.4,8.3,23.5,15.6,35.3,23.3c2.2,1.3,4.4,2.7,6.6,4
				c5.5,3.3,11,6.6,16.9,10c2.8-3.8,6-8,9.1-12.3c0.8-1,1.7-2.1,2.5-3.1c3.6-4.5,7.3-8.9,11.1-13.6c-4.1-3.3-9.6-5.2-12.8-9.8
				c0.3-0.5,0.6-0.9,0.8-1.4c2.3,1,4.7,1.8,6.9,2.9c2.6,1.3,5.1,2.8,7.6,4.2c1.2,0.7,2.4,1.3,3.6,2c2.6,1.3,5.2,2.6,8.4,4.2
				c0.3-3.7,0.7-7,0.8-10.3c0-0.6-1.6-1.3-2.5-1.9c-4.3-3-8.6-5.9-12.8-8.9c-0.7-0.5-1.1-1.4-1.9-2.3c-1.2,0.6-2.5,1.3-3.8,2
				c-1.9,1-3.7,2-5.6,3.1c-5,3.2-10.1,6.4-15.1,9.7c-4.5,3.1-6.3,1.8-9-1.6c-3.8-4.7-7.4-9.7-11-14.6c-5.4-7.4-10.8-14.9-16.2-22.3
				c-0.9-1.3-1.7-2.7-2.6-4.1c-1-1.7-2.1-3.4-3.1-5.1c-1.2-2.9-2.2-5.9-3.6-8.7c-0.4-0.8-1.7-1.4-2.7-1.5c-4.6-0.7-9.2-1.1-13.7-2
				c-1.6-0.3-3.1-1.6-4.6-2.4c0.6-1.3,1.2-2.5,1.8-3.8c6.6,1.5,13.3,2.9,19.9,4.4c0.5,0.1,0.9,0.3,2,0.6
				c6.3-10.6,12.7-21.3,19.3-32.3c-11.5-4.7-23.2-9.4-34.9-14.1c-1.4-0.6-2.9-1.1-4.3-1.7c-1.8-0.5-3.2-2.9-5.6-0.9
				c-0.5,0.4-2.3-0.6-3.4-1.3c-3.5-2.3-6.8-4.8-10.3-7.2c-1.1-1.2-2.1-2.5-3.2-3.8c-0.4-2.2-1.1-4.5-1.1-6.7c0.1-3.9,0.2-8,4-10.7
				c5.1-3.7,6.7-9.7,9.8-14.7c6.7-10.9,13.3-21.8,19.8-32.9c5.3-8.9,10.3-18,15.4-27c5.6-9.8,11.6-19.4,19.5-27.6
				c4.8-5,11.8-6.5,17.7-1.2c-0.5-3.4,1.1-4.7,4-4.8h4.3l9.8,2.1c1.8,2.7,3.4-0.1,5.1-0.3c1.7-0.7,3.5-1.3,5.3-2
				c-1-2.4-0.3-4.2,2.3-4.7c4-0.8,8.1-1.3,12.1-2c1.7,0.1,3.2,2.7,5,0.1c3.7-2.5,7.4-5.1,11.1-7.6c3.7,0.8,2.8-2.5,3.8-4.2
				c0.9-2.1,1.8-4.2,2.7-6.4c0.2,0.3,0.4,0.6,0.6,0.9c-3.3,2.6-6.5,5.4-9.9,7.9c-1.1,0.9-2.7,1.8-4,1.7c-2.4-0.2-2.2-2.1-0.7-4.5
				c-4.6,2-6.3-1.3-8.6-3.2c-1.2-1.7-2.3-3.8-4.3-0.7c-2.7,1.2-5.3,2.4-8.6,3.9c0.1-3.9-1.5-5.6-4-7c-1.6-0.9-2.8-2.5-4.1-3.7
				c-0.9,1.1-2.1,2.8-3.5,4.2c-1.3,1.4-2.9,2.4-5,1.4c-0.6-0.3-1.6-0.4-2.1-0.1c-2.7,1.9-3.7-1.2-4.1-2.1c-1.5-3.2-3.7-4.6-7.1-4.8
				c-0.6,0-1.4-0.5-1.7-1c-1.2-1.8-2.2-3.8-3.3-5.8h-4c-0.9-0.5-1.8-0.9-2.7-1.4c-1.5-1.5-3.5-2.7-4.5-4.4c-1.7-2.9-3.6-2-5.8-1.2
				c-0.8,0.3-1.8,0.2-2.7,0.3c-1.4-0.7-2.7-1.4-4.1-2c-0.7-2.7-2.2-4.6-4.5-5.3c-0.7-2.7-1.4-5.2-2-7.6c0-1.4,0-2.8,0-4.2h-3
				c-4.3-1.2-5.2-6-8.7-8.1c-0.3-1.1-0.7-2.1-1-3.2c-0.6-1.3-0.9-3.2-2-3.9c-2.9-2.1-3.5-5.1-3.8-8.3c-0.1-1.8,0-3.8-0.7-5.3
				c-1-2.4,1.1-3.3,1.6-4.9c0.4-1.1,0.3-2.3,0.4-3.5c-0.5-1.4-0.9-2.8-1.4-4.2l-0.6-1.9l-2.3-6.2c-0.5-3.3-1.1-6.7-1.6-10
				c1.3-0.5,2.3-0.9,3.3-1.3c-0.2-0.1-0.4-0.2-0.6-0.4l1.3-2.6c1.2,0.2,2.5,0.5,3.7,0.7c1.3,0.4,2.6,0.9,4.1,1.4
				c0.5-1.7,0.9-3.2,1.2-4.4c-0.8-1.3-1.4-2.4-2-3.4c-0.4-0.7-0.8-1.7-1.4-1.9c-4.8-1.4-3.2-5.7-4.3-8.8c-0.4-1.1-0.7-2.4-0.7-3.5
				c0-6.8,4.1-10.3,10.1-12.1c1-0.3,2-0.9,3-1.3c0.4-0.2,0.8-0.3,1.3-0.5h3.5c0.3-1.3,0.6-2.5,0.9-3.8c0.8-1.2,1.6-2.4,2.4-3.7
				c2.3-1.2,1.3-3.3,0.9-4.8c-1.1-4.1-0.1-4.9,1.7-8.5c4.1-7.8,12.1-5.7,18.2-8.4c0.3-0.1,0.6-0.1,0.9,0c5.5,2.3,9.2-1.3,13.5-3.8
				c3-1.8,6.2-3.6,9.5-4.1c2.6-0.4,5.5,1.2,8.2,1.9c2.3-0.8,4.9-1.7,7.5-2.8c0.6-0.3,1.2-1,1.5-1.6c2.2-4.2,5.8-5.8,10.4-5.1
				c2.4,0.4,4.9,1,7.2,1.8c3.8,1.3,7,6,7,10c0,1.1,1.1,3,3.3,5.8c3.2-1,6.9-1.2,9.2-3.1c3.1-2.6,5.3-1.9,8.2-0.5
				c0.5,0.2,1.6-0.5,2.3-1c2.6-1.9,5.2-3.8,7.7-5.8c2.3-1.8,4.7-2.7,7.6-2.2c2.4,1.6,2.7-0.8,3.6-1.9c2.1-1.8,2.9-5.3,6.7-4.9
				c0.2,1.4,0.4,2.9,0.6,4c2.7-0.8,5.2-2.1,7.5-2c2.7,0.1,5.4,1.5,8.1,2.4c1.5,0.1,2.9,0.3,4.4,0.4c0.8,1,1.7,2,2.5,3
				c-0.1,0.4-0.2,0.7-0.3,1.1c1.4-0.5,3-0.7,4.2-1.5c4.8-3.2,7.8-2.8,11.2,1.6c0.3,0.5,0.9,0.7,1.5,1.1c-0.5,0.4-1,0.8-1.5,1.2
				c4.2,0.6,8.4,1.2,12.6,1.8c2.1,0.8,4.2,1.6,6.3,2.4c1.6,1.8,4.6,2.6,4,6.1c2.5-1,4.3-0.4,6,1.8c0.8,1.1,3,1.1,4.5,1.8
				c3.5,1.7,3.7,3.1,0.9,6c0.9,0.6,1.9,1.2,2.6,1.9c0.8,0.7,1.3,1.6,2,2.5c-1.8,1.1-2.5,2.1,0.2,3.5c1.9,1,4.1,2.3,3.1,5.2
				c-0.1,0.4-0.3,0.8-0.4,1.3c-0.2,0.4-0.5,0.9-0.7,1.3c-1.9-0.4-3.4-0.1-4.3,1.8c-0.8,0.2-1.6,0.3-2.7,0.5c5.9,5.4,7,6.7,4.5,12.8
				c0.8,0.5,1.6,1,2.4,1.6c0.1,1,0.2,2,0.2,2.5h4.8c-0.2,1.1-0.1,2.6-0.7,3.3c-1.2,1.4-2.9,2.5-4.6,3.8c1.2,2.8,0,4.8-2.9,6.3
				c-2.9,1.5-5.7,3.3-8.6,4.8c-1.9,0.9-4.1,1.4-6.6,2.1c0.7,0.6,1.5,1.3,2.3,1.9c1.1,0.8,2.6,1.3,3.4,2.3c0.9,1.1,1.3,2.8-1,2.7
				c-4-0.3-4,1.9-3.6,4.3c4.4,0.3,8.7,0.4,13,0.8c1.2,0.1,2.3,1.1,3.4,1.8c0.6,0.4,1.2,1.6,1.7,1.5c3.8-0.4,3.2,2.3,3.5,4.5
				c0.7,5.6,1.7,11.4-1.3,16.6c-2.5,4.4-5.3,8.7-8.5,12.7c-3.1,3.8-7.4,3.4-11.7,2.2c-0.9-0.5-1.7-1.1-2.7-1.5
				c-0.2-0.1-0.7,0.6-1.1,0.9c-5.8,3.3-6.9,3.2-10.3-0.2c3.3-0.7,6.9-4.6,6.6-7.4c-0.1-0.8-0.7-1.5-1.1-2.2
				c-1.5-1.2-2.9-2.4-4.4-3.6c-0.5-3.9-1-7.8-1.6-11.9c-0.9,0-2.4,0-3.9,0c-4.5,0-4.8,0.3-5,5c-0.1,2.6-0.2,5.3-0.6,7.9
				c-0.5,3.2-1.9,6.1-4.8,8c-1.2,0.8-2,2.3-3.1,3.2c-5.4,4.4-11.8,6.3-18.4,5.3c-5.7-0.8-9.9-4.7-13.3-9.6
				c-4.5-6.6-6.3-13.8-6.2-21.3c-6.1,2.7-12.2,5.3-17.5,7.7c0.5,3.3,2.1,7.1,1,9.6c-1.1,2.3-5.1,3.2-7.9,4.7
				c-0.2-0.2-0.4-0.5-0.6-0.7c-0.1,0.8-0.2,1.6-0.4,2.7c-2.2-2.4-3.8-4.8-5.9-6.6c-3.9-3.4-10.9-4.8-15.1,0.7
				c-4.4,5.8-5.1,10.1-0.2,15.6c1,1.1,2.2,2.1,3.4,3.1c0.6,0.4,1.3,0.9,1.9,1.3c1.7,1,3.3,2.2,5.1,2.9c0.7,0.3,2-0.6,2.8-1.3
				c1.5-1.4,2.9-2.7,5-0.9c-1,0.6-1.9,1.1-2.8,1.6c0,0.2,0.1,0.5,0.1,0.7c1.7-0.2,3.3-0.4,5-0.5c1.1,0,2.9-0.2,3.3,0.4
				c0.6,0.8,0.5,2.4,0.1,3.5c-0.5,1.9-1.4,3.7-2.2,5.7h2.2c1.2,0.4,2.4,0.9,3.6,1.3c-0.7,2.9-1.4,5.7-2,8.6
				c-0.1,1.5-0.3,2.9-0.5,4.4c-2.7,6.3-5.1,12.6-8.1,18.7c-1.4,2.8-3.6,5.4-6,7.4c-2.1,1.8-4.9,2.7-7.4,4.1c-1.2,0.1-2.8,0-1.3,2
				c8.4,16.9,21.1,28.5,40,32.1c9.3,1.8,18.5,1,26.7-4.3c5.2-3.4,9.1-7.8,10.1-14.3c0.4-2.5,1.8-2.7,3.8-0.9
				c0.3,0.3,1.2,0.2,1.3,0.4c0.6,1.4,1.9,3.1,1.5,4.2c-4.5,11.4-12.8,18.1-25,19.8c-16,2.3-30.4-1.7-42.9-11.8c-4.9-4-9-9-13.5-13.6
				c-0.8-1.4-1.6-2.9-2.5-4.3c-1.5-3.3-2.9-6.5-4.4-9.8c-3.8,1.1-7.9,2.2-11.9,3.4c4.3,7.9,8.8,16,15.7,22.3
				c11,10.1,24,16.6,38.7,19.4c11.4,2.2,22.8,2.3,33.8-1.9c8.9-3.4,15.2-9.4,17.2-19.2c0.3-1.7,0.9-3.5,1.9-4.8
				c2-2.7,4.7-2.1,7.4-0.8c3.6,1.8,7.2,3.5,10.8,5.2c0.7,0.4,1.3,0.9,2,1.3c1.5,0.6,3,1.4,4.6,1.6c4.8,0.7,9.8,2.9,9.8,9.7
				c0,3.4,1.6,6.7,2.5,10.1c0.4,1.4,0.8,2.9,1.2,4.3c0.2,1,0.4,2.1,0.6,3.1l1.6,9.3c0.3,1.8,0.6,3.7,0.9,5.5
				c3.3,11.8,6.5,23.6,9.8,35.3c1,3.7,4.1,5.7,6.7,8.1c0.4,1,0.8,2,1.1,3c1.8,2.8,0.1,5.3-0.5,7.9c-0.6,1-1.1,2.1-1.7,3.1
				c-2.5,3-4.8,6.1-7.5,8.9c-2.4,2.5-5,2.2-7.4-0.2c-1-3.7,1.4-6.1,3.4-8.6c2.9-3.7,5.9-7.3,8.8-10.8c-1.6-1.7-2.9-2.6-3.5-3.8
				c-3.2-6.5-6.6-12.9-9.1-19.7c-6.1-16.3-10.2-33-10.2-50.6c0-2-0.7-4.4-2-5.7c-2.3-2.5-5.7-4-8.4-6.1c-4.6-3.5-10.6-5.1-16.1-7.5
				c-0.2,0.5-0.4,0.9-0.5,1.4c-1.8,8-6,14.4-13,18.7c-11.9,7.3-24.9,10.8-38.9,8.7c-7.2-1.1-14.6-2.1-21.5-4.5
				c-6.8-2.4-13.3-6.1-19.4-10.1c-11.2-7.3-20-16.7-22.6-30.7c-2.4,0.6-4.8,1.2-7.4,1.8c7.9,5.8,10.1,14.1,10.6,22.8
				c0.4,7,0.1,14.2-1.3,21.1c-3.1,15.4-7.1,30.5-10.8,45.8c-2.6,10.5-5.7,20.9-8.1,31.4c-2.6,11.7-4.6,23.5-7,35.3
				c-0.3,1.7-0.1,2.6,0.8,4.1c3,4.6,5.8,9.4,8.3,14.3c1.6,3.3,0.5,4.9-2.7,6.9c-1.9,1.1-4.3,2.8-4.8,4.6c-0.6,2.5,0.5,5.5,0.8,8
				c8.4-2.4,16.4-4.7,24.1-6.9c-2.4-0.4-5.1-0.8-7.8-1.3c0-0.3,0-0.6,0-0.8c0.7-0.2,1.5-0.6,2.2-0.6c3,0.2,6.1,0.6,9.1,1
				c2,0.2,4,0.7,5.7-1.1c0.6-0.7,1.8-1.1,2.7-1.1c9-0.1,18-0.3,27,0.1c8,0.4,16,1.5,24,2.2c0.4,0,0.8-0.7,1.2-1c0,0,0.1,0.1,0.3,0.2
				c-0.1,0.3-0.1,0.6-0.2,0.9c0.7,0,1.4,0,2.1,0c0.5,0,1.1,0,1.7,0c3.5,0.5,6.9,1,10.4,1.5c4.3,0.6,8.7,1.1,13.3,1.7v-6.1
				c1,0.6,2,0.7,2.3,1.3c1,1.6,1.7,2.7,4,1.7c1.6-0.7,4.2,0.4,5.3-0.6c5.3-4.3,10.2-9.1,15.2-13.6c-3.1-2.1-5.9-4-8.5-5.8
				c2-5.3,2.3-4.2,6.2-2.9c2.6,0.9,5,2.5,7.2,4.1c3.6,2.5,3.2,5.7-0.5,8c-5.1,3.2-10.1,6.7-15.1,10.1c11.4,0.6,22.7,0,33.3,3.4
				c2.1-1.1,4.2-2.2,6.5-3.4c-0.5-0.3-1-0.5-1.2-0.8c-5.9-8.8-12.3-17.3-17.4-26.6c-4.2-7.6-6.8-16.1-9.9-24.3
				c-0.7-1.9-0.1-4.3-0.1-7.1c1,0.7,1.5,0.8,1.7,1.2c1.3,2.6,2.5,5.2,3.8,7.8c3,6.1,5.9,12.1,8.9,18.2c4,6.3,8,12.5,11.9,18.8
				c2.1,3.4,4,6.9,5.7,10.5c1.6,3.3,0.9,5.4-2.3,8.2c5.2,7.8,8.1,16.6,10.2,25.6c0.6,2.7,0.4,5.7,0.1,8.6c-0.1,1-1.5,1.9-2.8,3.4
				c1.9-0.6,3.4-0.9,4.6-1.6c3.2-1.9,5.9-1.5,8.6,1.1c4.6,4.3,8.2,8.9,7.6,15.6c-1,1.2-2.1,2.4-2.9,3.7c-0.4,0.7-0.1,1.8-0.2,2.8
				c1.2,2.9,2.5,5.8,3.7,8.7c1.1,2.6,2.1,5.3,3.2,7.9c0.6,4.6,1.6,9.2,1.5,13.9c0,3.4-1.4,6.8-2.2,10.2c-0.4,1-0.8,2-1.3,3
				c-0.4,0.6-0.8,1.2-1.2,1.9c-0.8,1-1.6,2.1-2.5,3.1c-0.2,0.2-0.4,0.4-0.6,0.6c-5.8,4.6-4.7,10.3-3.3,16.6
				c1.7,7.4,2.2,15.2,3.3,22.7c1.1,6.9,2.4,13.9,3.4,20.8c1,6.6,1.8,13.2,2.7,19.8c0.7,5.2,1.4,10.4,2,15.6c0.4,3.8,1.1,7.7,1,11.5
				c-0.1,5.1,1,9.7,3.4,14.1c1.9,3.5,1.1,4.7-3,5c-1.8,0.1-3.5,0.4-4.5,0.5c1.2,11,2.3,21.6,3.5,32.8c0.8,0,2.2-0.1,3.5,0.2
				c0.8,0.3,1.8,1.3,2,2.1c0.8,3.7,1.7,7.4,1.8,11.1c0.3,7.8,0.4,15.6,0,23.4c-0.4,7.9-3.2,15.3-7.1,22.3c0.6,0.1,1.3,0.3,2.2,0.4
				c-0.7,0.6-1.1,1.3-1.7,1.5c-3.5,1.5-7.1,2.8-10.6,4.3c-0.7,0.3-1.7,1.4-1.5,1.8c1.8,4.9-1.4,7.4-4.5,9.9
				c-0.9,0.7-1.9,1.3-2.9,1.9c0.1,0.3,0.2,0.5,0.3,0.8c1.7-0.6,3.4-1.3,5.2-1.8c0.6-0.2,1.4-0.1,2.1,0c1.2,0.3,2.6,0.5,3.6,1.1
				c0.9,0.6,2,1.7,2,2.6c-0.3,8.9-0.7,17.7-1.2,26.6c-0.3,5.5-0.8,10.9-1.2,16.4c-0.4,4.3,0,8.9-1.5,12.9c-1.2,3.2-4.6,5.6-7.1,8.2
				c-0.7,0.8-1.8,1.2-2.5,1.7c2.6,6.7,2.8,13.5,2.3,20.2c-0.3,4.5-0.9,9-1.8,13.5c-0.6,3.1-1.1,6.6-5.6,6.8
				c5.9,9.8,8.2,20.8,11.7,31.3c4.6,13.8,8.6,27.8,12.8,41.8c3.5,11.6,6.8,23.2,10.1,34.3c3.7-0.2,7.6-0.7,11.5-0.4
				c5.4,0.4,8.1,3.9,9.1,9.1c0.4,1.9,1.4,3.6,1.8,4.6c5.9-0.1,11.1-0.2,16.4-0.2c3.8,0,6.4,1.9,6.9,5.8c0.5,4-1.2,7.4-4.4,9.4
				c-2.6,1.6-5.8,2.4-8.8,3.3c-1.8,0.5-2.8,1-1.4,2.7c5.6,6.8,11.3,13.5,17.1,20.2c2,2.3,4.3,4.3,6.8,6.1c1.2,0.8,3,0.7,4.6,1
				c6.7,1.4,11.7,5.2,15.2,10.9c0.9,1.4,1.3,2.1,3.2,1.4c2.7-1,4.8,0.9,5.2,3.8c0.5,4.3,1,8.6,1.8,12.9c1.6,8.9-4.2,16.7-13.9,18.4
				c-4.2,0.7-8.4,1.7-12.7,2.6c-1.9,0.2-3.7,0.4-5.6,0.6c-6.4,0.4-12.8,0.8-19.2,1.2l-3.1,0.4c-0.6-0.2-1.3-0.6-1.9-0.5
				c-7.5,0.8-14.4-1.4-20.9-4.7c-8.4-4.2-16.8-8.4-24.7-13.4c-5.6-3.6-10.4-8.5-15.6-12.9c-3.5-3.5-6.9-7-10.4-10.6
				c0.3-4,1.2-7.7,4.1-10.8c0.4-0.4,0.7-1.3,0.6-1.9c-2-8.8-0.6-17.5-0.1-26.3c0.2-4.2,0.8-8.5,1.5-12.6c0.6-3.2,1.6-6.3,2.6-9.9
				c2-0.3,3.3-1.7,4.5-4.6c0.9-2.3,4.7-3.5,7.4-5.4c-3.1-9.6-6.5-20-9.9-30.4c-3.1-9.7-6-19.4-9-29.1c-3.1-9.8-6.3-19.5-9.2-29.3
				c-1.4-4.7-2.4-9.5-3.8-14.2c-0.2-0.7-1.4-1.6-2.2-1.7c-4.5-0.4-10.6-5.7-11.2-10.2c-0.1-0.9,0.6-2.4,1.4-2.8
				c1.9-1.1,4-1.7,6.5-2.6c0-3.3-0.1-7.3,0-11.3c0-2,0.7-4,0.5-6c-0.2-1.5-1-3.1-1.9-4.5c-2.6-4-2.7-3.9-0.6-8.3
				c-2.3-0.7-4.7-1-6.6-2.1c-1.2-0.7-2.5-2.7-2.4-4.1c0.5-7.9,1-15.8,2.2-23.6c0.7-5,2.7-9.8,3.8-14.8c0.2-1-0.7-2.4-1.2-3.5
				c-1.9-4.1-2.3-9.1-7.1-11.6c0-0.3,0-0.7,0-1c5.2-2.3,10.4-4.5,15.3-6.7v-8c-2.6,0-4.9-0.1-7.1,0c-7.3,0.5-12.3-3.1-16.5-8.6
				c-5.7-7.3-7.9-16.2-11.2-24.6c-1.8-4.6-3.6-9.2-5.2-13.9c-0.2-0.7,0.4-2.3,1.1-2.7c1.4-0.9,3.1-1.3,4.7-1.9
				c-2.4-4.9-5-9.9-7.4-14.9c-1.5-3-2.9-6.1-4.3-9.2c-0.6-1.3-1.3-1.9-3-1.3c-5,1.6-6.8,0.7-9.3-3.8c-1.3-2.4-3.9-5.2-3.5-7.4
				c1.7-7.7-3.5-13.5-4.7-20.3c-0.9-5.2-3.3-10.2-3.9-15.4c-0.5-4.2,0.4-8.7,1-13c1.1-7.5,2.3-15,3.6-22.5
				c1.2-7.1,2.7-14.2,3.9-21.4c1-6.2,1.8-12.4,2.7-18.6c-0.3-0.1-0.6-0.2-0.9-0.3c-0.8,1.9-2,3.8-2.4,5.8
				c-2.4,11.9-4.9,23.9-6.8,35.9c-1.5,9.3-2.2,18.7-3.1,28.1c-0.4,4.5-0.1,9-0.7,13.5c-1,7.1-2.4,14.2-3.7,21.9
				c0.4,0.3,1.5,1,2.6,1.7c2,1.3,2.8,3,1.9,5.3c-1,2.7-1.9,5.4-3.2,8c-0.4,0.8-1.8,1.6-2.9,1.6c-2.9,0.2-5.9,0.1-7.9,0.1
				c-0.7,5.6-0.8,10.8-2,15.9c-2.5,11.1-5.7,22.1-8.2,33.2c-1.9,8.6-2.9,17.5-4.6,26.2c-0.6,3.2-1.7,6.2-2.6,9.3
				c-0.1,0.5-0.1,1.1,0,1.6c2,11.3,1.5,22.5,0.9,33.9c-0.6,10.9-0.7,21.8-0.7,32.6c0,9.7,0.6,19.3,0.7,29
				c0.1,15.9-0.1,31.7-0.3,47.6c0,3.7-0.5,7.4-0.4,11.1c0,4.6,0.5,9.2,0.5,13.7c0.1,14.9,0,29.9,0,44.8c0,0.9-0.2,1.7-0.2,2.6
				c2.6,0.5,5.3,0.8,7.8,1.6c2,0.6,2.8,2.4,2.1,4.5c-0.6,1.8-0.9,3.3-3.7,2.4c-7.9-2.5-15.2-1.4-20.8,5.1c-2,2.3-2.8,5.5-4.1,8.3
				c0.4,0,0.8-0.1,1.2-0.1c0.8,1.2,2.1,2.3,2.2,3.6c0.2,2.2,1.4,2.2,2.9,2c5.1-0.7,10.2-1.4,15.4-2.2c0.2-2.9,0.1-6,0.7-9.1
				c0.5-2.9,2.1-3.2,4.2-1.1c0.4,0.4,0.9,0.8,1.4,1.2c0.4,0.3,0.7,0.6,0.9,0.8c5.7-4.2,11.7-2.8,17.7-0.7c1.4,1.1,2.4,2.4,2.1,4.3
				c0.9,4.4-1.4,8.6-5.4,10c-0.5,0.2-1.2,0.2-1.5-0.1c-0.3-0.2-0.3-1-0.1-1.4c0.9-2.1,1.9-4.1,3.2-7c-5.1-0.9-9.8-1.8-14.4-2.6
				c-0.3,0.3-0.5,0.6-0.8,0.9c0.8,2.1,1.6,4.3,2.6,6.9c-1.6,2.6,0.5,6,0.7,9.4c0.3,1.6,0.6,3.3,0.8,4.9c0.2,0.7,0.2,1.9,0.6,2.1
				c7,4,11.1,10.9,16,16.9c1,1.2,1.9,2.4,2.8,3.6c1.3,1.7,1.8,3.3-0.3,4.8c9,5.1,16.2,11.5,18.2,22.6c2.8,0.3,5.7,1.1,5.9,5.1
				c-0.2,1.4-0.4,2.9-0.6,4.3c-1.4,1.8-2.5,3.9-4.2,5.4c-0.9,0.9-2.7,0.9-4,1.3c-0.4,0.1-0.9,0-1.2,0.1c-6.7,2.9-13.8,3-20.9,3.7
				c-1.1,0.1-2.1,0.4-3.2,0.7c-1.9,0-3.7,0-5.6,0c-2.6,0.2-5.1,0.3-7.7,0.5c-1.6,0.1-3.1,0.4-4.7,0.6c-1.9,0.2-3.7,0.5-5.6,0.7
				c-4.9-0.2-9.9-0.4-14.8-0.6c-1.5,0.2-2.9,0.4-4.4,0.6c-2.9-0.4-5.8-0.8-8.6-1.3c-7.4-1.4-14.9-2.7-22.2-4.5
				c-2.9-0.7-5.4-2.7-8.1-4c-0.4-0.9-0.9-1.7-1.3-2.6c1.3-2.1,2.6-4.2,3.8-6.4c0.4-0.7,0.5-1.5,0.7-2.3c1-1.6,2-3.3,3-4.9
				c2.5-0.8,4.9-1.6,7.7-2.5c-1.6-4.7-3.1-8.9-4.5-13.1l-1.2-3.7l0,0c0.2-0.1,0.3-0.2,0.5-0.3c-0.1-0.2-0.3-0.3-0.5-0.5
				c-0.3-1.6-0.5-3.2-0.9-4.8c-0.9-3.5-0.5-6.6,1.9-9.5c3.4-4.1,6.3-8.6,9.3-13c0.4-0.5,0.8-1.3,0.7-1.9c-0.6-5.8-1.2-11.6-1.9-17.4
				c0-0.1-0.3-0.2-0.5-0.3c-0.3-1.8-0.5-3.7-0.8-5.5c-0.2-2-0.4-4-0.5-6c-0.1-1.7,0-3.3,0-5.6c6.3,1.3,11.6,2.3,16.9,3.6
				c1.6,0.4,3,1.4,4.6,2.2c3.2-4.5,7.6-7.9,13.5-9.1c1.6-0.3,2.1-1.1,2.1-2.7c-0.3-8-0.5-15.9-0.7-23.9c-0.2-2.9-0.4-5.8-0.6-8.7
				c0-14.6,0-29.3-0.1-43.9c-0.1-1.9-0.3-3.7-0.4-5.6c0-0.8,0-1.6,0-2.4l-0.6-3.7l0.9-7.4c0-1.4,0-2.9,0.1-4.3
				c0-0.4-0.1-0.8-0.1-1.2c0-1.4,0.1-2.9,0.1-4.3c-0.1-2.9-0.1-5.7-0.2-8.6c-0.1-1.9-0.1-3.8-0.2-5.6c0-7.6,0-15.3-0.1-22.9
				c0-2.7-0.1-5.3-0.1-8c0-1.9,0-3.7-0.1-5.6c0.1-4.7,0.1-9.5,0.2-14.2c0.2-2.1,0.3-4.1,0.5-6.2c0.3-4.3,0.5-8.6,0.8-13
				c0-1,0-2.1,0-3.1c0.2-1.8,0.6-3.7,0.6-5.5c0-4.1-0.1-8.3-0.1-12.5v-1.8c-1.8-0.5-3.2-0.9-4.7-1.3c-0.2-0.9-0.8-2-0.5-2.8
				c3.5-11.1,5.5-22.4,7.3-33.8c1.4-8.8,3.8-17.5,5.7-26.3c0.7-2.5,1.4-5,2.1-7.5c0.6-2.7,1.3-5.4,1.9-8c0-0.4-0.1-0.8-0.1-1.2
				c-0.1-0.6-0.3-1.2-0.4-1.8c0.4-0.4,0.9-0.8,1.3-1.2c0.6-0.7,1.2-1.5,1.5-1.8c-3.9,0-7.7,0-11.5,0c-1.5,0.1-2.9,0.2-4.4,0.4
				c-12.1,0-24.3,0.1-36.4,0.1c-7.1,0-14.3,0-21.3,0c1.8,9.7,3.8,18.8,5.1,27.9c1,7,1.8,14.1,1.8,21.1c0,5.6-1.5,11.1-2.3,16.7
				c-0.2,1-0.5,1.9-0.8,2.9c-1.3,4.3-2.5,8.6-3.8,13c-0.5,1.7-1,3.4-1.5,5c0,0.4,0,0.8,0,1.2c-0.5,2.6-1.2,5.2-1.6,7.9
				c-0.6,4.6-1,9.2-1.5,13.8C76.8,831.6,76.6,833.5,76.3,835.4L76.3,835.4z M154.7,601.7c-1.1,0.3-2.2,0.6-3.4,0.9
				c-13.7,5-27.8,8.8-41.2,14.6c0.4,0.5,0.7,0.6,1,0.5c7.1-2.4,14.3-4.8,21.4-7.4c6.4-2.3,12.7-4.9,19.1-7.3
				c1.1-0.3,2.3-0.6,3.4-0.9c0.3-0.2,0.6-0.5,0.9-0.7c-0.1-0.1-0.2-0.2-0.2-0.4L154.7,601.7L154.7,601.7z M148.9,583
				c0.5,0,0.9,0.1,1.4,0.1c0-0.1,0-0.3,0.1-0.4c-0.4-0.1-0.7-0.2-1.1-0.2c0.7-1,1.4-2.1,2.1-3.1c1.1-0.6,2-1.4,3.2-1.7
				c0.9-0.2,2.2-0.2,2.9,0.4c3.6,3,6.9,6.4,10.5,9.3c2.9,2.4,6.2,4.4,9.4,6.4c2.1,1.2,2.8,1,4.2-0.3c-8.4-6.5-16.9-13-24.8-19.1
				c-2.5,1.9-4.1,3.2-5.8,4.4C148.2,580,147.6,581.2,148.9,583L148.9,583z M64.5,578.9c1.7-5.6,3.4-11.2,5.1-16.7
				c-0.4-0.1-0.8-0.2-1.2-0.4c-1.5,5.6-2.9,11.2-4.4,16.8c0,0.7-0.1,1.3-0.1,2c0.1,0,0.3,0,0.4,0C64.4,580,64.5,579.4,64.5,578.9
				L64.5,578.9z M121.4,109c0.1,0.2,0.3,0.3,0.4,0.5c0-0.1,0.1-0.2,0.1-0.3C121.7,109.2,121.5,109.1,121.4,109
				c-0.8-7.2,4-9.1,9.5-9.9c0.6-2.1,0.5-4.2,1.6-5.5c2-2.5,2.6-5.5,4-8.1c1.8-3.6,5.1-5.9,9-6.6c4-0.7,8.1-0.7,12.2-1
				c-0.9-0.7-1.8-1-2.8-1.3c-4.4-1.5-8.7-1.9-12.8,1.1c-4.6,3.5-9.4,6.6-13.9,10.2c-4,3.2-6.6,7.6-8.3,12.5
				C118.7,103.6,119.5,107.8,121.4,109L121.4,109z M266.4,491.5c0.2-0.1,0.4-0.3,0.6-0.4c-0.1-0.1-0.1-0.1-0.2-0.2L266.4,491.5
				c-0.1-0.8,0-1.7-0.3-2.4c-3.9-9.9-7.9-19.9-11.7-29.4c-2.8,3.5-7.2,1.8-11.3,2.5c2.8,7.4,7.4,13.7,11.6,20.2
				c1.4,2.2,3,3.5,5.4,4.5C262.5,487.9,264.4,489.9,266.4,491.5z M124.1,1031.8c-4.2-0.3-8.4-0.6-12.5-0.9
				c1.7,7.9,1.2,15.6,0.7,23.3c-0.1,2.2-0.1,4.4-0.2,6.7c-0.1,2.3,0.3,4.9-0.6,7c-1.6,3.9-4,7.4-6.1,11.1c-0.5,0.8-0.9,1.9-0.8,2.8
				c0.4,3.7,1.3,7.4,1.6,11.1c0.5,5.4,0.6,10.8,0.9,16.2c5,0.4,10.5,0.8,15.4,1.2c2.3-9.3,8.9-15,15.8-20.3
				c-3.6-3.5-7.2-7-10.9-10.4c-2.3-2.1-5-4-3.1-7.8c0.1-0.2,0-0.6,0-0.9c-0.4-6.2-0.9-12.4-1.2-18.6c-0.1-2,1-4.2,0.5-6
				c-1.2-4.9,0.1-9.4,0.7-14.1c0.2-0.3,0.4-0.6,0.6-0.9c-0.1-0.1-0.2-0.1-0.3-0.2C124.5,1031.2,124.3,1031.5,124.1,1031.8
				L124.1,1031.8z M10,364.3c19.5,10.4,39.4,20.9,60,31.9c-1.6,0.4-2.7,0.9-3.7,0.7c-2-0.3-4-0.7-5.9-1.5
				c-10.2-4.1-20.5-8.2-30.6-12.7c-8.4-3.8-17.1-7.2-23.3-14.9c-1.3,2-2.3,4-3.7,5.6c-1.5,1.8-3.4,3.2-5.1,4.8
				c-0.2,0.2-0.2,0.8-0.3,1.2c-0.2,1.4-1,3.3-0.4,4.2c1.8,2.4,3.8,5.2,6.3,6.4c4.6,2.3,9.8,3.4,14.7,5.2
				c14.8,5.5,28.9,12.7,42.6,20.4c1.9,1.1,3.8,2.6,3.5,5.7c-1.4-0.6-2.6-1-3.8-1.5c-1.7,15-12.9,31.4-19.9,34.9
				c4.2,6.9,8.5,13.8,13,21.1c0.7-3.3,1.2-5.9,1.9-8.4c5.4-20.1,10.9-40.2,16.2-60.3c0.6-2.4,1.4-5.3,0.6-7.5
				c-5.2-15.2-7.4-31.1-10.9-46.6c-0.4-1.9-0.3-4-0.4-6c0.4-0.1,0.7-0.1,1.1-0.2c3.9,8,5.2,16.9,6.8,25.6c1.5,8.7,3.1,17.5,4.6,26.2
				c0.3-0.2,0.6-0.4,0.7-0.6c4.1-14.8,8.5-29.6,12.3-44.5c2.3-9,4.1-18.1,5.7-27.2c1.3-7.5,2.1-15.1,3.2-22.6
				c1.2-7.8,0.5-15.3-1.6-23c-2.1-7.7-7.4-10.2-14.5-10.6c-0.4,0-0.9-0.5-1.3-0.5c-5.7,0.3-10.4,2.3-13.6,7.3
				c-8.7,13.8-17.5,27.4-26.1,41.3C28.9,333.6,19.5,348.9,10,364.3L10,364.3z M-8.2,578.6c1,0.4,1.4,0.7,1.9,0.8
				c8.2,2.7,16.1,6,23.5,10.6c7.1,4.5,14.4,8.6,21.6,13c1.2,0.7,2,1.9,3.1,2.9c-0.2,0.3-0.4,0.6-0.6,1c-2.5-0.7-5.1-1.2-7.4-2.3
				c-6.2-3.1-12.1-6.7-18.3-9.7c-8.5-4.1-17.2-8-25.8-11.9c-0.6-0.3-1.2-0.4-1.2-0.5c-4.6,16.4-9.2,32.5-13.8,48.8
				c5.4,2.5,11.1,5.1,16.7,7.7c11.1,5.3,22.2,10.7,33.4,16c2.8,1.3,5.8,2.2,8.6,3.5c1.2,0.6,2.2,1.9,3.5,2.2c3.8,1,7.7,1.7,11.5,2.5
				c1.8,0.4,4,1.6,5.5,1.1c3.6-1.4,7-3.5,9.7-5c-0.3-1.7-1.1-3.1-0.8-4.3c1.9-8,3.8-16,6-23.9c2.1-7.3,4.6-14.5,7-22.2
				c-10.1-6.3-19.7-2.6-29.2,3.3c1.5-5.2,5.8-7.1,9.7-9.2c4.2-2.3,8.8-2.9,13.6-2.2c-0.9-1.1-1.8-2-2.8-2.4
				c-7.7-2.7-15.5-5.4-23.2-8c-0.7-0.2-1.7,0.6-2.3,0.9c2.5,2.1,4.7,3.8,6.9,5.7c0.4,0.4,0.3,1.3,0.4,1.9c-0.7,0.1-1.4,0.4-2,0.2
				c-1.6-0.3-3.3-0.7-4.9-1.3c-2.7-1.2-5.5-2.5-6.1-6c-0.1-0.6-1-1.3-1.7-1.7c-2.5-1.5-5.1-2.8-7.6-4.4c-0.8-0.5-0.9-2.2-1.6-2.6
				c-3.7-2-7.5-3.7-11.5-5.6c-0.9,2.6-2.8,3-4.8,1.7c-0.4-0.2,0.6-2.6,1.1-4.2c-0.8-0.4-2.2-1.8-3.2-1.5
				C1.8,574.9-3,576.8-8.2,578.6L-8.2,578.6z M218.3,750c3.6,9.6,6.7,19.3,10.9,28.5c3.7,8.1,8,14.3,20,13.6
				c5.9-0.3,11.8-0.7,17.7-1.3c6.8-0.7,13.6-1.6,20.5-2.5c1.2-0.1,2.9-0.2,3.4-1c2.1-3.6,4.8-7.2,5.5-11.1c1.3-7.4,1.7-15.1,2-22.7
				c0.2-6.4-0.4-12.9-0.5-19.4c-0.1-2.5-2.1-2.8-3.7-2.6c-6.8,1-13.6,2-20.2,3.5c-13.3,3.1-26.5,6.6-39.8,10
				C228.5,746.6,223.2,748.5,218.3,750L218.3,750z M273.8,1082.5c1.9,1.1,3.7,1.8,5.2,3c6.7,5.3,13.2,10.8,19.9,16.1
				c4.5,3.5,9.2,6.7,13.8,10.1c1.8,1.3,1.9,2.4,0.9,3.7c-1.3,1.5-2.4,3.6-4.9,2.2c-3.7-2.2-7.4-4.4-11.1-6.7
				c-9.6-6.1-18.6-13.1-26.9-21.3c-0.3,1.7-0.8,3.9,0,4.7c11.1,10.2,22.7,19.8,36.3,26.6c8.2,4.1,16.6,7.2,26.1,6.1
				c7.3-0.8,14.6-1.1,21.9-1.6c10.4-0.8,20.9-1.6,31.8-2.4c-0.5-5.8-0.9-11.2-1.3-16.4c-3,1.5-5.5,3.1-8.3,3.9
				c-14.3,4.6-28.8,7.7-43.9,6.2c-4.7-0.5-9.4-1.6-14-2.4c-1.7-0.3-2.2-1-2.2-2.9c0.1-4.1,1.8-7.4,4-10.5c2.1-2.9,4.9-5.3,7.1-7.8
				c-12.8-11-20.8-25.5-27.8-40.6c-3.8,1.7-7.2,3.3-10.8,4.7c-0.9,0.3-2.5,0.1-3.3-0.5c-1.1-1-0.9-2.4,0.5-3.3
				c3.6-2.3,7.2-4.5,10.9-6.7c-4-10.1-13.2-8.9-21.5-9C277.5,1052.9,275.4,1067.9,273.8,1082.5z M217.6,743.8
				c24.3-6.5,48.2-13.4,72.9-16.9c-1.2-10-2.4-20.2-3.6-30.3c-26.4,7-54,11.1-80.2,20.5C211.3,725.6,216.3,733.9,217.6,743.8
				L217.6,743.8z M215.2,118.1c-3.5,0.9-6.9,1.6-10.2,2.6c-6.2,2.1-13.1,1.5-19,5.4c-2.4,1.6-5.4,1.9-6.5,5.2
				c-0.4,1.1-2.5,1.6-3.7,2.4c-1.3,0.9-2.8,1.8-3.8,3.1c-2.4,2.9-4.4,6.2-8.5,6.9c-0.5,0.1-1.2,0.8-1.3,1.4
				c-1.9,6.4-3.8,12.8-5.8,19.5c1.2-0.6,2.2-1.1,3.2-1.5c5.5-2.3,11-4.7,16.7-6.7c1.5-0.5,3.6,0.5,5.2,0c7.5-2.3,15.2-2.9,22.9-2.3
				c5.8,0.4,11.6,1.7,16.2,5.6c1.8,1.5,3.4,1.9,5.5,1.6c2.1-0.3,4.3-0.3,6.3-0.6c1-0.1,2-0.6,2.9-1.2c2.7-1.8,5.4-3.8,8.1-5.8
				c-0.3-0.9-0.7-2.3-1.1-3.8c-2.2,0.3-4.3,0.7-6.4,0.8c-1.1,0-2.2-0.6-3.3-0.9c0.6-1.3,1.1-2.9,2-4c0.9-1,2.3-1.4,3.1-1.8
				c-1-4.1-1.6-7.8-2.8-11.4c-0.7-2.2-1-4.6-3.3-6.5c-2.1-1.6-4.2-1.6-6.4-2C221.4,123.7,217.3,123.2,215.2,118.1L215.2,118.1z
				 M33.7,662.8c-11.5,16.8-22.9,33.4-34.2,49.9c0.3,0,0.6,0,1,0c0.5,1.6,1,3.2,1.6,4.7c0.5,1.4,0.8,3.6,1.9,4.1
				c11.3,5.1,23,7.9,35.2,3.7c4.3-1.5,7.7-3.7,9.4-8.9c4.6-14.2,10.1-28.2,15.3-42.4c-3-1.7-6.4-3.7-9.8-5.6
				c-1.3-0.7-2.7-1.6-4.1-1.7C44.3,666.6,38.7,666,33.7,662.8z M91.7,268.5c0.8,1.1,1.4,1.9,1.9,2.7c6.1,9.3,7.9,19.6,6.7,30.5
				c-1,8.8-1.8,17.5-3.2,26.2c-2.7,17-7.5,33.6-12.2,50.2c-4.8,16.6-8.8,33.5-13.1,50.2c-4.5,17.1-9,34.2-13.5,51.4
				c-0.2,0.8-0.5,1.9-0.2,2.5c1.4,2.4,3.1,4.6,5.1,7.5c0-1.2-0.1-1.8,0-2.2c4.1-17,8.3-34.1,12.3-51.1c2.9-12.3,5.6-24.7,8.5-37
				c3.7-15.5,7.7-31,11.3-46.5c4.2-18.1,9.1-36.1,11.3-54.6c0.9-7.2,0.8-14.2-1.5-21.1c-2.7-7.9-4-8.8-12.5-8.7
				C92.4,268.5,92.2,268.5,91.7,268.5L91.7,268.5z M193.1,1112.8c-7.8,0.5-15.8,1.1-23.8,1.6c-9.1,0.6-18.1,1.1-27.2,1.7
				c-7.6,0.5-14.8-3.4-22.6-1.9c-3.5,0.7-7.3,0.1-11.2,0.1c-0.4,2.7-0.8,5.8-1.2,8.9c28.3,4.7,56.4,5.2,84.2,1.2
				C191.9,1120.3,192.5,1116.7,193.1,1112.8L193.1,1112.8z M259.3,917.2c0.8,2.5,1.7,4.8,2.4,7.2c4.8,15.7,9.7,31.3,14.4,47
				c5,16.9,9.8,33.9,14.8,50.7c0.8,2.6,0.8,5.9,3.4,6.9c2.7-2,5-3.8,7.2-5.5c-12.1-35.5-23.9-71.2-33.8-107.6
				C265.2,916.3,262.3,916.8,259.3,917.2L259.3,917.2z M323.6,1111.3c4.3,0.4,8.5,0.9,12.6,1c11.3,0.2,22.5-1.4,33.6-3.8
				c2.8-0.6,5.5-1.8,8.1-3.1c2.7-1.3,3.2-3.2,1.8-5.1c-1-1.5-2.2-2.8-3-4.4c-1.4-2.9-3.7-4.8-6.6-5.8c-7.3-2.6-14.4-1.5-21.4,1
				C338.3,1095,329.5,1100.9,323.6,1111.3z M192.5,1110.5c-0.7-1.3-1.4-3.3-2.6-4.8c-2.4-3.2-4.6-7-7.9-9c-7.7-4.5-16.6-5-25.3-4
				c-11.5,1.4-19.4,8.7-27.3,17.8H192.5L192.5,1110.5z M141.9,1088c9.1-4.2,18.8-3.3,28.5-1.8c-3.6-3-8-5.5-10.7-9.2
				c-3.6-4.9-7.1-5.9-12.4-3.4c-3.8,1.8-7.9,1.7-11.4-1.1c-1-0.7-1.5-2.1-2.2-3.1c1.1-0.7,2.1-1.8,3.3-2.1
				c5.6-1.1,11.2-1.9,16.8-2.9c-0.6-1.9-1.3-3.8-1.9-5.6c-1.4,0.3-2.8,0.6-4.2,0.7c-4.4,0.5-8.9,1-13.3,1.4
				c-0.6,0.1-1.3-0.4-1.9-0.6c0.3-0.7,0.4-1.8,0.9-2c2-0.9,4.1-1.9,6.2-2.2c3.7-0.6,7.6-0.9,11.5-1.3c-0.6-2.3-1-4.2-1.5-6.3
				c-6.4,0.8-12.6,1.5-18.7,2.2c-0.5,5.7-1.1,11.3-1.5,16.9c-0.1,1.3-0.1,3,0.6,4c2.4,3.2,5.2,6,7.6,9.1
				C139.3,1083,140.5,1085.5,141.9,1088L141.9,1088z M272.4,912.2c-2.3-11.9-1.4-23.6-1.2-35.5c-7.4,2.7-14.5,1.2-21.3-2.1
				c-1.2,2.5-0.7,5.4,1.1,4.9c3-0.8,4.9,0.7,6.8,1.7c2.5,1.3,6.1,2,6.2,6.8c-2.8-0.4-5.3-0.7-7.1-1c-0.9,5.5-1.7,11-2.8,16.5
				c-0.3,1.6-1.2,3-3.6,2.5c-1.5-0.3-3.2,0.3-4.9,0.5c1.5,5.9,3.9,7.5,9.4,6.8c3.5-0.4,7.1-0.4,10.7-0.7
				C268.1,912.5,270.4,912.3,272.4,912.2L272.4,912.2z M309.6,1058.5c5.4-1.5,10.5-2.8,15.6-4.3c0.6-0.2,1.4-1.2,1.4-1.8
				c-0.5-9-3-10.3-11.1-5.4c-1.3-6.9,5.7-6.2,8.2-9.4c-1.7-3.4-3.4-6.9-5.3-10.2c-0.4-0.8-2-1.5-2.8-1.3c-3.5,0.8-6.9,1.9-10.3,3
				c-2.1,0.7-3,2.5-2.6,4.5c0.5,2.9,1.6,5.8,2.2,8.7c0.4,2.1,2.1,4.5-0.9,6C305.9,1051.7,307.8,1055.1,309.6,1058.5z M32.4,582.5
				c2.1,0.9,4.8,2.1,8.1,3.5c0.6-3.6,0.9-7,1.9-10.1c2.7-8.5,5.6-16.9,8.6-25.3c1.5-4.2,3.3-8.2,5-12.2c-3.5-1.9-6.6-3.7-9.8-5.5
				c-0.3,0.7-0.7,1.2-0.8,1.8c-1.7,5.9-3.2,11.8-5,17.6c-1.2,4-3.2,7.8-4.2,11.9C34.7,570,33.7,575.9,32.4,582.5L32.4,582.5z
				 M337,1070.7c-5.5,1.8-11.3,3.8-17.5,5.9c2.7,4,5.3,7.7,7.8,11.5c0.9,1.4,1.5,2.9,2,3.9c7.5-3,15.6-6.2,23-9.1
				C347.4,1079,342.2,1074.8,337,1070.7L337,1070.7z M136.1,242.3l0.7,0.4c5-7.4,9.9-14.7,15-22.3c-3.2,0.6-6,1.2-9.2,1.8
				c2.1-4,3.9-7.6,6.1-11.8c-3.8,2.1-6.9,3.7-9.9,5.5c-0.6,0.3-1.2,0.8-1.4,1.4c-1.3,3.4-2.5,6.7-3.8,10.4c2.5-0.2,4.7-0.4,7.2-0.7
				C139.1,232.4,137.6,237.3,136.1,242.3L136.1,242.3z M84.8,465.2c-0.9-0.7-2-1.5-3-2.5c-2.3-2.5-1.9-7.9,0.3-9.4
				c2.5-1.8,4.6-4.1,6.8-6.3c0.3-0.3,0.3-1.2,0.1-1.6c-1.6-3-3.3-5.9-5.1-9.1c-3.9,14.3-7.7,28.3-11.5,42.4
				C76.5,474.2,80.7,469.7,84.8,465.2L84.8,465.2z M265.5,508.6c-0.3,2.4-0.6,4.9-0.9,7.9c1.6,0.2,3.3,1,4.3,0.4
				c4.4-2.5,8.7-5.3,13.2-8.1c-2.6-3.3-5.3-6.6-8-9.9c-4.4,1-6,4.8-8,7.9c3.2,1.2,6.4,2.4,9.5,3.5c-0.1,0.2-0.2,0.5-0.2,0.7
				C272.2,510.2,268.9,509.4,265.5,508.6L265.5,508.6z M207.1,483.8c-0.5,0.1-1.1,0.3-1.6,0.4c3.4,23.4,6.8,46.8,10.1,70.2
				c0.3,0,0.6-0.1,0.9-0.1c0-1.4,0.1-2.9,0-4.3c-0.5-4.7-1.2-9.4-1.8-14.2c-0.9-7.2-1.6-14.5-2.6-21.7c-1.1-8.6-2.4-17.2-3.7-25.8
				C208.2,486.7,207.5,485.2,207.1,483.8L207.1,483.8z M312.4,1063.5c1.2,2.2,2.2,4.1,3.2,6c0.7,1.3,1.4,1.7,3.1,1
				c4.7-1.7,9.5-3.1,14.4-4.6c-1.9-2.4-3.9-4.9-5.9-7.4C322.3,1060.2,317.5,1061.8,312.4,1063.5L312.4,1063.5z M-28.4,599.6
				c1.4,1.2,2.7,2.3,4.6,3.9h-6c-0.5,1.7-1,3.3-1.5,4.9c2.1,1.2,4,2.3,5.8,3.4c1.5-5.4,3-10.6,4.5-15.9
				C-24.9,594.2-25.6,594.5-28.4,599.6z M269.3,674.7c0-0.2,0-0.4,0-0.5c-0.3,0-0.6-0.2-0.9-0.1c-11.8,2.7-23.6,5.3-35.3,8.1
				c-0.8,0.2-1.3,1.5-2,2.4c0.3,0.3,0.5,0.6,0.8,0.9C244.3,681.8,256.8,678.3,269.3,674.7L269.3,674.7z M331.5,1041.3
				c0.8,2.3,1.4,4.2,2,5.9c5.3,0.1,10.4,0.1,14.7-4.4C342.6,1040.2,337.1,1041.5,331.5,1041.3z M260.1,605.7c0-0.3,0.1-0.6,0.1-0.9
				c-4.8-0.6-9.7-1.4-14.5-1.9c-7.4-0.7-14.8-1.2-22.2-1.7c-0.7,0-1.5,0.7-2.2,1c0.1,0.2,0.2,0.4,0.3,0.7
				C234.4,603.8,247.2,604.7,260.1,605.7L260.1,605.7z M235.6,568.6c-0.3-0.3-0.5-0.5-0.8-0.8c-4.6,4.3-9.2,8.6-13.7,13
				c-4,3.8-7.8,7.8-11.7,11.8c-0.6,0.7-0.8,1.7-1.2,2.6c0.3,0.2,0.6,0.4,1,0.5C218,586.7,226.8,577.6,235.6,568.6z M80.8,699.8
				c0.1,0.4,0.1,0.8,0.2,1.3c16.2-1.7,32.3-3.3,48.5-5c0-0.3,0-0.5-0.1-0.8C113.2,696.8,97,698.3,80.8,699.8z M258.5,823.9
				c-1.9,0.5-3.1,0.5-4,1c-2.5,1.5-3.6,7.8-2.1,10.8c0,0.1,0.2,0.1,0.5,0.3C256.7,833.3,256.3,828.6,258.5,823.9z M135.1,475.8
				c0-0.3,0-0.5,0.1-0.8c-12.7-0.4-25.3-2-37.9-1.9l0,1.3L135.1,475.8L135.1,475.8z M246.7,812.6c-0.1,0.4-0.2,0.8-0.4,1.2
				c1.6,4.2,5.9,2.8,9,3.6c3.4,0.8,6.9,0.8,10.4,1.2c0.1-0.3,0.1-0.6,0.2-0.8C259.5,816,253.1,814.3,246.7,812.6z M183.3,472.1
				c-5.6-0.7-11.2-1.4-17.1-2.2C168.2,473.9,180.7,475,183.3,472.1z M259.1,795.7c-2.1,3.2-2.1,5.9,0.1,8.4c0.5,0.6,1.6,1.1,2.3,0.9
				c0.6-0.1,1.4-1.2,1.4-1.9C262.9,800,261.4,797.6,259.1,795.7L259.1,795.7z M218.2,474.3c0-0.1,0-0.2,0-0.4l-29.7-1.6
				c0.4,1.1,1.1,1.9,1.8,1.9C199.5,474.4,208.8,474.3,218.2,474.3L218.2,474.3z M137.8,174c0,0.3,0.1,0.5,0.1,0.8
				c1.2-0.4,2.6-0.5,3.7-1.1c2.8-1.7,5.4-3.9,8.3-5.3c2.9-1.4,3.6-3.2,2.9-5.4c-2.3,1.9-4.6,3.9-7.1,5.7
				C143.2,170.6,140.4,172.3,137.8,174z M261.5,165.2c1.2-2.6,0.4-5.2-1.8-5.9c-0.6-0.2-2,0.3-2.1,0.8
				C256.5,163.4,259.2,164,261.5,165.2L261.5,165.2z M215.2,164.3c-1.3-2.7-4.6-4.2-7.9-3.8C207.4,163.7,209.4,164.1,215.2,164.3z
				 M277.5,807.1c-0.2-0.3-0.3-0.6-0.5-1c-1.1,0.6-2.3,1.1-3.4,1.7c0.1,0.2,0.2,0.4,0.2,0.6C275.1,808,276.3,807.6,277.5,807.1
				L277.5,807.1z M217.1,555.6c-0.2,0-0.4,0-0.5,0c0.1,0.5,0.2,0.9,0.2,1.4c0.1,0,0.2,0,0.3,0V555.6z"/>
			<path class="st2" d="M201.1,265.5c1.8,1.1,3.5,2.2,5.4,3.1c1.1,0.5,2.5,0.7,3.8,0.6c6.2-0.7,10.6,2.7,14.9,6.3l-0.2,1
				c-1.1-0.3-2.3-0.4-3.4-0.8c-3.3-1.1-6.2-3-10-2.6c-4.2,0.4-7.6-1.9-11-4.1c-1.5-1-3.3-1.4-4.9-2.2c-2.8-1.3-5.5-2.6-8.5-4
				c-0.4,2-0.8,4.2-1.2,6.4c-0.4,0-0.7,0-1.1,0c-0.1-4.8-0.4-9.7-0.1-14.5c0.4-5,1.5-10,2.1-15c0.1-0.9-1-2.2-1.8-2.9
				c-6.3-5.3-12.7-10.4-19.5-16c3.6-0.6,6.4-0.1,9.2,1.3c8,3.8,15.8,7.8,24.6,10c9.7,2.4,19,1.9,27.9-2.2c2.9-1.3,5.8-4.3,7.2-7.3
				c2.9-6.2,4.7-12.9,7-19.4c0.2-1.4,0.5-2.9,0.7-4.3c0.2-0.8,0.5-1.6,0.7-2.3c1.2-0.3,0.4-3.8,3-1.9l-1.1,15.4
				c-0.5,1.4-0.9,2.9-1.4,4.3c-3.4,7.4-7.7,14.1-15.1,17.8c-8.6,4.3-17.8,5.8-27.4,3.9c-2.6-0.5-5.3-0.6-8.1-0.9
				c-0.4,2.4-0.7,4.9-1.2,7.5c-0.7,3.9-1.4,7.9-2.3,11.8c-0.3,1.6-0.4,2.7,1.2,3.8c2.7,1.8,5.2,3.9,7.7,5.8
				C199,264.4,200,264.9,201.1,265.5L201.1,265.5z"/>
			<path class="st2" d="M138.7,189.9c-1.7-0.8-3.4-1.7-5-2.5c0.9-1.2,5-2,7.3-0.9c2.7,1.3,4.9,3.1,5.7,6.2c0.7,2.6,0.1,3.9-2.6,4
				c-2.2,0.1-3.6,0.3-3,3.1c0.3,1.4-0.5,1.6-3.6,0.7c-0.7-1.3-1.4-2.5-2.2-3.8c0.9-1.2,1.7-2.4,2.6-3.6c1-0.3,2.1-0.7,3.8-1.2
				C140.4,191,139.6,190.5,138.7,189.9L138.7,189.9z"/>
			<path class="st2" d="M221.3,205.9h13.4c-1.1,3.9-4.3,3.2-6.4,3.7C224.4,210.5,222.9,209.5,221.3,205.9L221.3,205.9z"/>
			<path class="st2" d="M204.5,145.5c-6.4-1.3-10.9,1.8-15.6,4.4c-0.6,0.3-1.2,0.9-1.8,1.2c-1.3,0.5-2.7,1-4,1.4
				c0.2-1.4,0-2.8,0.5-4.1c2.4-6.2,13.7-10.9,18.8-5.6C203.3,143.6,203.9,144.6,204.5,145.5z"/>
			<g class="st2">
				<path d="M160.5,3c42.1,0,81.6,16.4,111.4,46.1c29.7,29.7,46.1,69.3,46.1,111.4c0,42.1-16.4,81.6-46.1,111.4
					c-29.7,29.7-69.3,46.1-111.4,46.1c-42.1,0-81.6-16.4-111.4-46.1C19.4,242.1,3,202.5,3,160.5c0-42.1,16.4-81.6,46.1-111.4
					C78.9,19.4,118.4,3,160.5,3 M160.5,0L160.5,0C71.9,0,0,71.9,0,160.5v0C0,249.1,71.9,321,160.5,321h0
					c88.6,0,160.5-71.9,160.5-160.5v0C321,71.9,249.1,0,160.5,0L160.5,0z"/>
			</g>
		</g>
	</g>
</g>
</svg>
