<?xml version="1.0" encoding="utf-8"?>
<!-- Generator: Adobe Illustrator 25.3.0, SVG Export Plug-In . SVG Version: 6.00 Build 0)  -->
<svg version="1.1" xmlns="http://www.w3.org/2000/svg" xmlns:xlink="http://www.w3.org/1999/xlink" x="0px" y="0px"
	 viewBox="0 0 321 321" style="enable-background:new 0 0 321 321;" xml:space="preserve">
<style type="text/css">
	.st0{fill:#FF63FF;}
	.st1{clip-path:url(#SVGID_2_);fill:#FFFFFF;}
	.st2{clip-path:url(#SVGID_2_);}
	.st3{clip-path:url(#SVGID_4_);}
	.st4{clip-path:url(#SVGID_6_);}
</style>
<g id="Layer_1">
</g>
<g id="Layer_2">
	<g>
		<g>
			<defs>
				<path id="SVGID_3_" d="M-180.5,321L-180.5,321c-88.6,0-160.5-71.9-160.5-160.5v0C-341,71.9-269.1,0-180.5,0h0
					C-91.9,0-20,71.9-20,160.5v0C-20,249.1-91.9,321-180.5,321z"/>
			</defs>
			<clipPath id="SVGID_2_">
				<use xlink:href="#SVGID_3_"  style="overflow:visible;"/>
			</clipPath>
			<g class="st2">
				<g>
					<path d="M65.8,461.8c-0.9-7.3-2-14.5-3-21.8c-0.8-5.9-0.9-12-2.3-17.8c-1.2-5-3.7-9.7-5.5-14.6C51,396.4,47.5,385,43,374
						c-5.6-13.5-11.9-26.7-18.1-39.9c-3-6.4-6.4-12.7-9.6-19.1c-0.4-0.8-0.7-2-0.4-2.7c2.9-7,1.9-14.3,1-21.4
						c-1.1-8.8-2.5-17.5-3.9-26.2c-1.9-11.5-4-23-6.1-34.4c-0.5-2.8-0.9-5.6-1.8-8.3c-1.6-5-5.9-7.3-10.5-8.8
						c-8.2-2.6-16.5-5-24.7-7.3c-1.2-0.4-2.7,0-4.9,0c0.7,2.9,1.5,5.6,1.7,8.4c0.1,1.1-1.3,2.3-2,3.4c-0.3-0.1-0.6-0.3-0.9-0.4
						c-0.3-3.4-0.6-6.8-0.9-10.1c-0.7-6.9-1.2-13.9-2.1-20.8c-0.5-3.9-4.5-6.1-8.6-4.8c-8.1,2.6-16.4,2.7-24.7,2.6
						c-9.1-0.1-18.2-0.8-27.3-0.5c-9.1,0.3-18.2,1.6-27.3,2.6c-1.8,0.2-3.6,1.1-5.8,1.9c-1.4-6-2.9-12.2-4.4-18.9
						c3.5-0.6,6.4-1.1,9.3-1.5c3.4-0.4,7.1-4.2,6.9-7.6c-0.3-3.8-0.8-7.7-1.5-11.5c-0.7-3.4,0.7-8,3.4-9.9c1.8-1.3,1.9-2.8,0.6-4.4
						c-1.4-1.8-1-2.9,0.5-4.5c5.4-5.6,7.8-12.6,9.1-20c1.3-7.9,1.4-15.9-0.9-23.8c-2.1-7.3-6.7-12.9-13-16.9
						c-4.8-3.1-9.9-5.9-15.3-7.8c-3.1-1.1-6.8,0-10.5,0c-1.6-7.7-10.2-11.9-18.4-12.7c-18.1-1.8-34.4,4.1-50.5,11.3
						c-14.8,6.6-28.4,15.1-41.3,24.9c-4.7,3.6-8.7,8.3-13,12.5c-2.4,2.4-0.6,4.3,1.1,5.9c1.1,1.1,2.7,1.5,3.7,2.6
						c0.7,0.7,0.9,2,1.3,3c0.5,1.4,0.6,3.2,1.5,4.3c3.7,4.5,6.8,9.7,13.3,11c0.8,0.2,1.2,2.4,1.7,3.6c1.4,3.2,2.7,6.4,4.1,9.6
						c0.7-0.9,1.5-1.7,2.2-2.6c3.4,1.1,4.4,0.8,4.5-1.9c0.2-4.9,0.4-9.8,0-14.7c-0.4-5.1,1-6.9,6.3-7.2c6.5-0.5,13.1-0.9,19.4-2.5
						c9.6-2.5,19-5.9,28.5-9c3-1,5.1,0,6.2,2.7c1.6,4,3.7,7.8,5.4,11.7c1.5,3.5,2.9,7.1,4.2,10.7c0.4,1.1,0.5,2.3,0.8,3.3
						c3.1-0.6,5.8-1.1,8.4-1.6c-0.1,0.3-0.2,0.8-0.4,0.9c-5.3,1.6-10.5,3.4-15.8,4.7c-3.7,0.9-7.3,3.4-11.3,1
						c-0.5-0.3-1.6,0.2-2.4,0.4c-1.6,0.4-3.2,1.2-4.8,1.3c-1.6,0.1-3.3-0.6-4.9-0.5c-4.4,0.1-8.8,0-13.1,0.7
						c-6.4,1-12.8,2.3-17.3,7.4c1,0.9,1.8,1.8,3.2,3.1c-3.2,0.5-4.9-0.2-5.8-2.5c-1.3-3.4-4-4.6-7.4-4.7c-1.9,0-3.8-0.1-5.7-0.1l0,0
						c-7.7,0.6-15.4,1.2-22.6,4.2c-1.7,0.7-3,1.8-0.7,3.5c0.5,0.4,1,1.5,0.8,2c-1.9,5,1.5,8.6,3.4,12.5c2.8,5.6,12.1,13.4,18.3,14.6
						c2.2,0.4,4.8-1.1,7-1.6c1.4,1.2,3.1,2.6,4.7,4c-2.9,7.6,0.8,14.8,2.8,21.8c-7.4,2.6-14.4,4.9-21.2,7.7
						c-3.9,1.6-7.6,4.2-6.8,9.4c0.2,1.3,0.7,2.8,1.6,3.8c2.3,2.5,3.4,4.5,2,8.4c-2.5,6.9-4.2,14.3-5.5,21.6
						c-0.9,5.2-0.4,10.6,3.8,14.5c-8.4,4.9-14.9,11.7-20.8,19.2c-4.2,5.3-4.8,11.7-5.6,18.2c-1.1,9.4-3,18.7-5,28
						c-1.1,5-3.2,9.7-4.6,14.6c-1.6,5.7-2.7,11.5-4.6,17.1c-4.9,15.1-10.2,30.1-15.2,45.1c-2.2,6.7-4.1,13.6-6.5,20.2
						c-1.7,4.9-4.1,9.6-6,14.5c-2.6,6.9-0.2,13.4,1.7,20c2.4,8.2,4.5,16.5,6.7,24.5c-2.3,0.7-4.2,1.3-5.8,1.7
						c-0.8,2.4-1.5,4.7-2.4,6.9c-3.2,8.3-6.5,16.5-9.7,24.8c-6.1,16-12.2,32-18.2,48c-4,10.6-3.1,21.3,0.1,31.8
						c1.6,5.3,3.5,10.5,5.4,15.8c0.3,0.9,1.2,1.6,1.8,2.4c0.5-1.1,1.5-2.3,1.4-3.3c-0.3-3.2-1.1-6.3-1.6-9.5
						c-1.1-6.9-1.9-13.8-3.1-20.7c-0.6-3.5-0.6-6.8,0.7-10.2c1.4-3.9,1.9-8.1,3.1-12c0.5-1.6,2.2-2.9,2.8-4.6c0.9-2.7,1.1-5.6,2-8.3
						c3.4-9.9,7.1-19.6,10.6-29.4c2-5.5,3.4-11.3,5.7-16.6c1.8-4.3,4.6-8.1,7.3-12.6c3.4,7.5,1.1,16,5.7,22.5
						c0.5-0.1,0.9-0.1,1.4-0.2c0.1-1.6,0.3-3.1,0.3-4.6c-0.2-14.6-2-29.1-5.1-43.4c-0.8-3.9-2.5-7.7-2.9-11.6
						c-0.3-3-0.1-6.6,1.3-9.2c7-13.5,9.9-28.4,15.2-42.5c1.7-4.5,3.2-9.1,4.8-13.5c0.4-1,1.4-1.8,1.8-2.7c0.5-1.3,0.7-2.7,1.1-4
						c0.4-1.5,0.6-3.1,1.2-4.6c6-15.6,10.6-31.5,14.2-47.8c0.5-2.1,1.6-4,1.9-6.1c0.3-2,0.1-4.1,0.1-6.2c0.1-3.9,0.4-7.8,0.5-11.7
						c0.1-7.7,2.8-14.3,8.2-19.9c3.8-4,7.5-8.2,11.1-12.4c1.2-1.4,2-3.1,3.4-5.2c0.5,1.1,1.2,2,1.3,2.9c0.5,10.8,1.1,21.6,1.4,32.4
						c0.5,16.3,1.1,32.5,1.2,48.8c0,7.3-1.1,14.6-1.6,21.9c-0.1,1.1,0.2,2.3,0.5,3.4c1.1,3.8,2.2,7.6,3.3,11.4
						c2.6-0.4,1.9,1.4,1.8,2.8c0.2,3.2-0.3,6.6,0.6,9.6c3.6,11.1-1.9,21.3-2.9,31.9c-0.8,8-2.5,15.9-3.6,23.8
						c-1.2,8.2-3,16.4-3.1,24.7c0,7.6-5.6,11.9-8.3,17.8c-2.3,5.1-5.7,9.7-8.3,14.6c-0.9,1.6-1.4,3.8-1.1,5.6c0.6,2.7,2.4,3,4.2,0.7
						c1.9-2.4,3.9-4.8,5.6-6.9c0,8.1,0,16.4,0,24.6c0,2.3,0.1,4.7,0,7c-0.1,2.4,1.8,2.9,3.4,3.1c0.6,0.1,1.8-1.6,2-2.7
						c2.1-10.9,4-21.8,6.1-32.7c0.6-3.3-1.5-5.3-2.9-7.7c-0.4-0.7-0.7-2-0.4-2.4c4.4-4.7,4.7-10.7,5.5-16.6
						c0.9-7.1,2.2-14.2,3.3-21.3c1.4-8.6,2.6-17.2,4.1-25.8c0.7-4.2,0.7-8.7,3.4-12.5c0.6-0.9-0.3-2.7-0.1-4
						c1.1-6.4,2.5-12.7,3.7-19.1c0.5-2.9,1.6-6.1,1-8.8c-2-9.3,2.1-17.9,2.2-26.9c0-0.7,0.8-1.3,1.1-1.9c0.3-0.8,0.9-1.8,0.7-2.4
						c-2.4-7.8,0.5-15.3,0.8-23c0.1-3,0.4-6,0.7-9c1.1-10.5,2.2-21,3.3-31.5c0.4-4,0.6-8,0.9-12.7c13.5,8.3,27.5,14.8,44,15.2
						c0.2,2,0.5,4.1,0.6,6.1c0.5,13.5,0.9,26.9,1.4,40.4c0.2,5.5,0.3,11,0.7,16.4c0.3,4.9,0.9,9.7,1.4,14.6c0,0.4,0.3,0.8,0.5,1.2
						c1.9,2.6,3.8,5.3,5.9,8.1c-1.3,0.6-2.3,1.2-3.7,1.8c-0.3-2-0.5-3.8-0.8-5.6c-2.3,1.8-3.7,6.1-2.3,8.6c0.7,1.3,2.5,2.7,4,2.8
						c3.6,0.4,7.4-4.4,7.1-8.6c-0.2-3.9-0.8-7.7-0.8-11.6c0-4,0.7-8,0.7-12c0.1-16.6,0.1-33.2,0-49.9c0-6-0.4-11.9-0.6-17.9
						c0-0.3-0.1-0.8,0.1-1c3-3.3-0.3-6.6-0.2-9.8c0-2-4-3.2-7.9-0.8c0.1-2.6-2.3-5,0.4-7.6c-5.4-7.7-13.1-13.2-20-19.5
						c-3-2.7-7.7-3.7-8.5-8.6c-0.1-0.3-0.6-0.7-1-0.8c-6.7-1.1-10.4-6.8-15.4-10.5c-2.5-1.8-4.1-4.8-6.5-6.8c-1.8-1.6-4.1-2.8-6.3-4
						c-0.5-0.3-2.1,0.1-2.1,0.4c-0.4,1.8-4.6,1.8-2.4,4.8c2.5,3.3,4.6,7.1,7.7,9.8c9.8,8.6,19.9,17,30.2,25.2
						c4.5,3.6,9.6,6.3,14.3,9.5c0.9,0.6,2,1.7,2,2.7c0.2,5.8,0.1,11.6,0.1,17.4c-5.4-0.3-59.3-32.2-60.7-36.4
						c-4.9,0.7-7.8-3-11.2-5.4c-0.8-0.5-0.7-2.7-0.5-4.1c1.1-6.7,2.3-13.4,3.5-20.4c4.3,2,6.2,8.9,12.5,4c-2.4-3.9-4.7-7.8-7.2-11.7
						c-1.6-2.6-3.1-5.3-5.1-7.6c-1.9-2.2-0.9-2.8,1.1-3.6c4.7-1.9,9.4-4,14.1-6.1c1.9-0.8,3.7-1.9,5.5-2.8
						c9.7,14.9,24.1,15.9,39.5,14.2c0.5,3.3,1.2,6.8,1.6,10.5c0.1,0.7-0.6,1.6-1.2,2.2c-0.7,0.7-1.6,1.2-2.4,1.7
						c-1.7,1.2-2.4,2.9-1,4.4c0.8,0.9,2.6,0.9,4,1.2c0.4,0.1,0.9-0.1,1.7-0.2c0.7,2.9,1.4,5.8,2,8.5c-0.9,0.2-1.9,0.3-2.9,0.5
						c0.3,0.9,0.3,1.9,0.9,2.6c4.9,6.2,9.8,12.4,15,18.3c4.3,4.8,9,9.3,13.7,13.7c1.2,1.1,2.7,3.7,4.9,1.8c2.1-1.8,0.3-3.6-0.9-5
						c-4-4.9-8.1-9.8-12.4-14.4c-4.3-4.7-9-9-13.4-13.6c-0.8-0.8-1.2-2.3-1.3-3.5c-0.4-7.6-0.6-15.2-1-22.9c-0.1-2.6-0.7-5.2-1-6.9
						c5.6-3.9,10.9-7.4,16-11.1c2.5-1.8,1.7-4.3,0.6-6.5c-1.4-2.7-3.9-1.9-5.9-1c-4,1.8-7.7,4.2-11.7,6c-7.9,3.6-16.1,6-24.7,3.5
						c-4.3-1.2-8.3-3.5-12.2-5.6c-1.8-1-3.5-2.6-2.9-5.2c0.1-0.4-0.2-1.3-0.6-1.4c-4.8-2.5-4.8-7.9-7.2-11.9c-0.7-1.2-1-2.7-1.5-4.2
						c1.6,0,3.2,0.2,4.7-0.1c0.7-0.1,1.5-1.1,1.8-1.8c0.1-0.4-0.7-1.4-1.3-1.7c-2.2-1.2-4.4-2.2-6.9-3.4c1.7-1.1,3.2-2,4.5-3.1
						c1.4-1.2,3.3-2.3,2.1-4.8c-1.2-2.6-2.8-4.2-5.8-2.6c-1.7,0.9-4.2,1.5-4.9,2.9c-1.5,3-4.2,4.5-6.3,6.6
						c-12.4-5.2-15.4-12.6-16.3-22.4c7.1-1.1,14.1-2.2,21.2-3.2c0.7-0.1,2.2,0.6,2.2,0.9c0,1.3-0.4,2.6-0.8,4.2c2.1,2.5,4.1,6,9,4.7
						c0.1-0.7,0.2-1.6,0.3-2.3c2.5-0.6,3.4,0.2,4,2.6c2.9,13.2,13.4,18.5,25.2,16.4c4.3-0.8,8.8-0.3,12.3-3.5c1.4-1.2,2.8-2.5,3.7-4
						c1.8-3.2,4.2-6.1,3-10.5c-0.9-3.1-0.2-6.7-0.2-10.7c4.1-1.2,8.9-2.5,14.1-4c0.5,3.4,1.1,6.8,1.5,10.1c0.3,2.8,1.9,4.9,4.4,5.4
						c2.4,0.5,5.1-0.3,6.2-3.3c1.4-3.6,2.6-7.4,4.5-10.8c0.9-1.6,2.9-3.1,4.7-3.7c7.2-2.4,17.3,4.9,16.8,12.3
						c-0.3,4.6-2.8,8.4-6.8,10.7c-3.2,1.9-6.6,3.7-10.6,3c-1.9-0.3-3.6-1.2-5.3-1.8c-0.3,2.5,1.9,6,5.4,7.3c2.7,1,3.5,2.9,3.7,5.4
						c0.2,2.4,0.7,4.8,1,7.3l2.7,9.9l6.6,22.3c2.2,5.2,4.9,10.5,6.5,16.1c1,3.5,2.4,5.5,5.9,6.2c1,0.2,1.9,1,3.6,1.8
						c-9.6,13.3-19.2,26.5-28.9,39.7c0.2,0.2,0.3,0.4,0.4,0.5c0.7-0.4,1.6-0.6,2.1-1.2c10-10.3,20-20.6,28.1-32.5
						c2.5-3.6,4.6-7.4,6.7-11.2c0.5-0.9,0.4-2.2,0.6-3.9c-2.2,1.2-3.8,2.1-5.2,2.9c-3.5-2.1-6.9-4.1-11.3-6.6
						c-0.5-1.9-1.4-5.1-2.4-8.6l-6-22.3l3.2-0.2c14.2,0,27.7-0.1,41.1,0c13.3,0.1,26.5,0.1,39.6-3.4c4,6.1,5.3,13.2,6,20.2
						c0.2,2-2.1,4.3-3.4,6.5c-1.8,3.1-3.7,6.2-5.8,9.6c1,0.6,1.9,1.7,2.8,1.6c5-0.3,8.6,2.6,12.2,5.2c1.2,0.9,2.4,3.2,2,4.4
						c-0.4,1.4-2.8,3.5-3.8,3.3c-4.3-1-6.8,2.3-10,3.8c-5.2,2.4-10.1,5.9-15.5,7.8c-4.4,1.5-7.8,4.6-12.1,6.2
						c-4.4,1.6-8.5,3.9-12.7,6c-5.7,2.9-11.2,6.4-17.2,8.6c-5.4,2-9.9,5.7-15.4,7.6c-5.6,1.9-11,4.3-16.6,6.4
						c-2.9,1.1-6,1.9-9.6,3.1c4.4,3.4,3,7.8,3.2,11.8c0.7,14.5,1.2,29.1,2.1,43.6c0.5,7.8,1.7,15.6,2.7,23.5
						c0.1,0.8,0.5,1.6,1.3,2.3c0-6.3,0-12.7,0-19c0-17.2,0.1-34.4,0-51.7c0-2.6-0.7-5.2-1.2-8.1c1.4-0.2,3.5-0.6,6.2-1
						c-0.3,3.9-0.8,7.7-0.8,11.4c-0.1,9.8,0,19.6-0.1,29.5c-0.2,12.3-0.3,24.6-1,36.8c-0.3,5.7-0.3,11.3,1.7,16.6
						c1.3,3.3,0.8,4.1-3,4.8c-0.7,0.1-1.5,0.4-2.7,0.9v-12c-3.9,0.5-4.2,2.7-3.6,5.4c0.5,2.4,1.8,5.3,0.9,7.1
						c-1.3,2.6,1.1,3.5,1.4,5.3c0.5-0.9,0.9-1.8,1.5-2.8c2.4,0.3,4.8,0.5,7.2,0.9c4.3,0.7,6.1-2.5,7.2-5.5c0.6-1.6,0-5-1.2-5.9
						c-5.1-3.6-2.8-8.4-2.8-12.8c0.1-4,0.7-8,1.2-12c0.3-2.1,1.1-4.2,1.3-6.3c0.1-1.1-0.7-2.3-0.6-3.5c0.1-6.5,0.3-13,0.5-19.5
						c0.1-2.5,0.4-5,0.7-8.1c0,0-0.5-0.9-0.5-1.8c-0.3-7.5-0.5-14.9-0.7-22.4c-0.1-2.6,0-5.2,0-7.2c14.1-5,27.9-9.9,41.7-14.8
						c0.3,4,0.4,8.1,1,12.3c1.4,10.4,3,20.8,4.6,31.2c1.5,9.8,3.2,19.6,4.9,29.4c1,5.9,2.6,11.7,3.3,17.6c1,9,4.2,17.5,5.8,26.3
						c0.7,3.7,3.1,5.9,5.8,8c4.2,3.4,8.4,6.8,12.5,10.3c0.4,0.4,0.7,0.9,1.1,1.4c0.6,0.7,1.3,1.4,2.3,2.5
						c-11.7,22.1-23.7,45-36.2,68.7c1.5-1,2.7-1.3,3.2-2.2c6.9-11.1,14-22,20.5-33.3c6.1-10.6,11.7-21.5,17.5-32.4
						c0.6,2.5,1.3,5.1,1.8,7.8c0.5,2.6,0.5,5.3,1.2,7.8c1,3.8,2.3,7.4,3.5,11.1c0.2,0.6,0.1,1.4,0.4,1.9c4.2,6,1.1,11.7-0.9,17.3
						c-0.8,2.2-3.8,3.5-5.2,5.7c-2.6,4.1-4.7,8.6-7.2,12.8c-2.9,4.8-6,9.5-9.1,14.2c-4.8,7.1-9.5,14.3-14.6,21.2
						c-1.4,1.9-4.2,2.7-6.2,4.2c-2.7,2-5.4,3.9-7.9,6.1c-1.1,1-2.5,3-2.1,4c0.5,1.2,2.5,1.9,3.2,2.3c2.7,4.2,4.8,8.1,7.4,11.6
						c6,8.4,15.1,12.5,24.5,10.7c8.8-1.7,13.1,3.4,18.6,7.5c2.1,1.6,4,3.5,6,5.3c2.7,2.4,6.1,2.6,9.4,0.5c1.5-0.9,3.1-1.7,4.5-2.7
						c1.4-1,2.6-2.3,4.3-3.8c2.7,6.4,5.3,12.5,7.7,18.6c0.3,0.7,0,1.9-0.5,2.5C-9,591.1-17.2,601.5-25.5,612
						c-0.6,0.8-0.9,1.7-1.2,2.2c-6.6,1.5-13,3.4-19.5,4.2c-8,1-15.7,3.3-23.7,4c-9.5,0.8-19,2.4-28.5,3.2c-5.6,0.5-11.3,0.1-17,0.4
						c-3.1,0.2-6.2,0.9-9.3,1.3c-1.1,0.2-2.2,0.2-3.3,0.5c-1,0.3-1.8,1-2.7,1.5c0.1,0.3,0.2,0.6,0.3,0.9c0.8,0.1,1.6,0.2,2.5,0.2
						c6.7,0,13.3,0.1,20,0c11-0.2,22.1-0.2,33.1-0.8c12.5-0.7,24.9-1.7,37.1-4.7c3.3-0.8,6.6-2.2,9.9-3.3
						c-2.3,7.3-4.5,14.1-6.6,20.9c-0.3,1.1-0.6,2.5-0.3,3.6c0.4,1.2,1.3,2.6,2.3,3c0.6,0.2,2.3-1.1,2.9-2.1
						c3.1-5.9,6.2-11.8,8.7-17.9c1-2.6,0-5.7-2-8.1c-1.7-2-1.6-3.7,0.5-5.7c7.7-7.5,15.3-15.1,22.7-22.8c2.9-3,5.4-6.4,7.9-9.8
						c2.6-3.6,1.4-7.4-0.3-10.8c-2.4-4.8-5-9.5-7.6-14.1c-0.7-1.2-1.6-2.3-2.5-3.5c2.7-3.1,6-6.8,9.6-10.9c0.6,0.2,1.9,0.7,3.1,1.3
						c4.5,2.2,8,0.9,9.4-4.1c2.3-8.3,4.1-16.7,6.2-25c1-4.3,2.3-8.5,3.1-12.8c0.6-3.1,2.3-4.4,5.1-5.2c8.7-2.4,16.5-6.6,22.4-13.6
						c3.9-4.6,8.3-8.9,9.3-15.2C66.6,466.5,66.1,464.1,65.8,461.8z M-174.5,302.3c0.1,0,0.3,0,0.4,0c0.8,10.2,1.7,20.4,2.4,30.6
						c0.4,5.9,0.5,11.9,0.7,17.8c0.4,9.1,0.8,18.2,1.2,27.4c-0.9,0.2-1.7,0.4-2.9,0.7C-173.2,353.2-173.9,327.8-174.5,302.3
						L-174.5,302.3z M-198.3,158.8c-3.1,1.1-6.3,2-9.6,2.6c-5.3,1-11.5-1.8-13.2-7.9c-1-3.3-2.1-6.6-3.2-9.9
						c10.4-3.1,21.1-4.3,32.6-3.5c0.1,2.9,0.3,5.8,0.4,8.8C-191.2,154.6-192.7,156.9-198.3,158.8z M-161.4,59.5c-1-2-2-4-3-6.1
						c3.7,0.1,6.9,2.9,6.9,6.5C-159,59.7-160.4,59.6-161.4,59.5z M-157.5,126.4c-0.8-0.1-1.6-0.3-2.5-0.4c0.8-0.1,1.6-0.2,2.5-0.4
						C-157.5,125.9-157.5,126.2-157.5,126.4z M-145.7,72.5c0.2,1.1,0.3,1.9,0.6,3.3c-2.1-1.1-3.8-1.9-5.6-2.8
						c2.9-2.1,4.7-5.1,8.4-3.7c2.9,1.1,5.7,2.4,7.8,5.4C-138.5,74-141.9,73.3-145.7,72.5z M-2.9,261c0.4,0.5,0.5,1.2,0.6,1.9
						c1.1,9.7,2.2,19.4,3.4,29.3c-4.1-4.8-6.9-9.6-6.1-15.9c0-0.3-0.2-0.6-0.3-0.9c-0.7-4.6-2-9.2-0.9-14c0.2-0.8,0.9-1.5,1.4-2.3
						C-4.1,259.7-3.4,260.3-2.9,261z M-5.9,242.4c-0.1,1.7,0.3,3.2-0.3,4c-1.9,2.3-4,4.6-7.7,2.8C-13.5,245-10.1,244-5.9,242.4z
						 M-36.9,220.9c9.5,3.9,14.7,12.8,13.1,22.4C-23.8,233.3-29.7,226.7-36.9,220.9z M-48.2,547.5c-8,2-14.3,0.1-19.5-5.9
						c-2.5-2.9-5.1-5.8-7.5-8.9c-2.3-2.9-1.8-4.9,1.2-7.1c1-0.7,2.1-1.4,2.3-1.5c1.5,2.1,2.6,4.2,4.3,5.8
						C-61.2,535.8-54.8,541.5-48.2,547.5L-48.2,547.5z M57.1,474.1c-6.9,8.4-15.4,14.6-25.4,18.8c-2.8,1.2-5.3,3.1-7.9,4.6
						c0.4,0.3,0.8,0.6,1.2,0.9c-0.2,1.3-0.2,2.7-0.6,4c-0.6,2.2-1.6,4.3-2.2,6.6c-2.4,9.1-4.8,18.2-7.2,27.5c-1-0.4-1.8-0.7-2.7-0.9
						c-6.7-2.4-13.3-5.1-20.1-7.1c-2-0.6-4.8,0.4-6.8,1.4c-1.9,1-1.9,3,0.4,4.1c4.8,2.3,9.6,4.5,14.5,6.8c-1.2,1-2.6,2.2-4,3.3
						c-5.7,4.4-11.3,8.8-17.1,13c-0.9,0.7-3.2,0.7-4.1,0c-9.8-7.1-19.4-14.3-29.1-21.6c-5.1-3.8-10.3-7.7-14.8-11.1
						c1.1-1.5,2.1-2.6,2.9-3.9c1.1-1.7,1.8-3.6,3-5.1c6.3-8.2,12.8-16.2,18.9-24.5c3.2-4.4,6-9.2,8.5-14c1.8-3.5,2.7-7.5,4.1-11.6
						c6.6,1.7,12.5,3.2,18.4,4.6c0.9,0.2,2-0.5,3-0.8c0.1-0.5,0.1-0.9,0.2-1.4c-6-3.6-11.9-7.2-18-10.9c1.7-3.8,3.4-7.9,5.1-11.8
						c11.9-0.7,23.7-1.3,35.5-2c0.8-3.1-0.5-4.8-3.6-5.7c-9.4-2.6-18.9-2.4-28.5-0.9c-3.1,0.5-5.9,1.1-7.4,4.2
						c-1.5-6.2-3-12.3-4.4-18.4c-3.4-15-6.8-29.9-10.2-44.9c-0.2-1.1-1-2-1.5-3c-0.3,0-0.5,0.1-0.8,0.1c-0.5,1.9-1,3.7-1.7,6.4l0,0
						c-3.5-41.6-5.5-82.4-4.3-123.6c4.1-2.5,8.3-5.1,12.5-7.6c12.1,17.7,24,35.3,35.8,52.6c-0.1,0.1,0.2-0.3,0.7-1.3
						c1.5,3.9,2.4,7.5,4.1,10.8c6.1,12.1,12.8,23.9,18.5,36.1c6.4,13.7,12.3,27.6,18,41.6c4.9,11.9,9.1,24.1,13.7,36.2
						c0.7,1.8,2.3,3.4,2.5,5.3c0.6,4.3,0.4,8.8,0.8,13.1c0.6,7.7,1.2,15.4,2.3,23.1C59.5,469.9,58.8,472,57.1,474.1z"/>
				</g>
			</g>
		</g>
	</g>
	<g>
		<g>
			<defs>
				<path id="SVGID_5_" d="M160.5,321L160.5,321c88.6,0,160.5-71.9,160.5-160.5v0C321,71.9,249.1,0,160.5,0h0C71.9,0,0,71.9,0,160.5
					v0C0,249.1,71.9,321,160.5,321z"/>
			</defs>
			<clipPath id="SVGID_4_">
				<use xlink:href="#SVGID_5_"  style="overflow:visible;"/>
			</clipPath>
			<g class="st3">
				<g>
					<path d="M9.4,285.3c-2.1-2.8-4.3-5.5-6.8-7.9c-1-0.9-2-1.6-3.1-2.2c-0.8-0.5-1.9-1-2.6-0.1c-0.7,0.8,0.4,1.4,0.8,1.9
						c3.7,5.6,7.7,11.1,11.3,16.8c9.5,15.1,16.6,31.2,21.3,48.4c0.7,2.5,1.3,5.1,2.2,7.6c0.3,1,0.3,2.3,1.9,2.9h0
						c-1.9-8.4-2.9-16.8-5.1-25C25,312.3,18.7,298.1,9.4,285.3z"/>
					<path d="M230.5,340.2c3.5-3.3,5.2-7.3,7.4-10.9c4.1-6.9,8.3-13.8,11.4-21.3c0.3-0.8,1.1-1.9,0.2-2.5c-0.9-0.5-1.7,0.4-2.3,1.2
						c-4.1,5.2-7,11.1-10.2,16.9c-2,3.7-3.8,7.6-5.6,11.5C230.7,336.4,229.8,338,230.5,340.2L230.5,340.2z"/>
					<path d="M144.8,289c-0.9-0.2-1.2,0.8-1.5,1.7c-1.1,3.1-1.4,6.4-1.9,9.7c-0.5,3.5-0.9,7.1-0.6,10.7c0,0.5-0.1,1.1,0.7,1.3
						c1.3-5,1.9-10.2,2.9-15.3c0.3-1.9,0.7-3.8,1-5.8C145.5,290.5,145.8,289.2,144.8,289z"/>
					<polygon points="141.5,312.3 141.5,312.3 141.5,312.3 					"/>
					<path d="M193,144.4c2-0.1,4,0,6.5,0l0,0c5.1-0.1,10.7,0.2,16.4,0.9c1.4,0.2,2.4-0.2,2.5-2c0.1-3.4-0.6-4.7-3.8-5.7
						c-7.1-2.1-14.1-2.2-20.9,1.2c-1.2,0.6-2,1.6-2.6,2.7C190.2,143.4,191,144.5,193,144.4z"/>
					<path d="M210.5,157.4c-2.7-1.2-5.1-3-8.6-1.8c-2.4,0.9-5.2,0.5-8,0.7l0,0c0.9,1.2,1.9,1.9,3,2c3,0.4,4.2,2.4,4.9,5
						c0.6,2.1,2.1,2.9,4,3.5c1.8,0.5,2.8,0,3.2-1.8c0.2-1.1,0.4-2.2,0.5-3.3c0.1-0.7-0.1-1.1,0.9-1.5
						C212,159.8,212.1,158.1,210.5,157.4z"/>
					<path d="M218.8,186.7c0.2,1.6,0.1,3.9,1.6,4.1c1.5,0.1,0.9-2.3,1.4-3.6c0.5-1.1,0.8-2.4,0-3.6c-0.3-0.5-0.4-1.4-1.3-1.4
						c-1,0-1.1,0.9-1.5,1.5c-0.5,0.8-0.2,1.7-0.3,2.4l0,0C218.8,186.4,218.8,186.5,218.8,186.7z"/>
					<path d="M130,154.3c-2.4-1.3-5-2-7.8-1.1c-1,0.3-1.8,0.9-2.2,1.9c-0.6,1.2-0.2,1.5,0.6,1.4c3.9-1,6.7,0.9,9.6,2.3
						c0.8,0.4,0.9,0.9,0.4,1.9c-0.7,1.4-1.1,3-1.6,4.5c-0.3,1.1,0.2,2,1.2,2.6c1.2,0.7,1.7-0.4,2.3-1c0.3-0.3,0.4-0.7,0.7-1.1
						c2.1-3,2.1-3,4.3-0.2c0.4,0.6,0.8,1.3,1.5,0.8c0.6-0.4,0.4-1.3,0.2-1.9C137.5,159.9,134.3,156.6,130,154.3z"/>
					<polygon points="163.4,117.1 163.4,117.1 163.4,117.1 					"/>
					<path d="M120.3,165.5c-0.3-0.7-0.5-1.7-1.5-1.4c-1,0.3-0.4,1.2-0.6,2c0.6,2.4,0.7,5.2,3.1,7.1c0.5,0.4,1.1,0.8,1.6,0.4
						c0.5-0.4,0.4-1.2,0.2-1.7C122.2,169.9,121.3,167.7,120.3,165.5z"/>
					<path d="M473.9,696c-10.3-1.9-20.5-3.8-30.8-5.6c-1.4-0.2-1.4-0.5-1-1.7c4-14,3-28-0.3-42c-1.9-8.1-4-16.1-8-23.4
						c-5.8-10.6-14.6-17.4-26.2-20.7c-3-0.9-6.1-0.6-9.1-0.3c-1.6,0.2-2,2-3.5,2.2c-2.1,0.3-1.2,2-1.5,3.1
						c-11.1-0.2-22.1-0.1-32.8,3.5c2.1-4.9,6.9-6.4,10.9-8.7c13.2-7.7,26.3-15.6,38.7-24.4c9.6-6.8,19.4-13.3,28-21.4
						c1.1-1,2.1-3.3,4.3-1.4c0.1,0.1,1.6-0.1,2.3-1.4c3.3-6.5,4.3-13.6,5.6-20.6c1.4-7.7,2.4-15.4,2.9-23.1
						c0.6-9.1,1.9-18.1,0.7-27.2c-0.8-6.4-3.6-11.9-7-17.2c-5-7.8-11.4-14-18.8-19.7c-5.3-4.1-10.4-3-15.8-2.4
						c-14.4,1.6-28.1,5.8-41.7,10.4c-11.9,4-23.6,8.8-34.6,15.1c-2,1.2-4,2.5-6,3.8c1.3-8.3-0.6-16-2.8-23.6
						c-3-10.7-8.1-20.5-12.5-30.7c-3.7-8.6-7.7-17.1-12-25.4c-3.9-7.6-7.9-15.1-12.2-22.6c-7-12.3-12.8-25.1-15.1-39.2
						c-1.9-11.7-5.5-23-8.9-34.3c-0.9-3-2.6-5-5.5-6c-2.2-0.8-3.8-1.7-3.9-4.7c-0.2-3.8-3-6.4-6.4-7.9c-6.3-2.8-11.4-7.5-17.1-11.3
						c-7.3-4.8-14.8-9.3-22.4-13.4c-1.6-0.9-2.7-1.9-3.4-3.7c-1.5-3.6-4.5-6.2-7.7-8.4c-3.2-2.1-6.2-4.5-10-5.6
						c-0.7-0.2-1.3-0.8-1.6-2c1.8,1.2,3.9,0.9,5.4,2.3c0.2,0.2,0.6,0.5,0.9,0.4c2.3-0.6,4.1,1.2,6.2,1.5c5.6,0.7,11.4,1,16.7,2.8
						c3.4,1.2,6.3,0.6,9.3,0.2c3.7-0.5,5.6-3.7,7-6.8c0.9-1.9,1.1-3.9,1.2-5.9c0.2-3.9,2.9-7,3.5-10.8c1-6.1,1.3-12.2,0.4-18.4
						c-0.2-1.1,0.1-1.3,1.2-1.4c5.5-0.9,9.1-6.2,7.7-11.6c-1.5-6.1-3.6-12.1-6.5-17.7c-0.7-1.3-0.8-2.4,0-3.8c1.6-3,2.9-6.1,4.4-9.2
						c0.6-1.3,0.6-2.6,0.6-3.9c0-0.6-0.3-1.3,0-1.8c2.6-4.6,0-8.9-0.9-13.2c-1.9-8.5-3.5-17.1-6.4-25.3c-0.2-0.6-0.3-1,0.7-1.5
						c2.9-1.7,4.9-4.6,4.9-7.9c0-4.2,1.4-8,1.9-12.1c0.4-3.3,0.8-6.7-0.2-9.9c-1-3-0.3-6.1-1.4-9.1c-1.2-3.1-3.2-5-6.3-5.7
						c-1.1-0.3-1.9-0.5-2.6-1.3c-1.4-1.6-2.9-2.7-5.1-3c-1.5-0.2-2.3-2.1-4-2.5c-2.7-0.7-5.3-0.2-7.7,0.6c-1.4,0.5-1.9,0.1-2.3-1
						c-1.1-3.6-3.6-4.8-7.1-4.9c-1.5,0-2.9-1.2-4.4-1.8c-3.1-1.4-5.7-0.2-8,1.6c-1.4,1.1-2.5,1.4-4.4,1c-4.2-0.9-8.7-2.1-12.7-1.9
						c-6.5,0.4-13.5-1.2-19.7,2.2c-1,0.5-2.3,0.8-2.8,1.7c-1.9,3-4.3,1.6-6.1,0.4c-3.5-2.3-6.8-1.7-10.1,0c-1.2,0.6-2.2,1.2-3.7,0.7
						c-4.7-1.4-8.7,0.4-12.3,3.2c-1.2,0.9-2.4,1.4-3.9,1.4c-4.3-0.1-8.3,0.7-11.4,4.1c-0.7,0.7-1.5,0.6-2.4,0.6
						c-4-0.3-7.4,1.1-10,4.1c-1.5,1.7-3.6,2.5-5.4,3.8c-6.3,4.7-9.5,11-9.9,18.8c-0.1,1.5-0.7,3-0.5,4.6c0.1,0.8-0.2,1.2-1.1,1.3
						c-1.6,0.1-2.2,1.3-1.9,2.8c1,6.4,2,12.9,3.2,19.3c1,5.3,2.3,10.6,3.5,15.9c0.7,3,2.1,5.4,4.6,7.3c2.4,1.9,3.2,5.1,4.1,7.9
						c1,3,1.5,6.3,2.2,9.4l4.3,15.2l0,0c0.1,0.4,0.2,0.9,0.3,1.3c1.3,5.7,2.7,11.4,4,17.1c0.1,0.4,0.3,1,0.2,1.4l0,0l-3.3,9.4
						c-4.1-0.2-8.1,0.1-12.1,0.9c-4.9,1-6.8,4.3-8.4,8.2c-0.3,0.7-0.4,1.5-0.5,2.2l0,0c0,0,0.4,4.1-2.3,7.5
						c-2.7,3.4-4.7,2.5-4.7,2.5s-2.6,0.6-4.8,2.3c-2.2,1.7-19.5,18.6-37.5,27.8c-3.7,1.9-7.1,1.7-10.2,0.2c-0.3,0.3-0.8,0.7-1.2,0.2
						c-1.2-1.3-1,0.8-2.2,0.6l0,0c0.2-0.9,0.5-1.7,0.7-2.5c-5.4-4.1-9.7-12.1-12.4-18.6c-3.7,8.3-6.1,17.2-8.2,26.1
						c-0.1,0.3-0.2,0.7,0,1c1,2.3-0.4,2.9-2.2,3.5c-2.5,0.9-3,3.5-4,5.6c-0.6,1.4-1.1,2-2.8,1.4c-2.2-0.8-3.8,0.4-4.7,2.5
						c-2,4.9-3.1,10.1-3.8,15.3c-1.1,7.9-1.3,16-3.1,23.8c-0.5,2.1-1,3.2-3.4,3.2c-4,0-6,2.9-7.4,6.1c-2.4,5.1-3.3,10.7-5,16.1
						c-2.9,9.5-5.6,19.1-8.1,28.8c-2.3,8.7-4.4,17.4-6.3,26.2c-0.5,2.1-1.1,4.7,1.3,6.5c0.8,0.6,0.5,1.1,0.2,1.8
						c-3.6,8.1-6.8,16.8-12.6,23.5c-5.1,5.9-6.5,12.8-9.1,19.6c-0.7,1.7-1.4,1.9-2.7,1.1c-2.2-1.3-4.6-2.1-6.6-3.8
						c-5.6-4.8-12.3-4.4-19-3.4c-10.6,1.5-20.9,4-31.2,6.9c-3.8,1.1-7.7,2.3-11.2,4.3c-2.1,1.2-2.4,2.2-0.4,3.7
						c-1,0.8-2,1.3-2.7,2.5c-5.2,9.7-9.4,19.6-11.4,30.5c-0.4,2.3,0.2,4.8-0.9,7v4.1c1.1,0.9,0.3,2.2,0.6,3.3
						c1.8,7.6,5.1,14.5,9.5,21c4.4,6.4,9.5,12.3,14.4,18.3c7.3,8.9,15.4,17,24,24.6c8.6,7.7,18.6,13.8,27.1,21.9
						c-10.6,2.1-20.8,4.5-30.4,9.2c-8.9,4.3-15.9,10.4-19.5,19.9c-2.4,6.3-3.8,12.8-4.5,19.5c-1.1,10.5-0.4,20.8,2.5,30.9
						c1.2,4.2,3.6,7.9,5,11.9c1.2,3.5,3.2,5.9,6.1,7.9c1.8,1.3,3.8,2.4,6.3,3.7c-2.9,0.2-5.3,0.3-7.6,0.7c-8.9,1.5-17.9,2.6-27,2.6
						c-0.6,0-1.7-0.3-1.6,0.7c0.1,0.7,0.1,1.8,1.3,1.9c0.6,0.1,1.2,0.5,1.7,0.4c7.7-0.4,15.4,0.9,23.1,1c7,0.1,14.1-0.3,21.1-0.3
						c14.9-0.1,29.7-0.6,44.6-0.6c3.2,0,6.5,0.8,9.7,0.4c4.2-0.6,8.3-1,12.5-0.9c5.9,0.2,11.8,0.1,17.8,0.4c8.6,0.4,17.3,0.8,25.9,1
						c10.1,0.3,20.2,1.2,30.4,1.2c2.8,0,5.5-0.2,8.3,0c6.2,0.6,12.1-1.3,18.2-1.7c0.3,0,0.6-0.2,0.9-0.3c4.7-2.1,9.7-3.5,14.9-3.7
						c9.1-0.3,18.2,0.4,27.2,0.9c8.3,0.4,16.6,0.3,25,0.6c7.9,0.3,15.8,0,23.7,0.7c5,0.4,10.1,0.3,15.1,0.7c10.4,0.8,20.8,1,31.2,1
						c5.1,0,10.3-0.2,15.4-0.3c4.2-0.1,8.5,0,12.6-0.7c4.4-0.8,8.7-0.5,12.9-0.1c7.5,0.7,15,0.7,22.4,0.1c4.7-0.4,9.3-0.2,13.8,0.7
						c8.4,1.5,16.9,3,25.4,3.8c2.7,0.3,5.6-0.3,8.3,0.9h32.6c0.4-0.9,1.2-0.5,1.8-0.5c14.6,0,29.1,0,43.7,0c0.5,0,1.2-0.3,1.6,0.5
						h0.5l0,0c0.6-1,1.6-0.5,2.3-0.5c7.6,0.1,14.8-1.6,21.9-4.1c1.3-0.5,2.5-0.5,3.9-0.1c5.8,1.8,11.6,0.3,17-1.5
						c3.8-1.3,7.5-1.9,11.3-1.4c3.8,0.5,7.7,0.5,11.5,0.7c5.9,0.3,11.8,1.2,17.8,0.7C475.6,696.2,474.7,696.2,473.9,696z
						 M360.7,483.5c1.9,1.6,3,5.2,2.1,6.7C361.3,488.2,359.9,486.3,360.7,483.5z M348.7,499.7c12.2-7.3,24.6-14.3,37.4-20.6
						c0.8-0.4,1.8-1.2,2.7-0.2v0c-2.3,2-86.5,49.8-88.3,50c0.5-0.4,0.8-0.6,1.1-0.8C317.3,518.6,332.9,509.1,348.7,499.7z
						 M189,273.1c2,3.5,3.6,7.4,6.5,10.7v0c-1.1,0.2-2,1.3-2.9,0.2c-3.5-4.1-8-7-11.9-10.5c-5-4.5-8.1-4.3-12.4,0.8
						c-1.8,2.2-3.7,4.2-5.1,7c-0.4-2.1-0.1-4.1-1.2-5.7c-0.8-1.2-0.4-1.8,0.5-2.6c2.2-1.9,4.1-4,5.3-6.5c1.7-3.5,4.9-6.1,5.7-10.3
						c1.5-7.8,3.4-15.5,4.8-23.4c0.9,0.3,1,1,1.2,1.4c1.3,3.5,2.4,7.1,3.8,10.5c0.9,2.5,1.1,4.8,0.7,7.5c-0.5,3.1-0.4,6.4,0,9.5
						c0.2,1.9,0.1,4,1.5,5.6C186.8,269,187.9,271.1,189,273.1z M104.6,223.8c0.8-1,1.2-2.2,1.7-3.4l0,0l0,0c0.2-0.4,0.4-0.9,0.6-1.3
						l2.1-5l2-4.8l2.5-5.8c0-0.3,0.1-0.7,0.3-1c1.7-3.3,3-6.8,4.8-10.1c1.3-2.3,2.9-5,2.7-7.3c-0.2-3.4,0.9-1.8,2.3-1.3
						c4.6,1.5,9.3,2.9,14.7,2.1c-1,1.2-0.7,2.1-0.1,3c1.5,2,2.9,4,4.7,5.8c0.7,0.6,0.8,2.2,2.3,1.3c1.6-1,0.2-2-0.2-2.8
						c-2-4.3-5-8.3-3.8-13.5c0.1-0.5,0.1-1.5-0.6-1.4c-0.9,0-1.9,0.4-2.2,1.4c-0.2,0.5-0.2,1.2-0.2,1.8c0.1,1.1-0.3,1.5-1.5,1.5
						c-3.8,0-7.6,0.1-11.3-0.7c-2.7-0.6-5.1-1.6-7-3.8c-4.1-4.6-6.4-10.1-7-16c-0.9-8.4,7.3-15.1,15.6-13.3c3.8,0.9,7,2.8,10.3,4.8
						c5.8,3.5,6.5,9.8,8.7,15.3c0,0.1-0.1,0.3-0.2,0.4c-0.4,0.4-1.2,0.7-0.3,1.3c0.7,0.6,1.6,1.1,2.5,0.7c1.5-0.6,2.6-2.3,3-4.1
						l1.6-1c0.4,0.2,0.9,0.3,1.4,0.3c1.5,0.1,1.7-0.8,1.8-1.9c0-0.8,0.6-1.6,0-2.4c-2.7-3.8,0.7-5.9,2.4-8.5c0-0.1,0.1-0.2,0.1-0.2
						c6.6-4.3,6.3-10.8,5.7-17.4c-0.2-2.4,0-4.8,0-7.2c0-2,0.3-4-0.1-5.9c-0.3-1.9-0.4-3.7-0.5-5.9c0,0,0,0,0,0l0,0l0.1-3.1
						c1-0.2,2-0.4,3-0.5c0.9-0.2,1.9,0,1.2-1.6c-0.6-1.4,0-2.6,1.9-2.7c7.3-0.6,14.6-1.4,21.9-1.9c6.3-0.4,12.5,0,18.8,0.4
						c7.5,0.5,14.9,1.9,22.4,2.2c0.6,0,1,0.1,1.2,0.7c1,3.5,2.9,7.1,2.7,10.5c-0.4,5.5,1.1,10.6,1.5,15.9c0.3,4.2,0.7,4.2-3.3,4.3
						c-1.1,0-2,0.3-2.3,1.2c-0.4,1.4,3.8,5.7,5.4,5.4c1.8-0.3,1.8,0.8,2.1,1.9c0.8,3.1-0.2,6-0.5,9c-0.1,0.9-0.6,1.3-1.4,0.7
						c-1.6-1.2-3.1-0.2-4.1,0.7c-1,0.8-0.6,2.5-0.1,3.6c2.8,5.7,5.8,11.3,8.7,17c0.2,0.4,0.7,0.8,1,1.1c2.4,2.5,2.1,5.7-0.9,7.4
						c-4.1,2.4-9.1,1.9-13.3,3.9c0.1,1.7,1.2,3,2.9,3.7c1.1,0.4,1.4,1.2,1.5,2.1c0,2.8-0.2,5.6-0.6,8.3c-5.8-1.5-11.5-1.3-17.6-0.6
						c1.2,1.6,2.5,2.3,3.9,2.8c2.1,0.7,4.2,1.2,6.5,1.1c2.4,0,5.1,0.6,6.6,2c1.3,1.2-0.6,3.6-1.2,5.4c-1.7,5-1.7,5-6.6,3.9
						c-0.7-0.1-1.3-0.3-2-0.5c-1.4-0.3-2.7,0-3.5,1c-1.7,2-3.4,2.8-5.4,0.5c-0.5-0.6-0.8-0.1-1.2,0.2c-0.7,0.5-0.1,1.6-1.1,1.9
						c-0.8-0.5-0.3-1.3-0.6-1.9c-0.3-0.6-0.2-1.7-1.3-1.6c-0.9,0.1-1.9,0.4-2.1,1.3c-0.3,2.4-2.6,2.8-4,4.1c-1.3,1.2-4.6,0-5.5-1.5
						c-0.4-0.6-0.8-1-1.4-0.8c-0.8,0.2-0.3,0.8-0.3,1.2c-0.1,1.2-0.5,1.7-1.9,1.9c-3.8,0.5-6.5-2.1-9.8-3.1
						c-7.6-2.4-14.7-5.9-21.4-10.2c-0.2,1-0.2,2.1-0.7,2.7c-1.6,2-0.3,2.9,0.9,4.5c2.3,3.1,4.6,6.3,4.4,10.6
						c-0.3,8.1-0.4,16.3-0.6,24.5c0,0.7,0,1.4-0.6,1.9c-2.6,2.3-4.3,5.3-6.1,8.2c-0.5,0.9-1,1.1-2.1,0.5
						c-9.1-5.3-18.1-10.7-26.9-16.5c-10.2-6.7-19.5-14.4-26.2-24.8C104.8,225.3,103.8,224.8,104.6,223.8z M-29.6,326
						c0.5-1.3,1.4-2.5,3-2.8c1.3-0.3,1.9,0,2,1.3c0.1,1-2.8,5.7-3.6,5.4c-2.5-1-1.8,1.4-2.5,2.2c-0.5,0.6-0.2,1.7-1.5,2.7
						C-31.2,331.5-30.6,328.7-29.6,326z M20.3,696.7c-9.7-0.4-19.4-0.7-29.1-1c-10.7-0.3-21.3-0.3-32-0.5
						c-13.8-0.3-27.6,0.1-41.3-2.5c-9.4-1.8-17.7-4.8-23.9-12.5c-0.6-0.8-1.9-1.3-2.7-0.9c-1.1,0.6-1.5,1.8-1.2,3.1
						c0.6,2.4,1.8,4.4,3.8,5.8c0.8,0.6,1.7,1.1,2.3,2.3c-5.3-0.8-10.4-1.3-14.7-4.3c-1.6-1.1-3.5-1.9-4.6-3.9
						c-5.8-10.4-7.9-21.7-8.2-33.5c-0.1-7.7,0.9-15.3,2.6-22.8c2-9,6.3-16.5,14-21.8c5.6-3.8,11.9-6,18.2-8.5
						c5.7-2.3,10.8,0.6,16.1,1.2c-1.4,1.1-3.1,1-4.6,1.3c-6,1.3-12,2.6-17.3,5.6c-14.2,8.1-21.7,20.8-23.1,36.7
						c-1,11.9,0.4,23.7,5.1,34.8c0.9,2.2,1.9,4.3,3.4,6.3c0.8,1.1,1.6,0.6,2.2,0.2c0.7-0.4,1.4-1.1,0.7-2c-0.8-1-0.6-2.3-1-3.4
						c-3.7-12.8-5.2-25.8-4.5-39.2c0.6-10.9,6.2-18.8,14-25.7c5.3-4.7,11.7-6.9,18.3-8.5c4.3-1.1,8.2-4.5,13.2-2.8
						c0.2,0.1,0.6-0.2,0.9-0.4c1.1-0.8,2.2-0.6,3.3,0c11.6,5.3,23.1,10.7,34.8,15.8c10.3,4.5,20.8,8.8,31.3,12.9
						c3.6,1.4,7.3,2.4,10.6,4.6c-4.8-0.8-9.5-1.9-14.3-2.5c-8.9-1.1-17.8-2.1-26.8-0.8c-1,0.1-1.9,0-1.7,1.5
						c0.2,1.3,0.4,2.6,2.1,2.6c3.4,0,6.8,0.7,10.1,1.1c6.1,0.7,12.3,1.4,18.4,2c3.8,0.4,7.7,0.5,11.5,0.5c1,0,2.4,0.6,3-0.6
						c0.6-1.3-0.2-2.4-1-3.5c0,0,0,0,0,0c1.7,0,3,1.1,4.5,1.6c8.8,3.2,17.6,6.5,26.4,9.6c1.6,0.6,2.3,1.2,2.2,3
						c-0.2,2.6,0.1,5.3,0.3,7.9c0.7,9.4,3.2,18.3,7.5,26.7c0.6,1.3,0.8,2.3,0.4,3.5c-1,2.9-1.1,5.8-1,8.8c0.1,1.7,0.5,1.9,2.2,1.7
						c0.2,0.6,1.1,0.8,1.1,1.7C41.5,697.6,30.9,697.1,20.3,696.7z M-54.5,479.1c34.6,16.7,70,31.8,104,49.8
						C14.6,512.9-20.8,497.7-54.5,479.1z M58.4,694.7c-0.6,1.1-1,2.2-0.3,3.4c-2.5-0.6-4.8-1.2-7.1-1.8c1.9-1.9,1.3-4.9,2.9-7.2
						c1.4,1.1,2.5,2.6,4.1,3.5C58.8,693.2,58.8,694.1,58.4,694.7z M84.7,654.1c-6.4-1-12.5-3.1-18.4-5.7c6.2,1.7,12.4,3.4,18.6,5.1
						C84.8,653.7,84.7,653.9,84.7,654.1z M193.5,683.5c-4.1-1-8.2-2-12.2-3.2c-13.9-4.5-27.6-9.7-41.2-15.1
						c-11.6-4.6-23.2-9.3-34.7-14c-6.1-2.5-12-5.2-18.1-7.9h0c36.8,13.4,73,27.8,110.5,40.1C196.2,683.8,194.8,683.8,193.5,683.5z
						 M213.6,591.5c-3.3,0.5-6.2-0.5-9-1.2c-9.6-2.3-19-5-28.6-7c-6.9-1.4-13.6-3.5-19.7-7c-6.4-3.8-12.4-8.3-18.5-12.7
						c-4.9-3.5-9.3-7.6-14.5-10.6c-14-7.9-27.9-15.8-41.8-23.8c-1.4-0.8-1.4-1.5-0.7-2.5c1.9-2.5,3.9-5,5.8-7.5
						c0.6-0.8,1.3-0.9,2.1-0.3c2.3,1.8,4.9,3.2,7.4,4.6c6.4,3.5,13.2,5.9,20.1,8c1.8,0.6,3.9,0.8,5.5-0.9c4-4.1,8.4-7.8,11.8-12.6
						c0.5-0.7,1-1,1.9-0.8c3.5,0.8,7.1,1.6,10.7,2.4c3,0.6,6.4,1.7,9,0.1c2.7-1.8,5.5-1.8,8.3-2.4c2.3-0.4,4.6-0.1,6.9-0.5
						c5.4-1,10.5-0.8,15.2,3c6.8,5.5,13.6,11.1,19.6,17.5c1.2,1.3,2.3,1.8,3.9,1c0.4-0.2,0.9-0.7,1.3,0c0.2,0.4,0.2,0.8-0.2,1.2
						c-3.1,2.7-4,6.8-6.2,10.2c-3.8-3.8-7.4-7.5-11.2-11.1c-2.8-2.6-5.7-5.2-8.9-7.3c-1.6-1.1-3.4-0.5-4.4,0.4
						c-1.5,1.3,0.5,2.2,1.3,3c5.4,6,11.1,11.7,16.8,17.4c2.6,2.6,2.5,2.4-0.4,4.7c-1.8,1.4-2.9,1.4-4.5-0.2c-2.3-2.2-5-4.1-7.6-6.1
						c-3.3-2.5-6.8-4.5-10.5-6.4c-0.7-0.3-1.5-0.6-2.1,0.1c-0.7,0.8,0.4,1.1,0.7,1.6c1.7,2.2,3.8,3.9,5.9,5.6
						c3.6,2.8,7.5,5.2,11.4,7.6c1.5,0.9,1.6,1.1,0.7,1.6c-3.8,2.2-7.5,4.5-11.9,6.1c0.8-1.5,1.6-3.1,0-4.3c-4.8-3.6-10-6.4-15.6-8.4
						c-1.8-0.6-2.9,0.5-3.9,1.8c-0.9,1.3-0.1,2.4,0.7,3.1c4.7,4.6,10.5,7.3,17,8.8c-5.6,2.8-11.5,4.4-17.7,5.6
						c1.1,1.3,2.1,3.3,2.7,3.5c3.2,0.8,5.8,3,9,3.5c12.8,1.9,25.3,5.1,37.7,8.9C210.9,589.5,212.4,589.8,213.6,591.5L213.6,591.5z
						 M89.5,516c2-2.2,3.7-4.5,5.6-6.7c3-3.4,3-3.4,7-1.4c9,4.5,19,5.9,28.8,8.6c-3.1,4.4-6.1,8.6-9.1,12.9c-0.7,1-1.4,0.5-2.2,0.2
						c-3.4-1.3-6.8-2.5-10.2-3.6c-6.6-2.2-13-4.7-19.4-7.5C88.4,517.8,88.4,517.2,89.5,516z M264.2,593.1c-4.1-0.5-8.3-0.8-12.4-1.6
						c-9.6-1.9-19.3-2.8-29-3.4c-1.3-0.1-1.5,0.2-1.4,1.5c0.4,4.1-0.6,8.1-1.5,12.1c-0.4-2.3,0.6-4.6,0.1-7c-0.4-2.3,0.6-4.8-1.5-7
						h0c5.2-1.7,10.3-1.6,15.3-1.2c7.3,0.6,14.5,1.6,21.7,3c3,0.6,6,1,8.9,2.1c0.5,0.2,1,0.5,0.9,1.1
						C265.1,593.3,264.6,593.2,264.2,593.1z M251.8,519.1c-12.6,8.4-25,17-37.4,25.5c-0.5,0.3-0.9,0.6-1.4,0.3
						c-0.6-0.3-0.4-0.9-0.2-1.4c0.7-1.6,0.4-3.3,0.3-4.8c-0.2-2.2-0.6-4.7-3-5.4c-1.3-0.3-1.9-1-2.4-1.9c-2.6-4.2-5.5-8.2-9.1-11.7
						c-4.7-4.6-10-8.3-16.6-9.5c-2.8-0.5-5.6,0.3-8.3,0.7c-7,0.9-14.4,0-21,3.5c-0.4,0.2-1,0-1.5-0.2c-8.6-2-17.2-4-25.8-6
						c-7.6-1.8-15.4-3.4-22.6-6.6c-0.6-0.3-1.3,0-1-1.4c0.5-2.9-0.6-5.3-3.1-6.9c-7.5-4.8-15.3-8.9-23.7-11.7
						c-1.5-0.5-1.9-0.9-2-2.4c-0.2-2.1-1.1-3.8-3.3-4.7c-2.3-0.9-4.7-2-6.9-3.2c-9.7-5.7-19.8-10.5-30.6-13.9
						c-1.8-0.6-1.9-1.3-1.1-2.9c1.8-3.5,3-7.4,4-11.2c0.4-1.5,0.5-3-0.9-4.2c-2.4-2.2-3.6-5.1-5.2-7.9c-1-1.8-0.7-3,0.3-4.5
						c3.3-5.2,5.9-10.7,7.5-16.6c0.4-1.7-0.4-3.2-1.3-3.9c-1.2-0.8-2,0.9-2.7,1.8c-3.1,4.5-6,9.1-7.8,14.2c-0.9,2.7-2.1,5.4-0.1,8.2
						c2.3,3.2,5.2,6.1,3.8,11c-1.2,4.1-1.5,8.5-2.2,12.8c-0.1,1-0.6,1-1.4,1c-1.4-0.1-0.4-0.7-0.3-1.1c0.7-2.5-0.7-3.4-2.8-4.1
						c-6.1-2-12.4-1.7-18.6-1.4c-5,0.2-10,0.5-14.8,2.4c-0.8,0.3-1.6,0.6-1.5,1.4c0.2,1.1,1.3,0.8,1.9,0.5c1-0.5,2-0.3,3-0.4
						c7.3-0.4,14.5,0.6,21.8,1.1c1,0.1,2.6,0.2,2.7,1c0.4,3.1,3,3.7,5,4.5c16.2,6.2,31.3,15.1,48.1,19.7c0.5,0.1,1.3-0.3,1.1,1.1
						c-0.6,3.4,0.9,6,3.8,7.7c6.5,3.8,13,7.6,19.6,11.4c3,1.7,3,1.7,0.4,3.7c-1,0.8-2,1.7-2.7,2.7c-2.9,3.8-5.5,7.8-7.8,11.9
						c-0.8,1.5-1.2,3.9-2.8,4.2c-2.1,0.4-3.2,1.5-3.9,3.2c-0.6,1.3-1.2,1.1-2.2,0.6c-7.3-4.3-14.6-8.6-21.9-12.9
						c-14-8.3-28-16.4-42.4-23.8c-9.6-4.9-19.4-9.5-29.3-13.8c-10.5-4.6-20.8-9.4-31.1-14.2c-6.6-3-13.1-6.1-19.6-9.3
						c-0.5-0.2-1.8-0.3-0.9-1.4c3.5-5,4.8-10.9,8.6-15.9c7.3-9.6,13-20.4,17.3-31.8c0.9-2.4,1.5-5,2.9-7.1c3.2-4.6,5-9.6,6.4-14.9
						c1.8-7,3.3-14.1,5.4-21c3.2-10.5,7.4-20.8,9.8-31.6c2-9,4-18,4.5-27.3c0.3-6,0.9-12.1,2.9-17.9c0.5-1.4,1.1-2.3,2.5-2.7
						c1.8-0.5,3.6-1.3,4.1-3.2c0.6-2.2,1.9-3.1,3.9-3.6c2.9-0.7,5.7-1.6,8.5-2.4c12.2-3.8,23.8-8.9,34.9-15.1
						c10.8-6.1,21.1-12.9,30-21.6c1.5-1.4,2.9-2.4,4.9-2.2c1.2,0.1,2.3-0.2,3.1-1.2c2.3,4.6,4.5,9.2,6.9,13.7
						c4.6,8.3,9.6,16.4,13.8,24.9c4,8,8.5,15.6,14.7,22.2c-0.3-1.1-0.7-2.3-1.1-3.8c5.8,2,10.9,1.2,15.5-2c2.7-1.8,5.2-3.8,7.5-6.1
						c3.8-3.8,8.8-3.4,10.8,0.8c-2.6,0.5-3.8,1.8-3.3,3.8c0.6,2.2,2.4,4.4,4.4,4c3.4-0.7,4,1.3,5,3.4c0.2,0.5,0.5,1.2,1.2,1.1
						c0.7-1.2-0.4-2.1-0.4-3.2c0.3-5.5-1.7-10.1-5.2-14.3c-4-4.8-11.3-5.8-16.2-1.9c-3.3,2.6-6.3,5.5-9.7,8
						c-2.5,1.9-4.3,4.9-7.9,5.3c-1.6,0.2-2.9,0.3-3.6-1.6c-0.8-2.1-1.8-4-2.5-6.1c-1.9-5.2-3.5-10.5-6.1-15.4
						C97.1,251.3,91,239,82.6,228c-0.3-0.4-1.2-1-0.3-1.7c3.7-2.5,4.5-6.5,5.3-10.5c0.4-1.7,0.9-3.3,2.8-3.9
						c3.8-1.2,7.6-2.2,11.8-1.7c-0.7,1.3,0.1,3.5-2.1,3.4c-2.5-0.2-2.1,1.3-1.7,2.6c0.9,3.3,1.9,6.5,2.4,9.9
						c1,7.1,5.5,12.7,9.8,18.2c5.9,7.6,13.6,13.1,21.8,18.1c7.7,4.7,15.1,9.7,23.9,12.3c1.2,0.4,1.8,1.2,1.2,2.6
						c-1,2.2-1.1,4.6-0.7,6.9c0.9,4.8,0.1,9.3-1.1,13.8c-1.7,6.8-2.5,13.9-3.2,20.9c-1,9.8-1.7,19.7-1.9,29.5
						c-0.3,12.4-0.1,24.7,0.8,37.1c0.4,5.3,1.5,10.5,1.3,15.9c0,1.5,0.2,3.2,0.5,4.8c1,7,1.9,14,3,20.9c0.9,5.7,1.2,11.6,5,16.5
						c-2.3-0.5-4.3-1.3-7.2-0.8c5.5,2.2,10.3,4.2,15,6.2c0.6,0.3,1.6,0.1,1.6,1.3c0,3.7,1.5,7.1,2.5,10.6c0.5,1.8,1.5,3.8,0.5,5.4
						c-1.2,1.8-0.5,3.1,0.2,4.6c2.5,5.2,5.3,10.2,8.4,15.1c1.7,2.6,2.3,6.3,6.7,6.3c-4.2,3.2-5.1,2.6-2.4,7.9
						c0.6,1.3-0.3,1.5-1.3,1.9c-3,1.1-5.1,3-6.4,6.2c0.6-0.1,1,0,1.1-0.2c2.5-3,6-4,9.4-5.3c4.1-1.6,4.3-1.9,2.6-5.7
						c1.1-0.3,2.1-0.6,3.2-0.9c9.5-3.1,18.3-7.4,26.9-12.5c10.7-6.4,20-14.6,28.7-23.4c0.8-0.8,2.2-1.8,1.1-3.2
						c-1-1.2-2.6-1.4-4.1-1c-0.6,0.2-1.1,0.4-1.6,0.7c-6.2,3.4-11.3,8.3-17,12.4c-12.2,9-25.5,15.9-39.1,22.6
						c-2.1-6.7-5.5-12.7-8.6-18.8c-1.3-2.6-3.7-4.5-4.6-7.2c-1.2-3.6-1.9-7.4-2.7-11.1c-0.7-3.4-1-6.7-4.8-8.7
						c-3.5-1.9-4.2-6.2-4.9-9.9c-2.1-10.7-3.7-21.6-5.9-32.3c-0.8-4-0.3-8.8-4.2-11.8c-0.1-0.1,0.1-0.6,0.1-0.9
						c0.5-8.6,1.2-17.3,1.5-25.9c0.3-7.9,0.3-15.9,0.5-23.8c0.3-9.2,0.8-18.3,1.3-27.5c0.1-2.4,0-4.8,0.5-7.2c1.6-8,3-16.1,4.2-24.2
						c0.9,1.8,2.7,2,4.5,0.5c1.6-1.3,3-2.8,4.5-4.2c0.8-0.7,1.6-1.5,2.9-0.6c5.6,3.9,11.2,7.8,18.3,8.6c2.2,0.3,4.1,0.1,6.1-1
						c1.1-0.6,0-2.2,1.4-2.4c1.3-0.3,1.8-1.2,1.2-2.3c-0.5-1-1.4-1.1-2.6-0.5c-0.9,0.5-2.3,0.7-2.4-1.1c-0.3-3-1.5-5.7-3.1-8.2
						c-1.9-3-3.3-5.8-2.8-9.8c0.6-5,1.1-10.2,0.6-15.9l0,0c1.7,1.5,2.9,2.6,4.2,3.6c6.6,4.8,13.7,8.7,20.6,13.1
						c10.1,6.5,20.1,13.2,30.6,19.1c2.3,1.3,4.5,2.5,6.4,4.6c1.6,1.8,2.7,4.1,4.5,5.8c1.4,1.3,2.5,2.7,2.3,4.9
						c-0.1,1.5,0.4,3,0.7,4.5c1,5.3,3.2,10.4,4.4,15.6c2.1,9.2,3.9,18.4,6.1,27.5c3.2,13,9.9,24.4,16.2,35.9
						c8.6,15.9,15.9,32.4,23.2,48.9c2.9,6.5,5.4,13.2,10.1,18.9c0.9,1.1,2.1,2.6,2,3.7c-0.3,3.1,0.1,6.1,0.4,9.2
						c0.4,4.6,0.3,9.3,2.2,13.7c0.5,1.3-0.3,1.2-0.9,1.5c-10.2,5.4-20.3,10.9-30.3,16.7C279.4,501.1,265.6,510,251.8,519.1z
						 M148,283.1c0.5-0.1,1.1-0.1,1.4,0.2c0.6,0.6,1.1,1.4,1.7,2.4c-1-0.2-1.8-0.4-2.6-0.6c-0.5-0.1-1.1,0-1-0.8
						C147.5,283.8,147.3,283.2,148,283.1z M293.7,610.1c-3.2,1.3-5.8,2.3-8.7,3.4c1-2.7,1.7-4.9,1.7-7.3
						C289.6,606.3,291,608.9,293.7,610.1z M282.1,613c-1.4-2.2-2.7-4.3-4.3-6.8C282.2,607.2,282.8,608.2,282.1,613z M422.3,685.9
						c-0.1,0.8-0.5,0.8-1,0.8c-3.3,0.1-6.2,1.7-9.2,2.6c-5.8,1.8-11.7,3.6-17.7,4.5c-7.3,1.2-14.7,1.3-22.1,1.5
						c-10.8,0.3-21.6,0.5-32.4,1c-8.8,0.4-17.5,0-26.3-0.5c-5.2-0.2-10.4-0.6-15.6-1.1c-7.4-0.7-14.9-1.7-22.3-2.5
						c-3.7-0.4-4.2-0.6-3.5-4c0.4-2-0.3-4.2,1.3-6.1c10.3-11.5,14-25.7,15-40.6c0.4-6.7-0.6-13.5-3-19.9c-0.5-1.5-0.4-2.3,1.2-2.9
						c4-1.6,8-3.4,12-5.2c1.6-0.7,3.1-1,4.9-0.6c11,2.4,22.1,3.7,33.3,4.8c3.8,0.4,7.6,0.6,11.5,1.7c-1.5,0.5-2.4,1.5-3.2,2.6
						c-3.3,4.6-5.3,9.9-6.9,15.2c-0.4,1.4-1,1.6-2.1,1c-2-1-4.1-1.5-6.3-2c-6.7-1.5-13.5-2.7-20.3-3.6c-4.7-0.6-9.5-1.4-14.3-1
						c-1.5,0.1-3.3,0-3.8,2c-0.7,2.7,0,3.4,3.4,3.6c4.5,0.3,9,0.7,13.5,1.4c5.4,0.8,10.8,1.4,16.2,2.2c3.4,0.5,6.8,1.2,10.3,1.6
						c1.1,0.1,2,0.4,1.6,2.3c-2,9.6-1.9,19.4,0.4,28.9c0.8,3.4,2.1,6.6,4.1,9.6c0.6,0.9,1.5,1.7,2.6,1.3c1-0.4,0.6-1.5,0.4-2.3
						c-0.5-3.5-1-7.1-1.6-10.6c-1.3-7.3-1.3-14.7-0.3-22c1.2-8.5,3.8-16.7,6.7-24.8c0.6-1.7,0.6-4.4,1.8-5.1
						c1.4-0.9,3.8-0.1,5.7-0.1c0.9,0,1.7-0.1,2.6-0.1c4.3,0.1,8.2-1.8,12.3-2.7c6.7-1.4,13.5-2.3,20-4.6c1.9-0.7,3.5-1.4,2.7-4.7
						l0,0c5.6,5.4,10.7,10.2,15.1,15.6c10.4,12.7,15.2,27.4,15.6,43.6C424.6,673.5,423.1,679.7,422.3,685.9z M436.9,668.2
						c-0.2,7.2-1.3,14.4-2.9,21.5c-0.3,1.4-0.9,1.9-2,2.2c-1.8,0.5-3.6,0.9-5.4,1.4c-1.5,0.4-3-0.7-2.7-1.6c0.6-1.8,0.4-3.6,0.9-5.4
						c2.9-9.8,5.6-19.6,4.1-30.1c-1.2-8.2-3.3-16.1-6.8-23.6c-4.7-9.9-11.8-17.9-20.8-25v0c13.1,1.8,22.1,8,27.2,19.7
						c3.1,7.2,4.9,14.8,6.6,22.4C436.3,655.7,437,661.9,436.9,668.2z"/>
				</g>
			</g>
		</g>
		<g>
			<path d="M160.5,3c42.1,0,81.6,16.4,111.4,46.1c29.7,29.7,46.1,69.3,46.1,111.4c0,42.1-16.4,81.6-46.1,111.4
				c-29.7,29.7-69.3,46.1-111.4,46.1s-81.6-16.4-111.4-46.1C19.4,242.1,3,202.5,3,160.5c0-42.1,16.4-81.6,46.1-111.4
				C78.9,19.4,118.4,3,160.5,3 M160.5,0L160.5,0C71.9,0,0,71.9,0,160.5v0C0,249.1,71.9,321,160.5,321h0
				c88.6,0,160.5-71.9,160.5-160.5v0C321,71.9,249.1,0,160.5,0L160.5,0z"/>
		</g>
	</g>
</g>
</svg>
