<?xml version="1.0" encoding="utf-8"?>
<!-- Generator: Adobe Illustrator 25.3.0, SVG Export Plug-In . SVG Version: 6.00 Build 0)  -->
<svg version="1.1" xmlns="http://www.w3.org/2000/svg" xmlns:xlink="http://www.w3.org/1999/xlink" x="0px" y="0px"
	 viewBox="0 0 321 321" style="enable-background:new 0 0 321 321;" xml:space="preserve">
<style type="text/css">
	.st0{fill:#FF63FF;}
	.st1{clip-path:url(#SVGID_2_);fill:#FFFFFF;}
	.st2{clip-path:url(#SVGID_2_);}
	.st3{clip-path:url(#SVGID_4_);}
	.st4{clip-path:url(#SVGID_6_);}
</style>
<g id="Layer_1">
</g>
<g id="Layer_2">
	<g>
		<g>
			<defs>
				<path id="SVGID_1_" d="M-180.5,321L-180.5,321c-88.6,0-160.5-71.9-160.5-160.5v0C-341,71.9-269.1,0-180.5,0h0
					C-91.9,0-20,71.9-20,160.5v0C-20,249.1-91.9,321-180.5,321z"/>
			</defs>
			<clipPath id="SVGID_2_">
				<use xlink:href="#SVGID_1_"  style="overflow:visible;"/>
			</clipPath>
			<path class="st2" d="M-264.6,835.4c-0.2,7.3-0.9,14.6-0.6,21.8c0.3,6.8,1.2,13.7,2.7,20.3c3.3,14.8,7.1,29.5,10.8,44.2
				c0.5,1.8,1.6,3.5,2.4,5.2c0,0.2,0,0.4,0.1,0.5c0.2,0.8,0.3,1.6,0.5,2.4c-0.2,0.1-0.3,0.2-0.5,0.3c0.2,0.2,0.3,0.3,0.5,0.5
				c1.1,3.5,2.1,7,3.2,10.4l1.9,5.6c1,3.3,2,6.6,3.1,9.9c0.2,1,0.4,2.1,0.6,3.1c4.7,15.5,9.4,31,14.1,46.5c1,3.3,2.3,6.6,3,10
				c0.4,1.7,0.7,3.8-1.9,4.6c-0.7,0.2-1,1.3-1.5,2c-5.6-2.5-6.4-8.4-9-13.1c-0.6-0.7-1.2-1.4-1.8-2.1c0-0.2-0.1-0.3-0.3-0.3
				c-0.1-0.6-0.2-1.3-0.3-1.9c0.1-0.7,0.4-1.5,0.2-2.1c-3-10.1-6.2-20.2-9.2-30.3c-5.9-19.6-11.8-39.2-17.4-58.9
				c-2.9-10.2-5.5-20.6-8-31c-1-4.4-1.6-9-1.9-13.6c-0.4-6.7-1-13.6-0.5-20.3c0.7-9.6,2.3-19.1,3.5-28.6c0.5-4,1.3-7.9,1.9-11.9
				c0.6-1.7,1.1-3.3,1.7-5c2.6-8.3,4.8-16.7,9.4-24.1c0.4-0.7,0.7-1.8,0.5-2.6c-1.8-6-3.6-12-5.5-18c-0.2-0.6-0.7-1.1-1.1-1.6
				l-0.6-3.7c-0.6-3.7-1-7.4-1.7-11.1c-0.3-1.9-1-3.7-1.4-5.6l-0.6-3.6c-0.1-3,0-6-0.4-9c-0.1-0.5-2.7-0.8-4.1-0.9
				c-1.9-0.1-4.1,0.5-5.4-1.7c-0.2-0.3-0.6-0.6-0.7-0.9c-1.2-5.6-2.3-11.3-3.6-17.3c-1.4,3.6-2.6,7.1-3.9,10.5
				c-0.1,0.4-0.3,0.7-0.4,1.1c0.3-0.2,0.6-0.4,0.8-0.5l2-1.5c-1.8,7-5.6,12.4-11.8,15.8c-9,5.1-18.6,5.8-28.3,2.4
				c-6-2-11.8-4.6-17.6-6.9c0,0.4,0.1,1.1,0.2,1.7c-4.8-2.8-9.1-6.3-14.7-7.3c-1.9-0.8-3.7-1.6-5.6-2.4c-7.2-4.7-14.6-9.1-21.6-14.2
				c-5-3.6-9.4-8.1-14-12.3c-0.7-0.6-0.8-1.8-1.2-2.7c0.2-0.3,0.5-0.5,0.7-0.8c1.8,0.8,3.8,1.3,5.4,2.3
				c11.3,7.5,22.5,15.1,33.8,22.5c3.2,2.1,6.8,3.3,9.8,4.7c9-13.9,17.8-27.4,26.6-41c1.1-1.4,2.1-2.8,3.2-4.2c1.7-2.3,3.3-4.5,5-6.8
				c0.8-0.7,1.6-1.4,2.4-2.2c-1.2-0.4-2.1-0.7-3.1-1.1c-10.5-5-21-9.9-31.5-14.9c-5.6-2.6-11.2-5.3-16.8-7.9
				c-0.6-0.4-1.2-0.7-2.3-1.3c-0.3,2.2-0.6,3.9-0.9,5.7c-4.1,6.9-7.8,14.2-12.4,20.8c-5.4,7.5-11.6,14.3-17.6,21.4
				c-0.6,0.7-1.6,1.2-2.5,1.9c-0.7-0.9-1.4-1.8-2-2.6c3.2-5,6.4-9.9,9.6-14.8c6.5-10,12.9-20,19.5-29.9c1-1.5,1.2-2.7,1.2-4.5
				c0-3.7,0.8-7.4,1.4-11c0.5-2.9,1.1-5.7,1.7-8.7c-1.3-0.1-2.4-0.1-3.5-0.4c-6.7-1.7-8-4.5-5.7-12c1.4-4.5,3.9-7.9,8-10.6
				c2.8-1.9,4.7-1.9,7.5-0.1c2.4-7.4,3.8-15.5,10.8-19.1c6.4-3.3,13.5-5.8,21.2-4.9c1.9-9.3,3.7-18.5,5.5-27.6
				c-0.2,0.1-0.4,0.2-0.6,0.3c-0.4-1.2-1.4-2.7-1-3.6c1.2-3.2,4.9-5.5,6.3-4.2c0.7,0.6,0.8,3.5,0.3,3.8c-3,1.7-1.6,4.9-2.7,7.2
				c-0.9,1.9-0.8,4.1-1.2,6.2c0,0.8,0,1.7,0,2.5c-0.5,2.6-0.9,5.3-1.4,7.9c-0.4,1.9-0.8,3.7-1.2,5.6c-1.1,2.3-1.4,4.2,1.7,5.3
				c1.6,0.5,3,1.4,4.5,2.1c2.8,0.9,4.2-0.4,4.8-3c0.6-1.2,1.2-2.5,1.9-3.7c0.7-2.3,1.4-4.5,2-6.8c1.2-4.5,2.4-9.1,3.5-13.6
				c0.7-2,1.3-4.1,2-6.1c1.2-3.1,2.4-6.3,3.5-9.5c0.1-0.3-0.7-0.8-1-1.2c-1.2-1.2-2.5-2.5-3.7-3.7c-0.4-0.2-0.8-0.4-1.2-0.6
				c-3.1-1.6-6.2-3.2-9.3-4.8c-11.9-7.9-22-17.9-32.7-27.3c-5.4-4.8-6.3-10.3-5.6-16.7c0.5-4.2,1.1-8.4,1.8-12.6
				c0.6-3.5,1.5-4.2,4.3-3.5c3.1-7.9,6.1-15.8,9.3-23.6c2.6-6.5,5.3-13,8-19.5c0.3-0.8,0.5-1.7,0.7-2.6c0.9-1.8,1.8-3.7,2.7-5.5
				c1.1-1.6,2.1-3.1,3.2-4.7l1.3,0.6c-1,3.6-2,7.2-2.9,10.8c-0.6,1.4-1.2,2.9-1.8,4.3c-0.6,1.6-1.2,3.3-1.9,4.9l-2,5.5
				c-5.2,10.7-10.5,21.4-15.5,32.1c-0.6,1.2,0.1,2.9,0.1,4.4c-0.1,3.5-0.3,6.9-0.6,10.3c-0.2,2.1,0.1,3.8,2.1,5.1
				c1.5,1.1,2.7,2.6,4,4c1,1,2.1,2,3.1,3c7.7,6.7,14.9,14,23.2,20c11.4,8.3,23.5,15.6,35.3,23.3c2.2,1.3,4.4,2.7,6.6,4
				c5.5,3.3,11,6.6,16.9,10c2.8-3.8,6-8,9.1-12.3c0.8-1,1.7-2.1,2.5-3.1c3.6-4.5,7.3-8.9,11.1-13.6c-4.1-3.3-9.6-5.2-12.8-9.8
				c0.3-0.5,0.6-0.9,0.8-1.4c2.3,1,4.7,1.8,6.9,2.9c2.6,1.3,5.1,2.8,7.6,4.2c1.2,0.7,2.4,1.3,3.6,2c2.6,1.3,5.2,2.6,8.4,4.2
				c0.3-3.7,0.7-7,0.8-10.3c0-0.6-1.6-1.3-2.5-1.9c-4.3-3-8.6-5.9-12.8-8.9c-0.7-0.5-1.1-1.4-1.9-2.3c-1.2,0.6-2.5,1.3-3.8,2
				c-1.9,1-3.7,2-5.6,3.1c-5,3.2-10.1,6.4-15.1,9.7c-4.5,3.1-6.3,1.8-9-1.6c-3.8-4.7-7.4-9.7-11-14.6c-5.4-7.4-10.8-14.9-16.2-22.3
				c-0.9-1.3-1.7-2.7-2.6-4.1c-1-1.7-2.1-3.4-3.1-5.1c-1.2-2.9-2.2-5.9-3.6-8.7c-0.4-0.8-1.7-1.4-2.7-1.5c-4.6-0.7-9.2-1.1-13.7-2
				c-1.6-0.3-3.1-1.6-4.6-2.4c0.6-1.3,1.2-2.5,1.8-3.8c6.6,1.5,13.3,2.9,19.9,4.4c0.5,0.1,0.9,0.3,2,0.6
				c6.3-10.6,12.7-21.3,19.3-32.3c-11.5-4.7-23.2-9.4-34.9-14.1c-1.4-0.6-2.9-1.1-4.3-1.7c-1.8-0.5-3.2-2.9-5.6-0.9
				c-0.5,0.4-2.3-0.6-3.4-1.3c-3.5-2.3-6.8-4.8-10.3-7.2c-1.1-1.2-2.1-2.5-3.2-3.8c-0.4-2.2-1.1-4.5-1.1-6.7c0.1-3.9,0.2-8,4-10.7
				c5.1-3.7,6.7-9.7,9.8-14.7c6.7-10.9,13.3-21.8,19.8-32.9c5.3-8.9,10.3-18,15.4-27c5.6-9.8,11.6-19.4,19.5-27.6
				c4.8-5,11.8-6.5,17.7-1.2c-0.5-3.4,1.1-4.7,4-4.8h4.3l9.8,2.1c1.8,2.7,3.4-0.1,5.1-0.3c1.7-0.7,3.5-1.3,5.3-2
				c-1-2.4-0.3-4.2,2.3-4.7c4-0.8,8.1-1.3,12.1-2c1.7,0.1,3.2,2.7,5,0.1c3.7-2.5,7.4-5.1,11.1-7.6c3.7,0.8,2.8-2.5,3.8-4.2
				c0.9-2.1,1.8-4.2,2.7-6.4c0.2,0.3,0.4,0.6,0.6,0.9c-3.3,2.6-6.5,5.4-9.9,7.9c-1.1,0.9-2.7,1.8-4,1.7c-2.4-0.2-2.2-2.1-0.7-4.5
				c-4.6,2-6.3-1.3-8.6-3.2c-1.2-1.7-2.3-3.8-4.3-0.7c-2.7,1.2-5.3,2.4-8.6,3.9c0.1-3.9-1.5-5.6-4-7c-1.6-0.9-2.8-2.5-4.1-3.7
				c-0.9,1.1-2.1,2.8-3.5,4.2c-1.3,1.4-2.9,2.4-5,1.4c-0.6-0.3-1.6-0.4-2.1-0.1c-2.7,1.9-3.7-1.2-4.1-2.1c-1.5-3.2-3.7-4.6-7.1-4.8
				c-0.6,0-1.4-0.5-1.7-1c-1.2-1.8-2.2-3.8-3.3-5.8h-4c-0.9-0.5-1.8-0.9-2.7-1.4c-1.5-1.5-3.5-2.7-4.5-4.4c-1.7-2.9-3.6-2-5.8-1.2
				c-0.8,0.3-1.8,0.2-2.7,0.3c-1.4-0.7-2.7-1.4-4.1-2c-0.7-2.7-2.2-4.6-4.5-5.3c-0.7-2.7-1.4-5.2-2-7.6c0-1.4,0-2.8,0-4.2h-3
				c-4.3-1.2-5.2-6-8.7-8.1c-0.3-1.1-0.7-2.1-1-3.2c-0.6-1.3-0.9-3.2-2-3.9c-2.9-2.1-3.5-5.1-3.8-8.3c-0.1-1.8,0-3.8-0.7-5.3
				c-1-2.4,1.1-3.3,1.6-4.9c0.4-1.1,0.3-2.3,0.4-3.5c-0.5-1.4-0.9-2.8-1.4-4.2l-0.6-1.9l-2.3-6.2c-0.5-3.3-1.1-6.7-1.6-10
				c1.3-0.5,2.3-0.9,3.3-1.3c-0.2-0.1-0.4-0.2-0.6-0.4l1.3-2.6c1.2,0.2,2.5,0.5,3.7,0.7c1.3,0.4,2.6,0.9,4.1,1.4
				c0.5-1.7,0.9-3.2,1.2-4.4c-0.8-1.3-1.4-2.4-2-3.4c-0.4-0.7-0.8-1.7-1.4-1.9c-4.8-1.4-3.2-5.7-4.3-8.8c-0.4-1.1-0.7-2.4-0.7-3.5
				c0-6.8,4.1-10.3,10.1-12.1c1-0.3,2-0.9,3-1.3c0.4-0.2,0.8-0.3,1.3-0.5h3.5c0.3-1.3,0.6-2.5,0.9-3.8c0.8-1.2,1.6-2.4,2.4-3.7
				c2.3-1.2,1.3-3.3,0.9-4.8c-1.1-4.1-0.1-4.9,1.7-8.5c4.1-7.8,12.1-5.7,18.2-8.4c0.3-0.1,0.6-0.1,0.9,0c5.5,2.3,9.2-1.3,13.5-3.8
				c3-1.8,6.2-3.6,9.5-4.1c2.6-0.4,5.5,1.2,8.2,1.9c2.3-0.8,4.9-1.7,7.5-2.8c0.6-0.3,1.2-1,1.5-1.6c2.2-4.2,5.8-5.8,10.4-5.1
				c2.4,0.4,4.9,1,7.2,1.8c3.8,1.3,7,6,7,10c0,1.1,1.1,3,3.3,5.8c3.2-1,6.9-1.2,9.2-3.1c3.1-2.6,5.3-1.9,8.2-0.5
				c0.5,0.2,1.6-0.5,2.3-1c2.6-1.9,5.2-3.8,7.7-5.8c2.3-1.8,4.7-2.7,7.6-2.2c2.4,1.6,2.7-0.8,3.6-1.9c2.1-1.8,2.9-5.3,6.7-4.9
				c0.2,1.4,0.4,2.9,0.6,4c2.7-0.8,5.2-2.1,7.5-2c2.7,0.1,5.4,1.5,8.1,2.4c1.5,0.1,2.9,0.3,4.4,0.4c0.8,1,1.7,2,2.5,3
				c-0.1,0.4-0.2,0.7-0.3,1.1c1.4-0.5,3-0.7,4.2-1.5c4.8-3.2,7.8-2.8,11.2,1.6c0.3,0.5,0.9,0.7,1.5,1.1c-0.5,0.4-1,0.8-1.5,1.2
				c4.2,0.6,8.4,1.2,12.6,1.8c2.1,0.8,4.2,1.6,6.3,2.4c1.6,1.8,4.6,2.6,4,6.1c2.5-1,4.3-0.4,6,1.8c0.8,1.1,3,1.1,4.5,1.8
				c3.5,1.7,3.7,3.1,0.9,6c0.9,0.6,1.9,1.2,2.6,1.9c0.8,0.7,1.3,1.6,2,2.5c-1.8,1.1-2.5,2.1,0.2,3.5c1.9,1,4.1,2.3,3.1,5.2
				c-0.1,0.4-0.3,0.8-0.4,1.3c-0.2,0.4-0.5,0.9-0.7,1.3c-1.9-0.4-3.4-0.1-4.3,1.8c-0.8,0.2-1.6,0.3-2.7,0.5c5.9,5.4,7,6.7,4.5,12.8
				c0.8,0.5,1.6,1,2.4,1.6c0.1,1,0.2,2,0.2,2.5h4.8c-0.2,1.1-0.1,2.6-0.7,3.3c-1.2,1.4-2.9,2.5-4.6,3.8c1.2,2.8,0,4.8-2.9,6.3
				c-2.9,1.5-5.7,3.3-8.6,4.8c-1.9,0.9-4.1,1.4-6.6,2.1c0.7,0.6,1.5,1.3,2.3,1.9c1.1,0.8,2.6,1.3,3.4,2.3c0.9,1.1,1.3,2.8-1,2.7
				c-4-0.3-4,1.9-3.6,4.3c4.4,0.3,8.7,0.4,13,0.8c1.2,0.1,2.3,1.1,3.4,1.8c0.6,0.4,1.2,1.6,1.7,1.5c3.8-0.4,3.2,2.3,3.5,4.5
				c0.7,5.6,1.7,11.4-1.3,16.6c-2.5,4.4-5.3,8.7-8.5,12.7c-3.1,3.8-7.4,3.4-11.7,2.2c-0.9-0.5-1.7-1.1-2.7-1.5
				c-0.2-0.1-0.7,0.6-1.1,0.9c-5.8,3.3-6.9,3.2-10.3-0.2c3.3-0.7,6.9-4.6,6.6-7.4c-0.1-0.8-0.7-1.5-1.1-2.2
				c-1.5-1.2-2.9-2.4-4.4-3.6c-0.5-3.9-1-7.8-1.6-11.9c-0.9,0-2.4,0-3.9,0c-4.5,0-4.8,0.3-5,5c-0.1,2.6-0.2,5.3-0.6,7.9
				c-0.5,3.2-1.9,6.1-4.8,8c-1.2,0.8-2,2.3-3.1,3.2c-5.4,4.4-11.8,6.3-18.4,5.3c-5.7-0.8-9.9-4.7-13.3-9.6
				c-4.5-6.6-6.3-13.8-6.2-21.3c-6.1,2.7-12.2,5.3-17.5,7.7c0.5,3.3,2.1,7.1,1,9.6c-1.1,2.3-5.1,3.2-7.9,4.7
				c-0.2-0.2-0.4-0.5-0.6-0.7c-0.1,0.8-0.2,1.6-0.4,2.7c-2.2-2.4-3.8-4.8-5.9-6.6c-3.9-3.4-10.9-4.8-15.1,0.7
				c-4.4,5.8-5.1,10.1-0.2,15.6c1,1.1,2.2,2.1,3.4,3.1c0.6,0.4,1.3,0.9,1.9,1.3c1.7,1,3.3,2.2,5.1,2.9c0.7,0.3,2-0.6,2.8-1.3
				c1.5-1.4,2.9-2.7,5-0.9c-1,0.6-1.9,1.1-2.8,1.6c0,0.2,0.1,0.5,0.1,0.7c1.7-0.2,3.3-0.4,5-0.5c1.1,0,2.9-0.2,3.3,0.4
				c0.6,0.8,0.5,2.4,0.1,3.5c-0.5,1.9-1.4,3.7-2.2,5.7h2.2c1.2,0.4,2.4,0.9,3.6,1.3c-0.7,2.9-1.4,5.7-2,8.6
				c-0.1,1.5-0.3,2.9-0.5,4.4c-2.7,6.3-5.1,12.6-8.1,18.7c-1.4,2.8-3.6,5.4-6,7.4c-2.1,1.8-4.9,2.7-7.4,4.1c-1.2,0.1-2.8,0-1.3,2
				c8.4,16.9,21.1,28.5,40,32.1c9.3,1.8,18.5,1,26.7-4.3c5.2-3.4,9.1-7.8,10.1-14.3c0.4-2.5,1.8-2.7,3.8-0.9
				c0.3,0.3,1.2,0.2,1.3,0.4c0.6,1.4,1.9,3.1,1.5,4.2c-4.5,11.4-12.8,18.1-25,19.8c-16,2.3-30.4-1.7-42.9-11.8c-4.9-4-9-9-13.5-13.6
				c-0.8-1.4-1.6-2.9-2.5-4.3c-1.5-3.3-2.9-6.5-4.4-9.8c-3.8,1.1-7.9,2.2-11.9,3.4c4.3,7.9,8.8,16,15.7,22.3
				c11,10.1,24,16.6,38.7,19.4c11.4,2.2,22.8,2.3,33.8-1.9c8.9-3.4,15.2-9.4,17.2-19.2c0.3-1.7,0.9-3.5,1.9-4.8
				c2-2.7,4.7-2.1,7.4-0.8c3.6,1.8,7.2,3.5,10.8,5.2c0.7,0.4,1.3,0.9,2,1.3c1.5,0.6,3,1.4,4.6,1.6c4.8,0.7,9.8,2.9,9.8,9.7
				c0,3.4,1.6,6.7,2.5,10.1c0.4,1.4,0.8,2.9,1.2,4.3c0.2,1,0.4,2.1,0.6,3.1l1.6,9.3c0.3,1.8,0.6,3.7,0.9,5.5
				c3.3,11.8,6.5,23.6,9.8,35.3c1,3.7,4.1,5.7,6.7,8.1c0.4,1,0.8,2,1.1,3c1.8,2.8,0.1,5.3-0.5,7.9c-0.6,1-1.1,2.1-1.7,3.1
				c-2.5,3-4.8,6.1-7.5,8.9c-2.4,2.5-5,2.2-7.4-0.2c-1-3.7,1.4-6.1,3.4-8.6c2.9-3.7,5.9-7.3,8.8-10.8c-1.6-1.7-2.9-2.6-3.5-3.8
				c-3.2-6.5-6.6-12.9-9.1-19.7c-6.1-16.3-10.2-33-10.2-50.6c0-2-0.7-4.4-2-5.7c-2.3-2.5-5.7-4-8.4-6.1c-4.6-3.5-10.6-5.1-16.1-7.5
				c-0.2,0.5-0.4,0.9-0.5,1.4c-1.8,8-6,14.4-13,18.7c-11.9,7.3-24.9,10.8-38.9,8.7c-7.2-1.1-14.6-2.1-21.5-4.5
				c-6.8-2.4-13.3-6.1-19.4-10.1c-11.2-7.3-20-16.7-22.6-30.7c-2.4,0.6-4.8,1.2-7.4,1.8c7.9,5.8,10.1,14.1,10.6,22.8
				c0.4,7,0.1,14.2-1.3,21.1c-3.1,15.4-7.1,30.5-10.8,45.8c-2.6,10.5-5.7,20.9-8.1,31.4c-2.6,11.7-4.6,23.5-7,35.3
				c-0.3,1.7-0.1,2.6,0.8,4.1c3,4.6,5.8,9.4,8.3,14.3c1.6,3.3,0.5,4.9-2.7,6.9c-1.9,1.1-4.3,2.8-4.8,4.6c-0.6,2.5,0.5,5.5,0.8,8
				c8.4-2.4,16.4-4.7,24.1-6.9c-2.4-0.4-5.1-0.8-7.8-1.3c0-0.3,0-0.6,0-0.8c0.7-0.2,1.5-0.6,2.2-0.6c3,0.2,6.1,0.6,9.1,1
				c2,0.2,4,0.7,5.7-1.1c0.6-0.7,1.8-1.1,2.7-1.1c9-0.1,18-0.3,27,0.1c8,0.4,16,1.5,24,2.2c0.4,0,0.8-0.7,1.2-1c0,0,0.1,0.1,0.3,0.2
				c-0.1,0.3-0.1,0.6-0.2,0.9c0.7,0,1.4,0,2.1,0c0.5,0,1.1,0,1.7,0c3.5,0.5,6.9,1,10.4,1.5c4.3,0.6,8.7,1.1,13.3,1.7v-6.1
				c1,0.6,2,0.7,2.3,1.3c1,1.6,1.7,2.7,4,1.7c1.6-0.7,4.2,0.4,5.3-0.6c5.3-4.3,10.2-9.1,15.2-13.6c-3.1-2.1-5.9-4-8.5-5.8
				c2-5.3,2.3-4.2,6.2-2.9c2.6,0.9,5,2.5,7.2,4.1c3.6,2.5,3.2,5.7-0.5,8c-5.1,3.2-10.1,6.7-15.1,10.1c11.4,0.6,22.7,0,33.3,3.4
				c2.1-1.1,4.2-2.2,6.5-3.4c-0.5-0.3-1-0.5-1.2-0.8c-5.9-8.8-12.3-17.3-17.4-26.6c-4.2-7.6-6.8-16.1-9.9-24.3
				c-0.7-1.9-0.1-4.3-0.1-7.1c1,0.7,1.5,0.8,1.7,1.2c1.3,2.6,2.5,5.2,3.8,7.8c3,6.1,5.9,12.1,8.9,18.2c4,6.3,8,12.5,11.9,18.8
				c2.1,3.4,4,6.9,5.7,10.5c1.6,3.3,0.9,5.4-2.3,8.2c5.2,7.8,8.1,16.6,10.2,25.6c0.6,2.7,0.4,5.7,0.1,8.6c-0.1,1-1.5,1.9-2.8,3.4
				c1.9-0.6,3.4-0.9,4.6-1.6c3.2-1.9,5.9-1.5,8.6,1.1c4.6,4.3,8.2,8.9,7.6,15.6c-1,1.2-2.1,2.4-2.9,3.7c-0.4,0.7-0.1,1.8-0.2,2.8
				c1.2,2.9,2.5,5.8,3.7,8.7c1.1,2.6,2.1,5.3,3.2,7.9c0.6,4.6,1.6,9.2,1.5,13.9c0,3.4-1.4,6.8-2.2,10.2c-0.4,1-0.8,2-1.3,3
				c-0.4,0.6-0.8,1.2-1.2,1.9c-0.8,1-1.6,2.1-2.5,3.1c-0.2,0.2-0.4,0.4-0.6,0.6c-5.8,4.6-4.7,10.3-3.3,16.6
				c1.7,7.4,2.2,15.2,3.3,22.7c1.1,6.9,2.4,13.9,3.4,20.8c1,6.6,1.8,13.2,2.7,19.8c0.7,5.2,1.4,10.4,2,15.6c0.4,3.8,1.1,7.7,1,11.5
				c-0.1,5.1,1,9.7,3.4,14.1c1.9,3.5,1.1,4.7-3,5c-1.8,0.1-3.5,0.4-4.5,0.5c1.2,11,2.3,21.6,3.5,32.8c0.8,0,2.2-0.1,3.5,0.2
				c0.8,0.3,1.8,1.3,2,2.1c0.8,3.7,1.7,7.4,1.8,11.1c0.3,7.8,0.4,15.6,0,23.4c-0.4,7.9-3.2,15.3-7.1,22.3c0.6,0.1,1.3,0.3,2.2,0.4
				c-0.7,0.6-1.1,1.3-1.7,1.5c-3.5,1.5-7.1,2.8-10.6,4.3c-0.7,0.3-1.7,1.4-1.5,1.8c1.8,4.9-1.4,7.4-4.5,9.9
				c-0.9,0.7-1.9,1.3-2.9,1.9c0.1,0.3,0.2,0.5,0.3,0.8c1.7-0.6,3.4-1.3,5.2-1.8c0.6-0.2,1.4-0.1,2.1,0c1.2,0.3,2.6,0.5,3.6,1.1
				c0.9,0.6,2,1.7,2,2.6c-0.3,8.9-0.7,17.7-1.2,26.6c-0.3,5.5-0.8,10.9-1.2,16.4c-0.4,4.3,0,8.9-1.5,12.9c-1.2,3.2-4.6,5.6-7.1,8.2
				c-0.7,0.8-1.8,1.2-2.5,1.7c2.6,6.7,2.8,13.5,2.3,20.2c-0.3,4.5-0.9,9-1.8,13.5c-0.6,3.1-1.1,6.6-5.6,6.8
				c5.9,9.8,8.2,20.8,11.7,31.3c4.6,13.8,8.6,27.8,12.8,41.8c3.5,11.6,6.8,23.2,10.1,34.3c3.7-0.2,7.6-0.7,11.5-0.4
				c5.4,0.4,8.1,3.9,9.1,9.1c0.4,1.9,1.4,3.6,1.8,4.6c5.9-0.1,11.1-0.2,16.4-0.2c3.8,0,6.4,1.9,6.9,5.8c0.5,4-1.2,7.4-4.4,9.4
				c-2.6,1.6-5.8,2.4-8.8,3.3c-1.8,0.5-2.8,1-1.4,2.7c5.6,6.8,11.3,13.5,17.1,20.2c2,2.3,4.3,4.3,6.8,6.1c1.2,0.8,3,0.7,4.6,1
				c6.7,1.4,11.7,5.2,15.2,10.9c0.9,1.4,1.3,2.1,3.2,1.4c2.7-1,4.8,0.9,5.2,3.8c0.5,4.3,1,8.6,1.8,12.9c1.6,8.9-4.2,16.7-13.9,18.4
				c-4.2,0.7-8.4,1.7-12.7,2.6c-1.9,0.2-3.7,0.4-5.6,0.6c-6.4,0.4-12.8,0.8-19.2,1.2l-3.1,0.4c-0.6-0.2-1.3-0.6-1.9-0.5
				c-7.5,0.8-14.4-1.4-20.9-4.7c-8.4-4.2-16.8-8.4-24.7-13.4c-5.6-3.6-10.4-8.5-15.6-12.9c-3.5-3.5-6.9-7-10.4-10.6
				c0.3-4,1.2-7.7,4.1-10.8c0.4-0.4,0.7-1.3,0.6-1.9c-2-8.8-0.6-17.5-0.1-26.3c0.2-4.2,0.8-8.5,1.5-12.6c0.6-3.2,1.6-6.3,2.6-9.9
				c2-0.3,3.3-1.7,4.5-4.6c0.9-2.3,4.7-3.5,7.4-5.4c-3.1-9.6-6.5-20-9.9-30.4c-3.1-9.7-6-19.4-9-29.1c-3.1-9.8-6.3-19.5-9.2-29.3
				c-1.4-4.7-2.4-9.5-3.8-14.2c-0.2-0.7-1.4-1.6-2.2-1.7c-4.5-0.4-10.6-5.7-11.2-10.2c-0.1-0.9,0.6-2.4,1.4-2.8
				c1.9-1.1,4-1.7,6.5-2.6c0-3.3-0.1-7.3,0-11.3c0-2,0.7-4,0.5-6c-0.2-1.5-1-3.1-1.9-4.5c-2.6-4-2.7-3.9-0.6-8.3
				c-2.3-0.7-4.7-1-6.6-2.1c-1.2-0.7-2.5-2.7-2.4-4.1c0.5-7.9,1-15.8,2.2-23.6c0.7-5,2.7-9.8,3.8-14.8c0.2-1-0.7-2.4-1.2-3.5
				c-1.9-4.1-2.3-9.1-7.1-11.6c0-0.3,0-0.7,0-1c5.2-2.3,10.4-4.5,15.3-6.7v-8c-2.6,0-4.9-0.1-7.1,0c-7.3,0.5-12.3-3.1-16.5-8.6
				c-5.7-7.3-7.9-16.2-11.2-24.6c-1.8-4.6-3.6-9.2-5.2-13.9c-0.2-0.7,0.4-2.3,1.1-2.7c1.4-0.9,3.1-1.3,4.7-1.9
				c-2.4-4.9-5-9.9-7.4-14.9c-1.5-3-2.9-6.1-4.3-9.2c-0.6-1.3-1.3-1.9-3-1.3c-5,1.6-6.8,0.7-9.3-3.8c-1.3-2.4-3.9-5.2-3.5-7.4
				c1.7-7.7-3.5-13.5-4.7-20.3c-0.9-5.2-3.3-10.2-3.9-15.4c-0.5-4.2,0.4-8.7,1-13c1.1-7.5,2.3-15,3.6-22.5
				c1.2-7.1,2.7-14.2,3.9-21.4c1-6.2,1.8-12.4,2.7-18.6c-0.3-0.1-0.6-0.2-0.9-0.3c-0.8,1.9-2,3.8-2.4,5.8
				c-2.4,11.9-4.9,23.9-6.8,35.9c-1.5,9.3-2.2,18.7-3.1,28.1c-0.4,4.5-0.1,9-0.7,13.5c-1,7.1-2.4,14.2-3.7,21.9
				c0.4,0.3,1.5,1,2.6,1.7c2,1.3,2.8,3,1.9,5.3c-1,2.7-1.9,5.4-3.2,8c-0.4,0.8-1.8,1.6-2.9,1.6c-2.9,0.2-5.9,0.1-7.9,0.1
				c-0.7,5.6-0.8,10.8-2,15.9c-2.5,11.1-5.7,22.1-8.2,33.2c-1.9,8.6-2.9,17.5-4.6,26.2c-0.6,3.2-1.7,6.2-2.6,9.3
				c-0.1,0.5-0.1,1.1,0,1.6c2,11.3,1.5,22.5,0.9,33.9c-0.6,10.9-0.7,21.8-0.7,32.6c0,9.7,0.6,19.3,0.7,29
				c0.1,15.9-0.1,31.7-0.3,47.6c0,3.7-0.5,7.4-0.4,11.1c0,4.6,0.5,9.2,0.5,13.7c0.1,14.9,0,29.9,0,44.8c0,0.9-0.2,1.7-0.2,2.6
				c2.6,0.5,5.3,0.8,7.8,1.6c2,0.6,2.8,2.4,2.1,4.5c-0.6,1.8-0.9,3.3-3.7,2.4c-7.9-2.5-15.2-1.4-20.8,5.1c-2,2.3-2.8,5.5-4.1,8.3
				c0.4,0,0.8-0.1,1.2-0.1c0.8,1.2,2.1,2.3,2.2,3.6c0.2,2.2,1.4,2.2,2.9,2c5.1-0.7,10.2-1.4,15.4-2.2c0.2-2.9,0.1-6,0.7-9.1
				c0.5-2.9,2.1-3.2,4.2-1.1c0.4,0.4,0.9,0.8,1.4,1.2c0.4,0.3,0.7,0.6,0.9,0.8c5.7-4.2,11.7-2.8,17.7-0.7c1.4,1.1,2.4,2.4,2.1,4.3
				c0.9,4.4-1.4,8.6-5.4,10c-0.5,0.2-1.2,0.2-1.5-0.1c-0.3-0.2-0.3-1-0.1-1.4c0.9-2.1,1.9-4.1,3.2-7c-5.1-0.9-9.8-1.8-14.4-2.6
				c-0.3,0.3-0.5,0.6-0.8,0.9c0.8,2.1,1.6,4.3,2.6,6.9c-1.6,2.6,0.5,6,0.7,9.4c0.3,1.6,0.6,3.3,0.8,4.9c0.2,0.7,0.2,1.9,0.6,2.1
				c7,4,11.1,10.9,16,16.9c1,1.2,1.9,2.4,2.8,3.6c1.3,1.7,1.8,3.3-0.3,4.8c9,5.1,16.2,11.5,18.2,22.6c2.8,0.3,5.7,1.1,5.9,5.1
				c-0.2,1.4-0.4,2.9-0.6,4.3c-1.4,1.8-2.5,3.9-4.2,5.4c-0.9,0.9-2.7,0.9-4,1.3c-0.4,0.1-0.9,0-1.2,0.1c-6.7,2.9-13.8,3-20.9,3.7
				c-1.1,0.1-2.1,0.4-3.2,0.7c-1.9,0-3.7,0-5.6,0c-2.6,0.2-5.1,0.3-7.7,0.5c-1.6,0.1-3.1,0.4-4.7,0.6c-1.9,0.2-3.7,0.5-5.6,0.7
				c-4.9-0.2-9.9-0.4-14.8-0.6c-1.5,0.2-2.9,0.4-4.4,0.6c-2.9-0.4-5.8-0.8-8.6-1.3c-7.4-1.4-14.9-2.7-22.2-4.5
				c-2.9-0.7-5.4-2.7-8.1-4c-0.4-0.9-0.9-1.7-1.3-2.6c1.3-2.1,2.6-4.2,3.8-6.4c0.4-0.7,0.5-1.5,0.7-2.3c1-1.6,2-3.3,3-4.9
				c2.5-0.8,4.9-1.6,7.7-2.5c-1.6-4.7-3.1-8.9-4.5-13.1l-1.2-3.7l0,0c0.2-0.1,0.3-0.2,0.5-0.3c-0.1-0.2-0.3-0.3-0.5-0.5
				c-0.3-1.6-0.5-3.2-0.9-4.8c-0.9-3.5-0.5-6.6,1.9-9.5c3.4-4.1,6.3-8.6,9.3-13c0.4-0.5,0.8-1.3,0.7-1.9c-0.6-5.8-1.2-11.6-1.9-17.4
				c0-0.1-0.3-0.2-0.5-0.3c-0.3-1.8-0.5-3.7-0.8-5.5c-0.2-2-0.4-4-0.5-6c-0.1-1.7,0-3.3,0-5.6c6.3,1.3,11.6,2.3,16.9,3.6
				c1.6,0.4,3,1.4,4.6,2.2c3.2-4.5,7.6-7.9,13.5-9.1c1.6-0.3,2.1-1.1,2.1-2.7c-0.3-8-0.5-15.9-0.7-23.9c-0.2-2.9-0.4-5.8-0.6-8.7
				c0-14.6,0-29.3-0.1-43.9c-0.1-1.9-0.3-3.7-0.4-5.6c0-0.8,0-1.6,0-2.4l-0.6-3.7l0.9-7.4c0-1.4,0-2.9,0.1-4.3
				c0-0.4-0.1-0.8-0.1-1.2c0-1.4,0.1-2.9,0.1-4.3c-0.1-2.9-0.1-5.7-0.2-8.6c-0.1-1.9-0.1-3.8-0.2-5.6c0-7.6,0-15.3-0.1-22.9
				c0-2.7-0.1-5.3-0.1-8c0-1.9,0-3.7-0.1-5.6c0.1-4.7,0.1-9.5,0.2-14.2c0.2-2.1,0.3-4.1,0.5-6.2c0.3-4.3,0.5-8.6,0.8-13
				c0-1,0-2.1,0-3.1c0.2-1.8,0.6-3.7,0.6-5.5c0-4.1-0.1-8.3-0.1-12.5v-1.8c-1.8-0.5-3.2-0.9-4.7-1.3c-0.2-0.9-0.8-2-0.5-2.8
				c3.5-11.1,5.5-22.4,7.3-33.8c1.4-8.8,3.8-17.5,5.7-26.3c0.7-2.5,1.4-5,2.1-7.5c0.6-2.7,1.3-5.4,1.9-8c0-0.4-0.1-0.8-0.1-1.2
				c-0.1-0.6-0.3-1.2-0.4-1.8c0.4-0.4,0.9-0.8,1.3-1.2c0.6-0.7,1.2-1.5,1.5-1.8c-3.9,0-7.7,0-11.5,0c-1.5,0.1-2.9,0.2-4.4,0.4
				c-12.1,0-24.3,0.1-36.4,0.1c-7.1,0-14.3,0-21.3,0c1.8,9.7,3.8,18.8,5.1,27.9c1,7,1.8,14.1,1.8,21.1c0,5.6-1.5,11.1-2.3,16.7
				c-0.2,1-0.5,1.9-0.8,2.9c-1.3,4.3-2.5,8.6-3.8,13c-0.5,1.7-1,3.4-1.5,5c0,0.4,0,0.8,0,1.2c-0.5,2.6-1.2,5.2-1.6,7.9
				c-0.6,4.6-1,9.2-1.5,13.8C-264.2,831.6-264.4,833.5-264.6,835.4L-264.6,835.4z M-186.3,601.7c-1.1,0.3-2.2,0.6-3.4,0.9
				c-13.7,5-27.8,8.8-41.2,14.6c0.4,0.5,0.7,0.6,1,0.5c7.1-2.4,14.3-4.8,21.4-7.4c6.4-2.3,12.7-4.9,19.1-7.3
				c1.1-0.3,2.3-0.6,3.4-0.9c0.3-0.2,0.6-0.5,0.9-0.7c-0.1-0.1-0.2-0.2-0.2-0.4L-186.3,601.7L-186.3,601.7z M-192.1,583
				c0.5,0,0.9,0.1,1.4,0.1c0-0.1,0-0.3,0.1-0.4c-0.4-0.1-0.7-0.2-1.1-0.2c0.7-1,1.4-2.1,2.1-3.1c1.1-0.6,2-1.4,3.2-1.7
				c0.9-0.2,2.2-0.2,2.9,0.4c3.6,3,6.9,6.4,10.5,9.3c2.9,2.4,6.2,4.4,9.4,6.4c2.1,1.2,2.8,1,4.2-0.3c-8.4-6.5-16.9-13-24.8-19.1
				c-2.5,1.9-4.1,3.2-5.8,4.4C-192.8,580-193.3,581.2-192.1,583L-192.1,583z M-276.5,578.9c1.7-5.6,3.4-11.2,5.1-16.7
				c-0.4-0.1-0.8-0.2-1.2-0.4c-1.5,5.6-2.9,11.2-4.4,16.8c0,0.7-0.1,1.3-0.1,2c0.1,0,0.3,0,0.4,0
				C-276.6,580-276.5,579.4-276.5,578.9L-276.5,578.9z M-219.6,109c0.1,0.2,0.3,0.3,0.4,0.5c0-0.1,0.1-0.2,0.1-0.3
				C-219.3,109.2-219.5,109.1-219.6,109c-0.8-7.2,4-9.1,9.5-9.9c0.6-2.1,0.5-4.2,1.6-5.5c2-2.5,2.6-5.5,4-8.1c1.8-3.6,5.1-5.9,9-6.6
				c4-0.7,8.1-0.7,12.2-1c-0.9-0.7-1.8-1-2.8-1.3c-4.4-1.5-8.7-1.9-12.8,1.1c-4.6,3.5-9.4,6.6-13.9,10.2c-4,3.2-6.6,7.6-8.3,12.5
				C-222.3,103.6-221.5,107.8-219.6,109L-219.6,109z M-74.5,491.5c0.2-0.1,0.4-0.3,0.6-0.4c-0.1-0.1-0.1-0.1-0.2-0.2L-74.5,491.5
				c-0.1-0.8,0-1.7-0.3-2.4c-3.9-9.9-7.9-19.9-11.7-29.4c-2.8,3.5-7.2,1.8-11.3,2.5c2.8,7.4,7.4,13.7,11.6,20.2
				c1.4,2.2,3,3.5,5.4,4.5C-78.5,487.9-76.6,489.9-74.5,491.5z M-216.8,1031.8c-4.2-0.3-8.4-0.6-12.5-0.9c1.7,7.9,1.2,15.6,0.7,23.3
				c-0.1,2.2-0.1,4.4-0.2,6.7c-0.1,2.3,0.3,4.9-0.6,7c-1.6,3.9-4,7.4-6.1,11.1c-0.5,0.8-0.9,1.9-0.8,2.8c0.4,3.7,1.3,7.4,1.6,11.1
				c0.5,5.4,0.6,10.8,0.9,16.2c5,0.4,10.5,0.8,15.4,1.2c2.3-9.3,8.9-15,15.8-20.3c-3.6-3.5-7.2-7-10.9-10.4c-2.3-2.1-5-4-3.1-7.8
				c0.1-0.2,0-0.6,0-0.9c-0.4-6.2-0.9-12.4-1.2-18.6c-0.1-2,1-4.2,0.5-6c-1.2-4.9,0.1-9.4,0.7-14.1c0.2-0.3,0.4-0.6,0.6-0.9
				c-0.1-0.1-0.2-0.1-0.3-0.2C-216.4,1031.2-216.6,1031.5-216.8,1031.8L-216.8,1031.8z M-331,364.3c19.5,10.4,39.4,20.9,60,31.9
				c-1.6,0.4-2.7,0.9-3.7,0.7c-2-0.3-4-0.7-5.9-1.5c-10.2-4.1-20.5-8.2-30.6-12.7c-8.4-3.8-17.1-7.2-23.3-14.9c-1.3,2-2.3,4-3.7,5.6
				c-1.5,1.8-3.4,3.2-5.1,4.8c-0.2,0.2-0.2,0.8-0.3,1.2c-0.2,1.4-1,3.3-0.4,4.2c1.8,2.4,3.8,5.2,6.3,6.4c4.6,2.3,9.8,3.4,14.7,5.2
				c14.8,5.5,28.9,12.7,42.6,20.4c1.9,1.1,3.8,2.6,3.5,5.7c-1.4-0.6-2.6-1-3.8-1.5c-1.7,15-12.9,31.4-19.9,34.9
				c4.2,6.9,8.5,13.8,13,21.1c0.7-3.3,1.2-5.9,1.9-8.4c5.4-20.1,10.9-40.2,16.2-60.3c0.6-2.4,1.4-5.3,0.6-7.5
				c-5.2-15.2-7.4-31.1-10.9-46.6c-0.4-1.9-0.3-4-0.4-6c0.4-0.1,0.7-0.1,1.1-0.2c3.9,8,5.2,16.9,6.8,25.6c1.5,8.7,3.1,17.5,4.6,26.2
				c0.3-0.2,0.6-0.4,0.7-0.6c4.1-14.8,8.5-29.6,12.3-44.5c2.3-9,4.1-18.1,5.7-27.2c1.3-7.5,2.1-15.1,3.2-22.6
				c1.2-7.8,0.5-15.3-1.6-23c-2.1-7.7-7.4-10.2-14.5-10.6c-0.4,0-0.9-0.5-1.3-0.5c-5.7,0.3-10.4,2.3-13.6,7.3
				c-8.7,13.8-17.5,27.4-26.1,41.3C-312.1,333.6-321.5,348.9-331,364.3L-331,364.3z M-349.2,578.6c1,0.4,1.4,0.7,1.9,0.8
				c8.2,2.7,16.1,6,23.5,10.6c7.1,4.5,14.4,8.6,21.6,13c1.2,0.7,2,1.9,3.1,2.9c-0.2,0.3-0.4,0.6-0.6,1c-2.5-0.7-5.1-1.2-7.4-2.3
				c-6.2-3.1-12.1-6.7-18.3-9.7c-8.5-4.1-17.2-8-25.8-11.9c-0.6-0.3-1.2-0.4-1.2-0.5c-4.6,16.4-9.2,32.5-13.8,48.8
				c5.4,2.5,11.1,5.1,16.7,7.7c11.1,5.3,22.2,10.7,33.4,16c2.8,1.3,5.8,2.2,8.6,3.5c1.2,0.6,2.2,1.9,3.5,2.2c3.8,1,7.7,1.7,11.5,2.5
				c1.8,0.4,4,1.6,5.5,1.1c3.6-1.4,7-3.5,9.7-5c-0.3-1.7-1.1-3.1-0.8-4.3c1.9-8,3.8-16,6-23.9c2.1-7.3,4.6-14.5,7-22.2
				c-10.1-6.3-19.7-2.6-29.2,3.3c1.5-5.2,5.8-7.1,9.7-9.2c4.2-2.3,8.8-2.9,13.6-2.2c-0.9-1.1-1.8-2-2.8-2.4
				c-7.7-2.7-15.5-5.4-23.2-8c-0.7-0.2-1.7,0.6-2.3,0.9c2.5,2.1,4.7,3.8,6.9,5.7c0.4,0.4,0.3,1.3,0.4,1.9c-0.7,0.1-1.4,0.4-2,0.2
				c-1.6-0.3-3.3-0.7-4.9-1.3c-2.7-1.2-5.5-2.5-6.1-6c-0.1-0.6-1-1.3-1.7-1.7c-2.5-1.5-5.1-2.8-7.6-4.4c-0.8-0.5-0.9-2.2-1.6-2.6
				c-3.7-2-7.5-3.7-11.5-5.6c-0.9,2.6-2.8,3-4.8,1.7c-0.4-0.2,0.6-2.6,1.1-4.2c-0.8-0.4-2.2-1.8-3.2-1.5
				C-339.2,574.9-343.9,576.8-349.2,578.6L-349.2,578.6z M-122.7,750c3.6,9.6,6.7,19.3,10.9,28.5c3.7,8.1,8,14.3,20,13.6
				c5.9-0.3,11.8-0.7,17.7-1.3c6.8-0.7,13.6-1.6,20.5-2.5c1.2-0.1,2.9-0.2,3.4-1c2.1-3.6,4.8-7.2,5.5-11.1c1.3-7.4,1.7-15.1,2-22.7
				c0.2-6.4-0.4-12.9-0.5-19.4c-0.1-2.5-2.1-2.8-3.7-2.6c-6.8,1-13.6,2-20.2,3.5c-13.3,3.1-26.5,6.6-39.8,10
				C-112.5,746.6-117.8,748.5-122.7,750L-122.7,750z M-67.1,1082.5c1.9,1.1,3.7,1.8,5.2,3c6.7,5.3,13.2,10.8,19.9,16.1
				c4.5,3.5,9.2,6.7,13.8,10.1c1.8,1.3,1.9,2.4,0.9,3.7c-1.3,1.5-2.4,3.6-4.9,2.2c-3.7-2.2-7.4-4.4-11.1-6.7
				c-9.6-6.1-18.6-13.1-26.9-21.3c-0.3,1.7-0.8,3.9,0,4.7c11.1,10.2,22.7,19.8,36.3,26.6c8.2,4.1,16.6,7.2,26.1,6.1
				c7.3-0.8,14.6-1.1,21.9-1.6c10.4-0.8,20.9-1.6,31.8-2.4c-0.5-5.8-0.9-11.2-1.3-16.4c-3,1.5-5.5,3.1-8.3,3.9
				c-14.3,4.6-28.8,7.7-43.9,6.2c-4.7-0.5-9.4-1.6-14-2.4c-1.7-0.3-2.2-1-2.2-2.9c0.1-4.1,1.8-7.4,4-10.5c2.1-2.9,4.9-5.3,7.1-7.8
				c-12.8-11-20.8-25.5-27.8-40.6c-3.8,1.7-7.2,3.3-10.8,4.7c-0.9,0.3-2.5,0.1-3.3-0.5c-1.1-1-0.9-2.4,0.5-3.3
				c3.6-2.3,7.2-4.5,10.9-6.7c-4-10.1-13.2-8.9-21.5-9C-63.4,1052.9-65.6,1067.9-67.1,1082.5z M-123.4,743.8
				c24.3-6.5,48.2-13.4,72.9-16.9c-1.2-10-2.4-20.2-3.6-30.3c-26.4,7-54,11.1-80.2,20.5C-129.6,725.6-124.7,733.9-123.4,743.8
				L-123.4,743.8z M-125.7,118.1c-3.5,0.9-6.9,1.6-10.2,2.6c-6.2,2.1-13.1,1.5-19,5.4c-2.4,1.6-5.4,1.9-6.5,5.2
				c-0.4,1.1-2.5,1.6-3.7,2.4c-1.3,0.9-2.8,1.8-3.8,3.1c-2.4,2.9-4.4,6.2-8.5,6.9c-0.5,0.1-1.2,0.8-1.3,1.4
				c-1.9,6.4-3.8,12.8-5.8,19.5c1.2-0.6,2.2-1.1,3.2-1.5c5.5-2.3,11-4.7,16.7-6.7c1.5-0.5,3.6,0.5,5.2,0c7.5-2.3,15.2-2.9,22.9-2.3
				c5.8,0.4,11.6,1.7,16.2,5.6c1.8,1.5,3.4,1.9,5.5,1.6c2.1-0.3,4.3-0.3,6.3-0.6c1-0.1,2-0.6,2.9-1.2c2.7-1.8,5.4-3.8,8.1-5.8
				c-0.3-0.9-0.7-2.3-1.1-3.8c-2.2,0.3-4.3,0.7-6.4,0.8c-1.1,0-2.2-0.6-3.3-0.9c0.6-1.3,1.1-2.9,2-4c0.9-1,2.3-1.4,3.1-1.8
				c-1-4.1-1.6-7.8-2.8-11.4c-0.7-2.2-1-4.6-3.3-6.5c-2.1-1.6-4.2-1.6-6.4-2C-119.6,123.7-123.7,123.2-125.7,118.1L-125.7,118.1z
				 M-307.3,662.8c-11.5,16.8-22.9,33.4-34.2,49.9c0.3,0,0.6,0,1,0c0.5,1.6,1,3.2,1.6,4.7c0.5,1.4,0.8,3.6,1.9,4.1
				c11.3,5.1,23,7.9,35.2,3.7c4.3-1.5,7.7-3.7,9.4-8.9c4.6-14.2,10.1-28.2,15.3-42.4c-3-1.7-6.4-3.7-9.8-5.6
				c-1.3-0.7-2.7-1.6-4.1-1.7C-296.7,666.6-302.3,666-307.3,662.8z M-249.2,268.5c0.8,1.1,1.4,1.9,1.9,2.7
				c6.1,9.3,7.9,19.6,6.7,30.5c-1,8.8-1.8,17.5-3.2,26.2c-2.7,17-7.5,33.6-12.2,50.2c-4.8,16.6-8.8,33.5-13.1,50.2
				c-4.5,17.1-9,34.2-13.5,51.4c-0.2,0.8-0.5,1.9-0.2,2.5c1.4,2.4,3.1,4.6,5.1,7.5c0-1.2-0.1-1.8,0-2.2c4.1-17,8.3-34.1,12.3-51.1
				c2.9-12.3,5.6-24.7,8.5-37c3.7-15.5,7.7-31,11.3-46.5c4.2-18.1,9.1-36.1,11.3-54.6c0.9-7.2,0.8-14.2-1.5-21.1
				c-2.7-7.9-4-8.8-12.5-8.7C-248.5,268.5-248.7,268.5-249.2,268.5L-249.2,268.5z M-147.9,1112.8c-7.8,0.5-15.8,1.1-23.8,1.6
				c-9.1,0.6-18.1,1.1-27.2,1.7c-7.6,0.5-14.8-3.4-22.6-1.9c-3.5,0.7-7.3,0.1-11.2,0.1c-0.4,2.7-0.8,5.8-1.2,8.9
				c28.3,4.7,56.4,5.2,84.2,1.2C-149,1120.3-148.5,1116.7-147.9,1112.8L-147.9,1112.8z M-81.7,917.2c0.8,2.5,1.7,4.8,2.4,7.2
				c4.8,15.7,9.7,31.3,14.4,47c5,16.9,9.8,33.9,14.8,50.7c0.8,2.6,0.8,5.9,3.4,6.9c2.7-2,5-3.8,7.2-5.5
				c-12.1-35.5-23.9-71.2-33.8-107.6C-75.7,916.3-78.7,916.8-81.7,917.2L-81.7,917.2z M-17.3,1111.3c4.3,0.4,8.5,0.9,12.6,1
				c11.3,0.2,22.5-1.4,33.6-3.8c2.8-0.6,5.5-1.8,8.1-3.1c2.7-1.3,3.2-3.2,1.8-5.1c-1-1.5-2.2-2.8-3-4.4c-1.4-2.9-3.7-4.8-6.6-5.8
				c-7.3-2.6-14.4-1.5-21.4,1C-2.6,1095-11.5,1100.9-17.3,1111.3z M-148.5,1110.5c-0.7-1.3-1.4-3.3-2.6-4.8c-2.4-3.2-4.6-7-7.9-9
				c-7.7-4.5-16.6-5-25.3-4c-11.5,1.4-19.4,8.7-27.3,17.8H-148.5L-148.5,1110.5z M-199,1088c9.1-4.2,18.8-3.3,28.5-1.8
				c-3.6-3-8-5.5-10.7-9.2c-3.6-4.9-7.1-5.9-12.4-3.4c-3.8,1.8-7.9,1.7-11.4-1.1c-1-0.7-1.5-2.1-2.2-3.1c1.1-0.7,2.1-1.8,3.3-2.1
				c5.6-1.1,11.2-1.9,16.8-2.9c-0.6-1.9-1.3-3.8-1.9-5.6c-1.4,0.3-2.8,0.6-4.2,0.7c-4.4,0.5-8.9,1-13.3,1.4
				c-0.6,0.1-1.3-0.4-1.9-0.6c0.3-0.7,0.4-1.8,0.9-2c2-0.9,4.1-1.9,6.2-2.2c3.7-0.6,7.6-0.9,11.5-1.3c-0.6-2.3-1-4.2-1.5-6.3
				c-6.4,0.8-12.6,1.5-18.7,2.2c-0.5,5.7-1.1,11.3-1.5,16.9c-0.1,1.3-0.1,3,0.6,4c2.4,3.2,5.2,6,7.6,9.1
				C-201.6,1083-200.5,1085.5-199,1088L-199,1088z M-68.5,912.2c-2.3-11.9-1.4-23.6-1.2-35.5c-7.4,2.7-14.5,1.2-21.3-2.1
				c-1.2,2.5-0.7,5.4,1.1,4.9c3-0.8,4.9,0.7,6.8,1.7c2.5,1.3,6.1,2,6.2,6.8c-2.8-0.4-5.3-0.7-7.1-1c-0.9,5.5-1.7,11-2.8,16.5
				c-0.3,1.6-1.2,3-3.6,2.5c-1.5-0.3-3.2,0.3-4.9,0.5c1.5,5.9,3.9,7.5,9.4,6.8c3.5-0.4,7.1-0.4,10.7-0.7
				C-72.9,912.5-70.6,912.3-68.5,912.2L-68.5,912.2z M-31.4,1058.5c5.4-1.5,10.5-2.8,15.6-4.3c0.6-0.2,1.4-1.2,1.4-1.8
				c-0.5-9-3-10.3-11.1-5.4c-1.3-6.9,5.7-6.2,8.2-9.4c-1.7-3.4-3.4-6.9-5.3-10.2c-0.4-0.8-2-1.5-2.8-1.3c-3.5,0.8-6.9,1.9-10.3,3
				c-2.1,0.7-3,2.5-2.6,4.5c0.5,2.9,1.6,5.8,2.2,8.7c0.4,2.1,2.1,4.5-0.9,6C-35.1,1051.7-33.2,1055.1-31.4,1058.5z M-308.5,582.5
				c2.1,0.9,4.8,2.1,8.1,3.5c0.6-3.6,0.9-7,1.9-10.1c2.7-8.5,5.6-16.9,8.6-25.3c1.5-4.2,3.3-8.2,5-12.2c-3.5-1.9-6.6-3.7-9.8-5.5
				c-0.3,0.7-0.7,1.2-0.8,1.8c-1.7,5.9-3.2,11.8-5,17.6c-1.2,4-3.2,7.8-4.2,11.9C-306.3,570-307.2,575.9-308.5,582.5L-308.5,582.5z
				 M-4,1070.7c-5.5,1.8-11.3,3.8-17.5,5.9c2.7,4,5.3,7.7,7.8,11.5c0.9,1.4,1.5,2.9,2,3.9c7.5-3,15.6-6.2,23-9.1
				C6.4,1079,1.2,1074.8-4,1070.7L-4,1070.7z M-204.9,242.3l0.7,0.4c5-7.4,9.9-14.7,15-22.3c-3.2,0.6-6,1.2-9.2,1.8
				c2.1-4,3.9-7.6,6.1-11.8c-3.8,2.1-6.9,3.7-9.9,5.5c-0.6,0.3-1.2,0.8-1.4,1.4c-1.3,3.4-2.5,6.7-3.8,10.4c2.5-0.2,4.7-0.4,7.2-0.7
				C-201.8,232.4-203.4,237.3-204.9,242.3L-204.9,242.3z M-256.2,465.2c-0.9-0.7-2-1.5-3-2.5c-2.3-2.5-1.9-7.9,0.3-9.4
				c2.5-1.8,4.6-4.1,6.8-6.3c0.3-0.3,0.3-1.2,0.1-1.6c-1.6-3-3.3-5.9-5.1-9.1c-3.9,14.3-7.7,28.3-11.5,42.4
				C-264.4,474.2-260.3,469.7-256.2,465.2L-256.2,465.2z M-75.4,508.6c-0.3,2.4-0.6,4.9-0.9,7.9c1.6,0.2,3.3,1,4.3,0.4
				c4.4-2.5,8.7-5.3,13.2-8.1c-2.6-3.3-5.3-6.6-8-9.9c-4.4,1-6,4.8-8,7.9c3.2,1.2,6.4,2.4,9.5,3.5c-0.1,0.2-0.2,0.5-0.2,0.7
				C-68.8,510.2-72.1,509.4-75.4,508.6L-75.4,508.6z M-133.9,483.8c-0.5,0.1-1.1,0.3-1.6,0.4c3.4,23.4,6.8,46.8,10.1,70.2
				c0.3,0,0.6-0.1,0.9-0.1c0-1.4,0.1-2.9,0-4.3c-0.5-4.7-1.2-9.4-1.8-14.2c-0.9-7.2-1.6-14.5-2.6-21.7c-1.1-8.6-2.4-17.2-3.7-25.8
				C-132.7,486.7-133.4,485.2-133.9,483.8L-133.9,483.8z M-28.6,1063.5c1.2,2.2,2.2,4.1,3.2,6c0.7,1.3,1.4,1.7,3.1,1
				c4.7-1.7,9.5-3.1,14.4-4.6c-1.9-2.4-3.9-4.9-5.9-7.4C-18.7,1060.2-23.5,1061.8-28.6,1063.5L-28.6,1063.5z M-369.3,599.6
				c1.4,1.2,2.7,2.3,4.6,3.9h-6c-0.5,1.7-1,3.3-1.5,4.9c2.1,1.2,4,2.3,5.8,3.4c1.5-5.4,3-10.6,4.5-15.9
				C-365.9,594.2-366.6,594.5-369.3,599.6z M-71.7,674.7c0-0.2,0-0.4,0-0.5c-0.3,0-0.6-0.2-0.9-0.1c-11.8,2.7-23.6,5.3-35.3,8.1
				c-0.8,0.2-1.3,1.5-2,2.4c0.3,0.3,0.5,0.6,0.8,0.9C-96.6,681.8-84.1,678.3-71.7,674.7L-71.7,674.7z M-9.5,1041.3
				c0.8,2.3,1.4,4.2,2,5.9c5.3,0.1,10.4,0.1,14.7-4.4C1.7,1040.2-3.8,1041.5-9.5,1041.3z M-80.9,605.7c0-0.3,0.1-0.6,0.1-0.9
				c-4.8-0.6-9.7-1.4-14.5-1.9c-7.4-0.7-14.8-1.2-22.2-1.7c-0.7,0-1.5,0.7-2.2,1c0.1,0.2,0.2,0.4,0.3,0.7
				C-106.6,603.8-93.7,604.7-80.9,605.7L-80.9,605.7z M-105.4,568.6c-0.3-0.3-0.5-0.5-0.8-0.8c-4.6,4.3-9.2,8.6-13.7,13
				c-4,3.8-7.8,7.8-11.7,11.8c-0.6,0.7-0.8,1.7-1.2,2.6c0.3,0.2,0.6,0.4,1,0.5C-123,586.7-114.2,577.6-105.4,568.6z M-260.2,699.8
				c0.1,0.4,0.1,0.8,0.2,1.3c16.2-1.7,32.3-3.3,48.5-5c0-0.3,0-0.5-0.1-0.8C-227.8,696.8-244,698.3-260.2,699.8z M-82.4,823.9
				c-1.9,0.5-3.1,0.5-4,1c-2.5,1.5-3.6,7.8-2.1,10.8c0,0.1,0.2,0.1,0.5,0.3C-84.2,833.3-84.7,828.6-82.4,823.9z M-205.8,475.8
				c0-0.3,0-0.5,0.1-0.8c-12.7-0.4-25.3-2-37.9-1.9l0,1.3L-205.8,475.8L-205.8,475.8z M-94.3,812.6c-0.1,0.4-0.2,0.8-0.4,1.2
				c1.6,4.2,5.9,2.8,9,3.6c3.4,0.8,6.9,0.8,10.4,1.2c0.1-0.3,0.1-0.6,0.2-0.8C-81.5,816-87.9,814.3-94.3,812.6z M-157.6,472.1
				c-5.6-0.7-11.2-1.4-17.1-2.2C-172.7,473.9-160.3,475-157.6,472.1z M-81.9,795.7c-2.1,3.2-2.1,5.9,0.1,8.4
				c0.5,0.6,1.6,1.1,2.3,0.9c0.6-0.1,1.4-1.2,1.4-1.9C-78.1,800-79.6,797.6-81.9,795.7L-81.9,795.7z M-122.8,474.3
				c0-0.1,0-0.2,0-0.4l-29.7-1.6c0.4,1.1,1.1,1.9,1.8,1.9C-141.4,474.4-132.1,474.3-122.8,474.3L-122.8,474.3z M-203.2,174
				c0,0.3,0.1,0.5,0.1,0.8c1.2-0.4,2.6-0.5,3.7-1.1c2.8-1.7,5.4-3.9,8.3-5.3c2.9-1.4,3.6-3.2,2.9-5.4c-2.3,1.9-4.6,3.9-7.1,5.7
				C-197.8,170.6-200.5,172.3-203.2,174z M-79.5,165.2c1.2-2.6,0.4-5.2-1.8-5.9c-0.6-0.2-2,0.3-2.1,0.8
				C-84.5,163.4-81.7,164-79.5,165.2L-79.5,165.2z M-125.8,164.3c-1.3-2.7-4.6-4.2-7.9-3.8C-133.6,163.7-131.6,164.1-125.8,164.3z
				 M-63.4,807.1c-0.2-0.3-0.3-0.6-0.5-1c-1.1,0.6-2.3,1.1-3.4,1.7c0.1,0.2,0.2,0.4,0.2,0.6C-65.9,808-64.7,807.6-63.4,807.1
				L-63.4,807.1z M-123.9,555.6c-0.2,0-0.4,0-0.5,0c0.1,0.5,0.2,0.9,0.2,1.4c0.1,0,0.2,0,0.3,0V555.6z"/>
		</g>
	</g>
	<g>
		<g>
			<defs>
				<path id="SVGID_3_" d="M160.5,321L160.5,321C71.9,321,0,249.1,0,160.5v0C0,71.9,71.9,0,160.5,0h0C249.1,0,321,71.9,321,160.5v0
					C321,249.1,249.1,321,160.5,321z"/>
			</defs>
			<clipPath id="SVGID_4_">
				<use xlink:href="#SVGID_3_"  style="overflow:visible;"/>
			</clipPath>
			<g class="st3">
				<path d="M184.9,290.1c3.2-1.7,6.6-3.2,9.6-5.2c10.3-6.9,20.4-14.1,30.7-21.1c1.7-1.2,3.6-1.9,5.2-3.2c1.5-1.1,2.6-2.7,4-3.9
					c10.7-9.6,21.6-18.8,31.9-28.8c6.2-6,11.9-12.7,13.7-21.6c0.3-1.5-0.2-3.1-0.3-4.7l-1-0.5c-1.4,1.8-2.8,3.5-4.1,5.3
					c-6.5,8.9-14.4,16.3-22.7,23.4c-4.7,4-9.2,8.3-13.8,12.3c-8.2,7-16.4,13.9-24.7,20.9c-5.8,4.9-11.6,9.7-17.4,14.5
					c-3.4,2.8-6.9,5.6-10.2,8.5c-0.8,0.7-1.2,1.9-1.9,2.9C184.3,289.3,184.6,289.7,184.9,290.1L184.9,290.1z"/>
				<path d="M198.7,150.6c1.3-0.9,3-2,4.3-3.4c0.6-0.7,1.1-2.4,0.7-3c-3.5-5.3-9.4-3.3-11.9,0.9c-1.2,2,0.5,4.7,3,4.9
					C196.1,150.1,197.4,150.4,198.7,150.6z"/>
				<path d="M132.5,192.2c-3.3,0.6-5.9,0.9-8.4,1.5c-0.6,0.1-1,0.9-1.5,1.4c0.6,0.5,1.1,1.3,1.8,1.5
					C127.1,197.5,130.5,195.9,132.5,192.2L132.5,192.2z"/>
				<g>
					<polygon points="195.2,72.5 195.2,72.5 195.2,72.5 					"/>
					<path d="M406.8,461.8c-0.9-7.3-2-14.5-3-21.8c-0.8-5.9-0.9-12-2.3-17.8c-1.2-5-3.7-9.7-5.5-14.6c-4-11.2-7.5-22.7-12.1-33.7
						c-5.6-13.5-11.9-26.7-18.1-39.9c-3-6.4-6.4-12.7-9.6-19.1c-0.4-0.8-0.7-2-0.4-2.7c2.9-7,1.9-14.3,1-21.4
						c-1.1-8.8-2.5-17.5-3.9-26.2c-1.9-11.5-4-23-6.1-34.4c-0.5-2.8-0.9-5.6-1.8-8.3c-1.6-5-5.9-7.3-10.5-8.8
						c-8.2-2.6-16.5-5-24.7-7.3c-1.2-0.4-2.7,0-4.9,0c0.7,2.9,1.5,5.6,1.7,8.4c0.1,1.1-1.3,2.3-2,3.4c-0.3-0.1-0.6-0.3-0.9-0.4
						c-0.3-3.4-0.6-6.8-0.9-10.1c-0.7-6.9-1.2-13.9-2.1-20.8c-0.5-3.9-4.5-6.1-8.6-4.8c-8.1,2.6-16.4,2.7-24.7,2.6
						c-9.1-0.1-18.2-0.8-27.3-0.5c-9.1,0.3-18.2,1.6-27.3,2.6c-1.8,0.2-3.6,1.1-5.8,1.9c-1.4-6-2.9-12.2-4.4-18.9
						c3.5-0.6,6.4-1.1,9.3-1.5c3.4-0.4,7.1-4.2,6.9-7.6c-0.3-3.8-0.8-7.7-1.5-11.5c-0.7-3.4,0.7-8,3.4-9.9c1.8-1.3,1.9-2.8,0.6-4.4
						c-1.4-1.8-1-2.9,0.5-4.5c5.4-5.6,7.8-12.6,9.1-20c1.3-7.9,1.4-15.9-0.9-23.8c-2.1-7.3-6.7-12.9-13-16.9
						c-4.8-3.1-9.9-5.9-15.3-7.8c-3.1-1.1-6.8,0-10.5,0c-1.6-7.7-10.2-11.9-18.4-12.7c-18.1-1.8-34.4,4.1-50.5,11.3
						c-14.8,6.6-28.4,15.1-41.3,24.9c-4.7,3.6-8.7,8.3-13,12.5c-2.4,2.4-0.6,4.3,1.1,5.9c1.1,1.1,2.7,1.5,3.7,2.6
						c0.7,0.7,0.9,2,1.3,3c0.5,1.4,0.6,3.2,1.5,4.3c3.7,4.5,6.8,9.7,13.3,11c0.8,0.2,1.2,2.4,1.7,3.6c1.4,3.2,2.7,6.4,4.1,9.6
						c0.7-0.9,1.5-1.7,2.2-2.6c3.4,1.1,4.4,0.8,4.5-1.9c0.2-4.9,0.4-9.8,0-14.7c-0.4-5.1,1-6.9,6.3-7.2c6.5-0.5,13.1-0.9,19.4-2.5
						c9.6-2.5,19-5.9,28.5-9c3-1,5.1,0,6.2,2.7c1.6,4,3.7,7.8,5.4,11.7c1.5,3.5,2.9,7.1,4.2,10.7c0.4,1.1,0.5,2.3,0.8,3.3
						c3.1-0.6,5.8-1.1,8.4-1.6c-0.1,0.3-0.2,0.8-0.4,0.9c-5.3,1.6-10.5,3.4-15.8,4.7c-3.7,0.9-7.3,3.4-11.3,1
						c-0.5-0.3-1.6,0.2-2.4,0.4c-1.6,0.4-3.2,1.2-4.8,1.3c-1.6,0.1-3.3-0.6-4.9-0.5c-4.4,0.1-8.8,0-13.1,0.7
						c-6.4,1-12.8,2.3-17.3,7.4c1,0.9,1.8,1.8,3.2,3.1c-3.2,0.5-4.9-0.2-5.8-2.5c-1.3-3.4-4-4.6-7.4-4.7c-1.9,0-3.8-0.1-5.7-0.1l0,0
						c-7.7,0.6-15.4,1.2-22.6,4.2c-1.7,0.7-3,1.8-0.7,3.5c0.5,0.4,1,1.5,0.8,2c-1.9,5,1.5,8.6,3.4,12.5c2.8,5.6,12.1,13.4,18.3,14.6
						c2.2,0.4,4.8-1.1,7-1.6c1.4,1.2,3.1,2.6,4.7,4c-2.9,7.6,0.8,14.8,2.8,21.8c-7.4,2.6-14.4,4.9-21.2,7.7
						c-3.9,1.6-7.6,4.2-6.8,9.4c0.2,1.3,0.7,2.8,1.6,3.8c2.3,2.5,3.4,4.5,2,8.4c-2.5,6.9-4.2,14.3-5.5,21.6
						c-0.9,5.2-0.4,10.6,3.8,14.5c-8.4,4.9-14.9,11.7-20.8,19.2c-4.2,5.3-4.8,11.7-5.6,18.2c-1.1,9.4-3,18.7-5,28
						c-1.1,5-3.2,9.7-4.6,14.6c-1.6,5.7-2.7,11.5-4.6,17.1c-4.9,15.1-10.2,30.1-15.2,45.1c-2.2,6.7-4.1,13.6-6.5,20.2
						c-1.7,4.9-4.1,9.6-6,14.5c-2.6,6.9-0.2,13.4,1.7,20c2.4,8.2,4.5,16.5,6.7,24.5c-2.3,0.7-4.2,1.3-5.8,1.7
						c-0.8,2.4-1.5,4.7-2.4,6.9c-3.2,8.3-6.5,16.5-9.7,24.8c-6.1,16-12.2,32-18.2,48c-4,10.6-3.1,21.3,0.1,31.8
						c1.6,5.3,3.5,10.5,5.4,15.8c0.3,0.9,1.2,1.6,1.8,2.4c0.5-1.1,1.5-2.3,1.4-3.3c-0.3-3.2-1.1-6.3-1.6-9.5
						c-1.1-6.9-1.9-13.8-3.1-20.7c-0.6-3.5-0.6-6.8,0.7-10.2c1.4-3.9,1.9-8.1,3.1-12c0.5-1.6,2.2-2.9,2.8-4.6c0.9-2.7,1.1-5.6,2-8.3
						c3.4-9.9,7.1-19.6,10.6-29.4c2-5.5,3.4-11.3,5.7-16.6c1.8-4.3,4.6-8.1,7.3-12.6c3.4,7.5,1.1,16,5.7,22.5
						c0.5-0.1,0.9-0.1,1.4-0.2c0.1-1.6,0.3-3.1,0.3-4.6c-0.2-14.6-2-29.1-5.1-43.4c-0.8-3.9-2.5-7.7-2.9-11.6
						c-0.3-3-0.1-6.6,1.3-9.2c7-13.5,9.9-28.4,15.2-42.5c1.7-4.5,3.2-9.1,4.8-13.5c0.4-1,1.4-1.8,1.8-2.7c0.5-1.3,0.7-2.7,1.1-4
						c0.4-1.5,0.6-3.1,1.2-4.6c6-15.6,10.6-31.5,14.2-47.8c0.5-2.1,1.6-4,1.9-6.1c0.3-2,0.1-4.1,0.1-6.2c0.1-3.9,0.4-7.8,0.5-11.7
						c0.1-7.7,2.8-14.3,8.2-19.9c3.8-4,7.5-8.2,11.1-12.4c1.2-1.4,2-3.1,3.4-5.2c0.5,1.1,1.2,2,1.3,2.9c0.5,10.8,1.1,21.6,1.4,32.4
						c0.5,16.3,1.1,32.5,1.2,48.8c0,7.3-1.1,14.6-1.6,21.9c-0.1,1.1,0.2,2.3,0.5,3.4c1.1,3.8,2.2,7.6,3.3,11.4
						c2.6-0.4,1.9,1.4,1.8,2.8c0.2,3.2-0.3,6.6,0.6,9.6c3.6,11.1-1.9,21.3-2.9,31.9c-0.8,8-2.5,15.9-3.6,23.8
						c-1.2,8.2-3,16.4-3.1,24.7c0,7.6-5.6,11.9-8.3,17.8c-2.3,5.1-5.7,9.7-8.3,14.6c-0.9,1.6-1.4,3.8-1.1,5.6c0.6,2.7,2.4,3,4.2,0.7
						c1.9-2.4,3.9-4.8,5.6-6.9c0,8.1,0,16.4,0,24.6c0,2.3,0.1,4.7,0,7c-0.1,2.4,1.8,2.9,3.4,3.1c0.6,0.1,1.8-1.6,2-2.7
						c2.1-10.9,4-21.8,6.1-32.7c0.6-3.3-1.5-5.3-2.9-7.7c-0.4-0.7-0.7-2-0.4-2.4c4.4-4.7,4.7-10.7,5.5-16.6
						c0.9-7.1,2.2-14.2,3.3-21.3c1.4-8.6,2.6-17.2,4.1-25.8c0.7-4.2,0.7-8.7,3.4-12.5c0.6-0.9-0.3-2.7-0.1-4
						c1.1-6.4,2.5-12.7,3.7-19.1c0.5-2.9,1.6-6.1,1-8.8c-2-9.3,2.1-17.9,2.2-26.9c0-0.7,0.8-1.3,1.1-1.9c0.3-0.8,0.9-1.8,0.7-2.4
						c-2.4-7.8,0.5-15.3,0.8-23c0.1-3,0.4-6,0.7-9c1.1-10.5,2.2-21,3.3-31.5c0.4-4,0.6-8,0.9-12.7c13.5,8.3,27.5,14.8,44,15.2
						c0.2,2,0.5,4.1,0.6,6.1c0.5,13.5,0.9,26.9,1.4,40.4c0.2,5.5,0.3,11,0.7,16.4c0.3,4.9,0.9,9.7,1.4,14.6c0,0.4,0.3,0.8,0.5,1.2
						c1.9,2.6,3.8,5.3,5.9,8.1c-1.3,0.6-2.3,1.2-3.7,1.8c-0.3-2-0.5-3.8-0.8-5.6c-2.3,1.8-3.7,6.1-2.3,8.6c0.7,1.3,2.5,2.7,4,2.8
						c3.6,0.4,7.4-4.4,7.1-8.6c-0.2-3.9-0.8-7.7-0.8-11.6c0-4,0.7-8,0.7-12c0.1-16.6,0.1-33.2,0-49.9c0-6-0.4-11.9-0.6-17.9
						c0-0.3-0.1-0.8,0.1-1c3-3.3-0.3-6.6-0.2-9.8c0-2-4-3.2-7.9-0.8c0.1-2.6-2.3-5,0.4-7.6c-5.4-7.7-13.1-13.2-20-19.5
						c-3-2.7-7.7-3.7-8.5-8.6c-0.1-0.3-0.6-0.7-1-0.8c-6.7-1.1-10.4-6.8-15.4-10.5c-2.5-1.8-4.1-4.8-6.5-6.8c-1.8-1.6-4.1-2.8-6.3-4
						c-0.5-0.3-2.1,0.1-2.1,0.4c-0.4,1.8-4.6,1.8-2.4,4.8c2.5,3.3,4.6,7.1,7.7,9.8c9.8,8.6,19.9,17,30.2,25.2
						c4.5,3.6,9.6,6.3,14.3,9.5c0.9,0.6,2,1.7,2,2.7c0.2,5.8,0.1,11.6,0.1,17.4c-5.4-0.3-59.3-32.2-60.7-36.4
						c-4.9,0.7-7.8-3-11.2-5.4c-0.8-0.5-0.7-2.7-0.5-4.1c1.1-6.7,2.3-13.4,3.5-20.4c4.3,2,6.2,8.9,12.5,4c-2.4-3.9-4.7-7.8-7.2-11.7
						c-1.6-2.6-3.1-5.3-5.1-7.6c-1.9-2.2-0.9-2.8,1.1-3.6c4.7-1.9,9.4-4,14.1-6.1c1.9-0.8,3.7-1.9,5.5-2.8
						c9.7,14.9,24.1,15.9,39.5,14.2c0.5,3.3,1.2,6.8,1.6,10.5c0.1,0.7-0.6,1.6-1.2,2.2c-0.7,0.7-1.6,1.2-2.4,1.7
						c-1.7,1.2-2.4,2.9-1,4.4c0.8,0.9,2.6,0.9,4,1.2c0.4,0.1,0.9-0.1,1.7-0.2c0.7,2.9,1.4,5.8,2,8.5c-0.9,0.2-1.9,0.3-2.9,0.5
						c0.3,0.9,0.3,1.9,0.9,2.6c4.9,6.2,9.8,12.4,15,18.3c4.3,4.8,9,9.3,13.7,13.7c1.2,1.1,2.7,3.7,4.9,1.8c2.1-1.8,0.3-3.6-0.9-5
						c-4-4.9-8.1-9.8-12.4-14.4c-4.3-4.7-9-9-13.4-13.6c-0.8-0.8-1.2-2.3-1.3-3.5c-0.4-7.6-0.6-15.2-1-22.9c-0.1-2.6-0.7-5.2-1-6.9
						c5.6-3.9,10.9-7.4,16-11.1c2.5-1.8,1.7-4.3,0.6-6.5c-1.4-2.7-3.9-1.9-5.9-1c-4,1.8-7.7,4.2-11.7,6c-7.9,3.6-16.1,6-24.7,3.5
						c-4.3-1.2-8.3-3.5-12.2-5.6c-1.8-1-3.5-2.6-2.9-5.2c0.1-0.4-0.2-1.3-0.6-1.4c-4.8-2.5-4.8-7.9-7.2-11.9c-0.7-1.2-1-2.7-1.5-4.2
						c1.6,0,3.2,0.2,4.7-0.1c0.7-0.1,1.5-1.1,1.8-1.8c0.1-0.4-0.7-1.4-1.3-1.7c-2.2-1.2-4.4-2.2-6.9-3.4c1.7-1.1,3.2-2,4.5-3.1
						c1.4-1.2,3.3-2.3,2.1-4.8c-1.2-2.6-2.8-4.2-5.8-2.6c-1.7,0.9-4.2,1.5-4.9,2.9c-1.5,3-4.2,4.5-6.3,6.6
						c-12.4-5.2-15.4-12.6-16.3-22.4c7.1-1.1,14.1-2.2,21.2-3.2c0.7-0.1,2.2,0.6,2.2,0.9c0,1.3-0.4,2.6-0.8,4.2c2.1,2.5,4.1,6,9,4.7
						c0.1-0.7,0.2-1.6,0.3-2.3c2.5-0.6,3.4,0.2,4,2.6c2.9,13.2,13.4,18.5,25.2,16.4c4.3-0.8,8.8-0.3,12.3-3.5c1.4-1.2,2.8-2.5,3.7-4
						c1.8-3.2,4.2-6.1,3-10.5c-0.9-3.1-0.2-6.7-0.2-10.7c4.1-1.2,8.9-2.5,14.1-4c0.5,3.4,1.1,6.8,1.5,10.1c0.3,2.8,1.9,4.9,4.4,5.4
						c2.4,0.5,5.1-0.3,6.2-3.3c1.4-3.6,2.6-7.4,4.5-10.8c0.9-1.6,2.9-3.1,4.7-3.7c7.2-2.4,17.3,4.9,16.8,12.3
						c-0.3,4.6-2.8,8.4-6.8,10.7c-3.2,1.9-6.6,3.7-10.6,3c-1.9-0.3-3.6-1.2-5.3-1.8c-0.3,2.5,1.9,6,5.4,7.3c2.7,1,3.5,2.9,3.7,5.4
						c0.2,2.4,0.7,4.8,1,7.3l2.7,9.9l6.6,22.3c2.2,5.2,4.9,10.5,6.5,16.1c1,3.5,2.4,5.5,5.9,6.2c1,0.2,1.9,1,3.6,1.8
						c-9.6,13.3-19.2,26.5-28.9,39.7c0.2,0.2,0.3,0.4,0.4,0.5c0.7-0.4,1.6-0.6,2.1-1.2c10-10.3,20-20.6,28.1-32.5
						c2.5-3.6,4.6-7.4,6.7-11.2c0.5-0.9,0.4-2.2,0.6-3.9c-2.2,1.2-3.8,2.1-5.2,2.9c-3.5-2.1-6.9-4.1-11.3-6.6
						c-0.5-1.9-1.4-5.1-2.4-8.6l-6-22.3l3.2-0.2c14.2,0,27.7-0.1,41.1,0c13.3,0.1,26.5,0.1,39.6-3.4c4,6.1,5.3,13.2,6,20.2
						c0.2,2-2.1,4.3-3.4,6.5c-1.8,3.1-3.7,6.2-5.8,9.6c1,0.6,1.9,1.7,2.8,1.6c5-0.3,8.6,2.6,12.2,5.2c1.2,0.9,2.4,3.2,2,4.4
						c-0.4,1.4-2.8,3.5-3.8,3.3c-4.3-1-6.8,2.3-10,3.8c-5.2,2.4-10.1,5.9-15.5,7.8c-4.4,1.5-7.8,4.6-12.1,6.2
						c-4.4,1.6-8.5,3.9-12.7,6c-5.7,2.9-11.2,6.4-17.2,8.6c-5.4,2-9.9,5.7-15.4,7.6c-5.6,1.9-11,4.3-16.6,6.4
						c-2.9,1.1-6,1.9-9.6,3.1c4.4,3.4,3,7.8,3.2,11.8c0.7,14.5,1.2,29.1,2.1,43.6c0.5,7.8,1.7,15.6,2.7,23.5
						c0.1,0.8,0.5,1.6,1.3,2.3c0-6.3,0-12.7,0-19c0-17.2,0.1-34.4,0-51.7c0-2.6-0.7-5.2-1.2-8.1c1.4-0.2,3.5-0.6,6.2-1
						c-0.3,3.9-0.8,7.7-0.8,11.4c-0.1,9.8,0,19.6-0.1,29.5c-0.2,12.3-0.3,24.6-1,36.8c-0.3,5.7-0.3,11.3,1.7,16.6
						c1.3,3.3,0.8,4.1-3,4.8c-0.7,0.1-1.5,0.4-2.7,0.9v-12c-3.9,0.5-4.2,2.7-3.6,5.4c0.5,2.4,1.8,5.3,0.9,7.1
						c-1.3,2.6,1.1,3.5,1.4,5.3c0.5-0.9,0.9-1.8,1.5-2.8c2.4,0.3,4.8,0.5,7.2,0.9c4.3,0.7,6.1-2.5,7.2-5.5c0.6-1.6,0-5-1.2-5.9
						c-5.1-3.6-2.8-8.4-2.8-12.8c0.1-4,0.7-8,1.2-12c0.3-2.1,1.1-4.2,1.3-6.3c0.1-1.1-0.7-2.3-0.6-3.5c0.1-6.5,0.3-13,0.5-19.5
						c0.1-2.5,0.4-5,0.7-8.1c0,0-0.5-0.9-0.5-1.8c-0.3-7.5-0.5-14.9-0.7-22.4c-0.1-2.6,0-5.2,0-7.2c14.1-5,27.9-9.9,41.7-14.8
						c0.3,4,0.4,8.1,1,12.3c1.4,10.4,3,20.8,4.6,31.2c1.5,9.8,3.2,19.6,4.9,29.4c1,5.9,2.6,11.7,3.3,17.6c1,9,4.2,17.5,5.8,26.3
						c0.7,3.7,3.1,5.9,5.8,8c4.2,3.4,8.4,6.8,12.5,10.3c0.4,0.4,0.7,0.9,1.1,1.4c0.6,0.7,1.3,1.4,2.3,2.5
						c-11.7,22.1-23.7,45-36.2,68.7c1.5-1,2.7-1.3,3.2-2.2c6.9-11.1,14-22,20.5-33.3c6.1-10.6,11.7-21.5,17.5-32.4
						c0.6,2.5,1.3,5.1,1.8,7.8c0.5,2.6,0.5,5.3,1.2,7.8c1,3.8,2.3,7.4,3.5,11.1c0.2,0.6,0.1,1.4,0.4,1.9c4.2,6,1.1,11.7-0.9,17.3
						c-0.8,2.2-3.8,3.5-5.2,5.7c-2.6,4.1-4.7,8.6-7.2,12.8c-2.9,4.8-6,9.5-9.1,14.2c-4.8,7.1-9.5,14.3-14.6,21.2
						c-1.4,1.9-4.2,2.7-6.2,4.2c-2.7,2-5.4,3.9-7.9,6.1c-1.1,1-2.5,3-2.1,4c0.5,1.2,2.5,1.9,3.2,2.3c2.7,4.2,4.8,8.1,7.4,11.6
						c6,8.4,15.1,12.5,24.5,10.7c8.8-1.7,13.1,3.4,18.6,7.5c2.1,1.6,4,3.5,6,5.3c2.7,2.4,6.1,2.6,9.4,0.5c1.5-0.9,3.1-1.7,4.5-2.7
						c1.4-1,2.6-2.3,4.3-3.8c2.7,6.4,5.3,12.5,7.7,18.6c0.3,0.7,0,1.9-0.5,2.5c-8.2,10.5-16.5,20.9-24.7,31.4
						c-0.6,0.8-0.9,1.7-1.2,2.2c-6.6,1.5-13,3.4-19.5,4.2c-8,1-15.7,3.3-23.7,4c-9.5,0.8-19,2.4-28.5,3.2c-5.6,0.5-11.3,0.1-17,0.4
						c-3.1,0.2-6.2,0.9-9.3,1.3c-1.1,0.2-2.2,0.2-3.3,0.5c-1,0.3-1.8,1-2.7,1.5c0.1,0.3,0.2,0.6,0.3,0.9c0.8,0.1,1.6,0.2,2.5,0.2
						c6.7,0,13.3,0.1,20,0c11-0.2,22.1-0.2,33.1-0.8c12.5-0.7,24.9-1.7,37.1-4.7c3.3-0.8,6.6-2.2,9.9-3.3
						c-2.3,7.3-4.5,14.1-6.6,20.9c-0.3,1.1-0.6,2.5-0.3,3.6c0.4,1.2,1.3,2.6,2.3,3c0.6,0.2,2.3-1.1,2.9-2.1
						c3.1-5.9,6.2-11.8,8.7-17.9c1-2.6,0-5.7-2-8.1c-1.7-2-1.6-3.7,0.5-5.7c7.7-7.5,15.3-15.1,22.7-22.8c2.9-3,5.4-6.4,7.9-9.8
						c2.6-3.6,1.4-7.4-0.3-10.8c-2.4-4.8-5-9.5-7.6-14.1c-0.7-1.2-1.6-2.3-2.5-3.5c2.7-3.1,6-6.8,9.6-10.9c0.6,0.2,1.9,0.7,3.1,1.3
						c4.5,2.2,8,0.9,9.4-4.1c2.3-8.3,4.1-16.7,6.2-25c1-4.3,2.3-8.5,3.1-12.8c0.6-3.1,2.3-4.4,5.1-5.2c8.7-2.4,16.5-6.6,22.4-13.6
						c3.9-4.6,8.3-8.9,9.3-15.2C407.5,466.5,407.1,464.1,406.8,461.8z M166.5,302.3c0.1,0,0.3,0,0.4,0c0.8,10.2,1.7,20.4,2.4,30.6
						c0.4,5.9,0.5,11.9,0.7,17.8c0.4,9.1,0.8,18.2,1.2,27.4c-0.9,0.2-1.7,0.4-2.9,0.7C167.7,353.2,167.1,327.8,166.5,302.3
						L166.5,302.3z M142.7,158.8c-3.1,1.1-6.3,2-9.6,2.6c-5.3,1-11.5-1.8-13.2-7.9c-1-3.3-2.1-6.6-3.2-9.9
						c10.4-3.1,21.1-4.3,32.6-3.5c0.1,2.9,0.3,5.8,0.4,8.8C149.8,154.6,148.2,156.9,142.7,158.8z M179.5,59.5c-1-2-2-4-3-6.1
						c3.7,0.1,6.9,2.9,6.9,6.5C182,59.7,180.5,59.6,179.5,59.5z M183.5,126.4c-0.8-0.1-1.6-0.3-2.5-0.4c0.8-0.1,1.6-0.2,2.5-0.4
						C183.5,125.9,183.5,126.2,183.5,126.4z M195.2,72.5c0.2,1.1,0.3,1.9,0.6,3.3c-2.1-1.1-3.8-1.9-5.6-2.8c2.9-2.1,4.7-5.1,8.4-3.7
						c2.9,1.1,5.7,2.4,7.8,5.4C202.4,74,199,73.3,195.2,72.5z M338.1,261c0.4,0.5,0.5,1.2,0.6,1.9c1.1,9.7,2.2,19.4,3.4,29.3
						c-4.1-4.8-6.9-9.6-6.1-15.9c0-0.3-0.2-0.6-0.3-0.9c-0.7-4.6-2-9.2-0.9-14c0.2-0.8,0.9-1.5,1.4-2.3
						C336.8,259.7,337.6,260.3,338.1,261z M335.1,242.4c-0.1,1.7,0.3,3.2-0.3,4c-1.9,2.3-4,4.6-7.7,2.8
						C327.5,245,330.8,244,335.1,242.4z M304.1,220.9c9.5,3.9,14.7,12.8,13.1,22.4C317.1,233.3,311.2,226.7,304.1,220.9z
						 M292.8,547.5c-8,2-14.3,0.1-19.5-5.9c-2.5-2.9-5.1-5.8-7.5-8.9c-2.3-2.9-1.8-4.9,1.2-7.1c1-0.7,2.1-1.4,2.3-1.5
						c1.5,2.1,2.6,4.2,4.3,5.8C279.8,535.8,286.2,541.5,292.8,547.5L292.8,547.5z M398.1,474.1c-6.9,8.4-15.4,14.6-25.4,18.8
						c-2.8,1.2-5.3,3.1-7.9,4.6c0.4,0.3,0.8,0.6,1.2,0.9c-0.2,1.3-0.2,2.7-0.6,4c-0.6,2.2-1.6,4.3-2.2,6.6
						c-2.4,9.1-4.8,18.2-7.2,27.5c-1-0.4-1.8-0.7-2.7-0.9c-6.7-2.4-13.3-5.1-20.1-7.1c-2-0.6-4.8,0.4-6.8,1.4c-1.9,1-1.9,3,0.4,4.1
						c4.8,2.3,9.6,4.5,14.5,6.8c-1.2,1-2.6,2.2-4,3.3c-5.7,4.4-11.3,8.8-17.1,13c-0.9,0.7-3.2,0.7-4.1,0
						c-9.8-7.1-19.4-14.3-29.1-21.6c-5.1-3.8-10.3-7.7-14.8-11.1c1.1-1.5,2.1-2.6,2.9-3.9c1.1-1.7,1.8-3.6,3-5.1
						c6.3-8.2,12.8-16.2,18.9-24.5c3.2-4.4,6-9.2,8.5-14c1.8-3.5,2.7-7.5,4.1-11.6c6.6,1.7,12.5,3.2,18.4,4.6c0.9,0.2,2-0.5,3-0.8
						c0.1-0.5,0.1-0.9,0.2-1.4c-6-3.6-11.9-7.2-18-10.9c1.7-3.8,3.4-7.9,5.1-11.8c11.9-0.7,23.7-1.3,35.5-2c0.8-3.1-0.5-4.8-3.6-5.7
						c-9.4-2.6-18.9-2.4-28.5-0.9c-3.1,0.5-5.9,1.1-7.4,4.2c-1.5-6.2-3-12.3-4.4-18.4c-3.4-15-6.8-29.9-10.2-44.9
						c-0.2-1.1-1-2-1.5-3c-0.3,0-0.5,0.1-0.8,0.1c-0.5,1.9-1,3.7-1.7,6.4l0,0c-3.5-41.6-5.5-82.4-4.3-123.6
						c4.1-2.5,8.3-5.1,12.5-7.6c12.1,17.7,24,35.3,35.8,52.6c-0.1,0.1,0.2-0.3,0.7-1.3c1.5,3.9,2.4,7.5,4.1,10.8
						c6.1,12.1,12.8,23.9,18.5,36.1c6.4,13.7,12.3,27.6,18,41.6c4.9,11.9,9.1,24.1,13.7,36.2c0.7,1.8,2.3,3.4,2.5,5.3
						c0.6,4.3,0.4,8.8,0.8,13.1c0.6,7.7,1.2,15.4,2.3,23.1C400.4,469.9,399.8,472,398.1,474.1z"/>
				</g>
			</g>
		</g>
		<g>
			<path d="M160.5,3c42.1,0,81.6,16.4,111.4,46.1c29.7,29.7,46.1,69.3,46.1,111.4c0,42.1-16.4,81.6-46.1,111.4
				c-29.7,29.7-69.3,46.1-111.4,46.1c-42.1,0-81.6-16.4-111.4-46.1C19.4,242.1,3,202.5,3,160.5c0-42.1,16.4-81.6,46.1-111.4
				C78.9,19.4,118.4,3,160.5,3 M160.5,0L160.5,0C71.9,0,0,71.9,0,160.5v0C0,249.1,71.9,321,160.5,321h0
				c88.6,0,160.5-71.9,160.5-160.5v0C321,71.9,249.1,0,160.5,0L160.5,0z"/>
		</g>
	</g>
	<g>
		<g>
			<defs>
				<path id="SVGID_5_" d="M501.5,321L501.5,321c88.6,0,160.5-71.9,160.5-160.5v0C661.9,71.9,590.1,0,501.5,0h0
					C412.8,0,341,71.9,341,160.5v0C341,249.1,412.8,321,501.5,321z"/>
			</defs>
			<clipPath id="SVGID_6_">
				<use xlink:href="#SVGID_5_"  style="overflow:visible;"/>
			</clipPath>
			<g class="st4">
				<g>
					<path d="M814.9,696c-10.3-1.9-20.5-3.8-30.8-5.6c-1.4-0.2-1.4-0.5-1-1.7c4-14,3-28-0.3-42c-1.9-8.1-4-16.1-8-23.4
						c-5.8-10.6-14.6-17.4-26.2-20.7c-3-0.9-6.1-0.6-9.1-0.3c-1.6,0.2-2,2-3.5,2.2c-2.1,0.3-1.2,2-1.5,3.1
						c-11.1-0.2-22.1-0.1-32.8,3.5c2.1-4.9,6.9-6.4,10.9-8.7c13.2-7.7,26.3-15.6,38.7-24.4c9.6-6.8,19.4-13.3,28-21.4
						c1.1-1,2.1-3.3,4.3-1.4c0.1,0.1,1.6-0.1,2.3-1.4c3.3-6.5,4.3-13.6,5.6-20.6c1.4-7.7,2.4-15.4,2.9-23.1
						c0.6-9.1,1.9-18.1,0.7-27.2c-0.8-6.4-3.6-11.9-7-17.2c-5-7.8-11.4-14-18.8-19.7c-5.3-4.1-10.4-3-15.8-2.4
						c-14.4,1.6-28.1,5.8-41.7,10.4c-11.9,4-23.6,8.8-34.6,15.1c-2,1.2-4,2.5-6,3.8c1.3-8.3-0.6-16-2.8-23.6
						c-3-10.7-8.1-20.5-12.5-30.7c-3.7-8.6-7.7-17.1-12-25.4c-3.9-7.6-7.9-15.1-12.2-22.6c-7-12.3-12.8-25.1-15.1-39.2
						c-1.9-11.7-5.5-23-8.9-34.3c-0.9-3-2.6-5-5.5-6c-2.2-0.8-3.8-1.7-3.9-4.7c-0.2-3.8-3-6.4-6.4-7.9c-6.3-2.8-11.4-7.5-17.1-11.3
						c-7.3-4.8-14.8-9.3-22.4-13.4c-1.6-0.9-2.7-1.9-3.4-3.7c-1.5-3.6-4.5-6.2-7.7-8.4c-3.2-2.1-6.2-4.5-10-5.6
						c-0.7-0.2-1.3-0.8-1.6-2c1.8,1.2,3.9,0.9,5.4,2.3c0.2,0.2,0.6,0.5,0.9,0.4c2.3-0.6,4.1,1.2,6.2,1.5c5.6,0.7,11.4,1,16.7,2.8
						c3.4,1.2,6.3,0.6,9.3,0.2c3.7-0.5,5.6-3.7,7-6.8c0.9-1.9,1.1-3.9,1.2-5.9c0.2-3.9,2.9-7,3.5-10.8c1-6.1,1.3-12.2,0.4-18.4
						c-0.2-1.1,0.1-1.3,1.2-1.4c5.5-0.9,9.1-6.2,7.7-11.6c-1.5-6.1-3.6-12.1-6.5-17.7c-0.7-1.3-0.8-2.4,0-3.8c1.6-3,2.9-6.1,4.4-9.2
						c0.6-1.3,0.6-2.6,0.6-3.9c0-0.6-0.3-1.3,0-1.8c2.6-4.6,0-8.9-0.9-13.2c-1.9-8.5-3.5-17.1-6.4-25.3c-0.2-0.6-0.3-1,0.7-1.5
						c2.9-1.7,4.9-4.6,4.9-7.9c0-4.2,1.4-8,1.9-12.1c0.4-3.3,0.8-6.7-0.2-9.9c-1-3-0.3-6.1-1.4-9.1c-1.2-3.1-3.2-5-6.3-5.7
						c-1.1-0.3-1.9-0.5-2.6-1.3c-1.4-1.6-2.9-2.7-5.1-3c-1.5-0.2-2.3-2.1-4-2.5c-2.7-0.7-5.3-0.2-7.7,0.6c-1.4,0.5-1.9,0.1-2.3-1
						c-1.1-3.6-3.6-4.8-7.1-4.9c-1.5,0-2.9-1.2-4.4-1.8c-3.1-1.4-5.7-0.2-8,1.6c-1.4,1.1-2.5,1.4-4.4,1c-4.2-0.9-8.7-2.1-12.7-1.9
						c-6.5,0.4-13.5-1.2-19.7,2.2c-1,0.5-2.3,0.8-2.8,1.7c-1.9,3-4.3,1.6-6.1,0.4c-3.5-2.3-6.8-1.7-10.1,0c-1.2,0.6-2.2,1.2-3.7,0.7
						c-4.7-1.4-8.7,0.4-12.3,3.2c-1.2,0.9-2.4,1.4-3.9,1.4c-4.3-0.1-8.3,0.7-11.4,4.1c-0.7,0.7-1.5,0.6-2.4,0.6
						c-4-0.3-7.4,1.1-10,4.1c-1.5,1.7-3.6,2.5-5.4,3.8c-6.3,4.7-9.5,11-9.9,18.8c-0.1,1.5-0.7,3-0.5,4.6c0.1,0.8-0.2,1.2-1.1,1.3
						c-1.6,0.1-2.2,1.3-1.9,2.8c1,6.4,2,12.9,3.2,19.3c1,5.3,2.3,10.6,3.5,15.9c0.7,3,2.1,5.4,4.6,7.3c2.4,1.9,3.2,5.1,4.1,7.9
						c1,3,1.5,6.3,2.2,9.4l4.3,15.2l0,0c0.1,0.4,0.2,0.9,0.3,1.3c1.3,5.7,2.7,11.4,4,17.1c0.1,0.4,0.3,1,0.2,1.4l0,0l-3.3,9.4
						c-4.1-0.2-8.1,0.1-12.1,0.9c-4.9,1-6.8,4.3-8.4,8.2c-0.3,0.7-0.4,1.5-0.5,2.2l0,0c0,0,0.4,4.1-2.3,7.5
						c-2.7,3.4-4.7,2.5-4.7,2.5s-2.6,0.6-4.8,2.3c-2.2,1.7-19.5,18.6-37.5,27.8c-3.7,1.9-7.1,1.7-10.2,0.2c-0.3,0.3-0.8,0.7-1.2,0.2
						c-1.2-1.3-1,0.8-2.2,0.6l0,0c0.2-0.9,0.5-1.7,0.7-2.5c-5.4-4.1-9.7-12.1-12.4-18.6c-3.7,8.3-6.1,17.2-8.2,26.1
						c-0.1,0.3-0.2,0.7,0,1c1,2.3-0.4,2.9-2.2,3.5c-2.5,0.9-3,3.5-4,5.6c-0.6,1.4-1.1,2-2.8,1.4c-2.2-0.8-3.8,0.4-4.7,2.5
						c-2,4.9-3.1,10.1-3.8,15.3c-1.1,7.9-1.3,16-3.1,23.8c-0.5,2.1-1,3.2-3.4,3.2c-4,0-6,2.9-7.4,6.1c-2.4,5.1-3.3,10.7-5,16.1
						c-2.9,9.5-5.6,19.1-8.1,28.8c-2.3,8.7-4.4,17.4-6.3,26.2c-0.5,2.1-1.1,4.7,1.3,6.5c0.8,0.6,0.5,1.1,0.2,1.8
						c-3.6,8.1-6.8,16.8-12.6,23.5c-5.1,5.9-6.5,12.8-9.1,19.6c-0.7,1.7-1.4,1.9-2.7,1.1c-2.2-1.3-4.6-2.1-6.6-3.8
						c-5.6-4.8-12.3-4.4-19-3.4c-10.6,1.5-20.9,4-31.2,6.9c-3.8,1.1-7.7,2.3-11.2,4.3c-2.1,1.2-2.4,2.2-0.4,3.7
						c-1,0.8-2,1.3-2.7,2.5c-5.2,9.7-9.4,19.6-11.4,30.5c-0.4,2.3,0.2,4.8-0.9,7v4.1c1.1,0.9,0.3,2.2,0.6,3.3
						c1.8,7.6,5.1,14.5,9.5,21c4.4,6.4,9.5,12.3,14.4,18.3c7.3,8.9,15.4,17,24,24.6c8.6,7.7,18.6,13.8,27.1,21.9
						c-10.6,2.1-20.8,4.5-30.4,9.2c-8.9,4.3-15.9,10.4-19.5,19.9c-2.4,6.3-3.8,12.8-4.5,19.5c-1.1,10.5-0.4,20.8,2.5,30.9
						c1.2,4.2,3.6,7.9,5,11.9c1.2,3.5,3.2,5.9,6.1,7.9c1.8,1.3,3.8,2.4,6.3,3.7c-2.9,0.2-5.3,0.3-7.6,0.7c-8.9,1.5-17.9,2.6-27,2.6
						c-0.6,0-1.7-0.3-1.6,0.7c0.1,0.7,0.1,1.8,1.3,1.9c0.6,0.1,1.2,0.5,1.7,0.4c7.7-0.4,15.4,0.9,23.1,1c7,0.1,14.1-0.3,21.1-0.3
						c14.9-0.1,29.7-0.6,44.6-0.6c3.2,0,6.5,0.8,9.7,0.4c4.2-0.6,8.3-1,12.5-0.9c5.9,0.2,11.8,0.1,17.8,0.4c8.6,0.4,17.3,0.8,25.9,1
						c10.1,0.3,20.2,1.2,30.4,1.2c2.8,0,5.5-0.2,8.3,0c6.2,0.6,12.1-1.3,18.2-1.7c0.3,0,0.6-0.2,0.9-0.3c4.7-2.1,9.7-3.5,14.9-3.7
						c9.1-0.3,18.2,0.4,27.2,0.9c8.3,0.4,16.6,0.3,25,0.6c7.9,0.3,15.8,0,23.7,0.7c5,0.4,10.1,0.3,15.1,0.7c10.4,0.8,20.8,1,31.2,1
						c5.1,0,10.3-0.2,15.4-0.3c4.2-0.1,8.5,0,12.6-0.7c4.4-0.8,8.7-0.5,12.9-0.1c7.5,0.7,15,0.7,22.4,0.1c4.7-0.4,9.3-0.2,13.8,0.7
						c8.4,1.5,16.9,3,25.4,3.8c2.7,0.3,5.6-0.3,8.3,0.9h32.6c0.4-0.9,1.2-0.5,1.8-0.5c14.6,0,29.1,0,43.7,0c0.5,0,1.2-0.3,1.6,0.5
						h0.5l0,0c0.6-1,1.6-0.5,2.3-0.5c7.6,0.1,14.8-1.6,21.9-4.1c1.3-0.5,2.5-0.5,3.9-0.1c5.8,1.8,11.6,0.3,17-1.5
						c3.8-1.3,7.5-1.9,11.3-1.4c3.8,0.5,7.7,0.5,11.5,0.7c5.9,0.3,11.8,1.2,17.8,0.7C816.5,696.2,815.7,696.2,814.9,696z
						 M701.6,483.5c1.9,1.6,3,5.2,2.1,6.7C702.3,488.2,700.8,486.3,701.6,483.5z M689.6,499.7c12.2-7.3,24.6-14.3,37.4-20.6
						c0.8-0.4,1.8-1.2,2.7-0.2v0c-2.3,2-86.5,49.8-88.3,50c0.5-0.4,0.8-0.6,1.1-0.8C658.2,518.6,673.9,509.1,689.6,499.7z
						 M530,273.1c2,3.5,3.6,7.4,6.5,10.7v0c-1.1,0.2-2,1.3-2.9,0.2c-3.5-4.1-8-7-11.9-10.5c-5-4.5-8.1-4.3-12.4,0.8
						c-1.8,2.2-3.7,4.2-5.1,7c-0.4-2.1-0.1-4.1-1.2-5.7c-0.8-1.2-0.4-1.8,0.5-2.6c2.2-1.9,4.1-4,5.3-6.5c1.7-3.5,4.9-6.1,5.7-10.3
						c1.5-7.8,3.4-15.5,4.8-23.4c0.9,0.3,1,1,1.2,1.4c1.3,3.5,2.4,7.1,3.8,10.5c0.9,2.5,1.1,4.8,0.7,7.5c-0.5,3.1-0.4,6.4,0,9.5
						c0.2,1.9,0.1,4,1.5,5.6C527.8,269,528.9,271.1,530,273.1z M445.5,223.8c0.8-1,1.2-2.2,1.7-3.4l0,0l0,0c0.2-0.4,0.4-0.9,0.6-1.3
						l2.1-5l2-4.8l2.5-5.8c0-0.3,0.1-0.7,0.3-1c1.7-3.3,3-6.8,4.8-10.1c1.3-2.3,2.9-5,2.7-7.3c-0.2-3.4,0.9-1.8,2.3-1.3
						c4.6,1.5,9.3,2.9,14.7,2.1c-1,1.2-0.7,2.1-0.1,3c1.5,2,2.9,4,4.7,5.8c0.7,0.6,0.8,2.2,2.3,1.3c1.6-1,0.2-2-0.2-2.8
						c-2-4.3-5-8.3-3.8-13.5c0.1-0.5,0.1-1.5-0.6-1.4c-0.9,0-1.9,0.4-2.2,1.4c-0.2,0.5-0.2,1.2-0.2,1.8c0.1,1.1-0.3,1.5-1.5,1.5
						c-3.8,0-7.6,0.1-11.3-0.7c-2.7-0.6-5.1-1.6-7-3.8c-4.1-4.6-6.4-10.1-7-16c-0.9-8.4,7.3-15.1,15.6-13.3c3.8,0.9,7,2.8,10.3,4.8
						c5.8,3.5,6.5,9.8,8.7,15.3c0,0.1-0.1,0.3-0.2,0.4c-0.4,0.4-1.2,0.7-0.3,1.3c0.7,0.6,1.6,1.1,2.5,0.7c1.5-0.6,2.6-2.3,3-4.1
						l1.6-1c0.4,0.2,0.9,0.3,1.4,0.3c1.5,0.1,1.7-0.8,1.8-1.9c0-0.8,0.6-1.6,0-2.4c-2.7-3.8,0.7-5.9,2.4-8.5c0-0.1,0.1-0.2,0.1-0.2
						c6.6-4.3,6.3-10.8,5.7-17.4c-0.2-2.4,0-4.8,0-7.2c0-2,0.3-4-0.1-5.9c-0.3-1.9-0.4-3.7-0.5-5.9c0,0,0,0,0,0l0,0l0.1-3.1
						c1-0.2,2-0.4,3-0.5c0.9-0.2,1.9,0,1.2-1.6c-0.6-1.4,0-2.6,1.9-2.7c7.3-0.6,14.6-1.4,21.9-1.9c6.3-0.4,12.5,0,18.8,0.4
						c7.5,0.5,14.9,1.9,22.4,2.2c0.6,0,1,0.1,1.2,0.7c1,3.5,2.9,7.1,2.7,10.5c-0.4,5.5,1.1,10.6,1.5,15.9c0.3,4.2,0.7,4.2-3.3,4.3
						c-1.1,0-2,0.3-2.3,1.2c-0.4,1.4,3.8,5.7,5.4,5.4c1.8-0.3,1.8,0.8,2.1,1.9c0.8,3.1-0.2,6-0.5,9c-0.1,0.9-0.6,1.3-1.4,0.7
						c-1.6-1.2-3.1-0.2-4.1,0.7c-1,0.8-0.6,2.5-0.1,3.6c2.8,5.7,5.8,11.3,8.7,17c0.2,0.4,0.7,0.8,1,1.1c2.4,2.5,2.1,5.7-0.9,7.4
						c-4.1,2.4-9.1,1.9-13.3,3.9c0.1,1.7,1.2,3,2.9,3.7c1.1,0.4,1.4,1.2,1.5,2.1c0,2.8-0.2,5.6-0.6,8.3c-5.8-1.5-11.5-1.3-17.6-0.6
						c1.2,1.6,2.5,2.3,3.9,2.8c2.1,0.7,4.2,1.2,6.5,1.1c2.4,0,5.1,0.6,6.6,2c1.3,1.2-0.6,3.6-1.2,5.4c-1.7,5-1.7,5-6.6,3.9
						c-0.7-0.1-1.3-0.3-2-0.5c-1.4-0.3-2.7,0-3.5,1c-1.7,2-3.4,2.8-5.4,0.5c-0.5-0.6-0.8-0.1-1.2,0.2c-0.7,0.5-0.1,1.6-1.1,1.9
						c-0.8-0.5-0.3-1.3-0.6-1.9c-0.3-0.6-0.2-1.7-1.3-1.6c-0.9,0.1-1.9,0.4-2.1,1.3c-0.3,2.4-2.6,2.8-4,4.1c-1.3,1.2-4.6,0-5.5-1.5
						c-0.4-0.6-0.8-1-1.4-0.8c-0.8,0.2-0.3,0.8-0.3,1.2c-0.1,1.2-0.5,1.7-1.9,1.9c-3.8,0.5-6.5-2.1-9.8-3.1
						c-7.6-2.4-14.7-5.9-21.4-10.2c-0.2,1-0.2,2.1-0.7,2.7c-1.6,2-0.3,2.9,0.9,4.5c2.3,3.1,4.6,6.3,4.4,10.6
						c-0.3,8.1-0.4,16.3-0.6,24.5c0,0.7,0,1.4-0.6,1.9c-2.6,2.3-4.3,5.3-6.1,8.2c-0.5,0.9-1,1.1-2.1,0.5
						c-9.1-5.3-18.1-10.7-26.9-16.5c-10.2-6.7-19.5-14.4-26.2-24.8C445.8,225.3,444.8,224.8,445.5,223.8z M311.3,326
						c0.5-1.3,1.4-2.5,3-2.8c1.3-0.3,1.9,0,2,1.3c0.1,1-2.8,5.7-3.6,5.4c-2.5-1-1.8,1.4-2.5,2.2c-0.5,0.6-0.2,1.7-1.5,2.7
						C309.7,331.5,310.4,328.7,311.3,326z M361.2,696.7c-9.7-0.4-19.4-0.7-29.1-1c-10.7-0.3-21.3-0.3-32-0.5
						c-13.8-0.3-27.6,0.1-41.3-2.5c-9.4-1.8-17.7-4.8-23.9-12.5c-0.6-0.8-1.9-1.3-2.7-0.9c-1.1,0.6-1.5,1.8-1.2,3.1
						c0.6,2.4,1.8,4.4,3.8,5.8c0.8,0.6,1.7,1.1,2.3,2.3c-5.3-0.8-10.4-1.3-14.7-4.3c-1.6-1.1-3.5-1.9-4.6-3.9
						c-5.8-10.4-7.9-21.7-8.2-33.5c-0.1-7.7,0.9-15.3,2.6-22.8c2-9,6.3-16.5,14-21.8c5.6-3.8,11.9-6,18.2-8.5
						c5.7-2.3,10.8,0.6,16.1,1.2c-1.4,1.1-3.1,1-4.6,1.3c-6,1.3-12,2.6-17.3,5.6c-14.2,8.1-21.7,20.8-23.1,36.7
						c-1,11.9,0.4,23.7,5.1,34.8c0.9,2.2,1.9,4.3,3.4,6.3c0.8,1.1,1.6,0.6,2.2,0.2c0.7-0.4,1.4-1.1,0.7-2c-0.8-1-0.6-2.3-1-3.4
						c-3.7-12.8-5.2-25.8-4.5-39.2c0.6-10.9,6.2-18.8,14-25.7c5.3-4.7,11.7-6.9,18.3-8.5c4.3-1.1,8.2-4.5,13.2-2.8
						c0.2,0.1,0.6-0.2,0.9-0.4c1.1-0.8,2.2-0.6,3.3,0c11.6,5.3,23.1,10.7,34.8,15.8c10.3,4.5,20.8,8.8,31.3,12.9
						c3.6,1.4,7.3,2.4,10.6,4.6c-4.8-0.8-9.5-1.9-14.3-2.5c-8.9-1.1-17.8-2.1-26.8-0.8c-1,0.1-1.9,0-1.7,1.5
						c0.2,1.3,0.4,2.6,2.1,2.6c3.4,0,6.8,0.7,10.1,1.1c6.1,0.7,12.3,1.4,18.4,2c3.8,0.4,7.7,0.5,11.5,0.5c1,0,2.4,0.6,3-0.6
						c0.6-1.3-0.2-2.4-1-3.5c0,0,0,0,0,0c1.7,0,3,1.1,4.5,1.6c8.8,3.2,17.6,6.5,26.4,9.6c1.6,0.6,2.3,1.2,2.2,3
						c-0.2,2.6,0.1,5.3,0.3,7.9c0.7,9.4,3.2,18.3,7.5,26.7c0.6,1.3,0.8,2.3,0.4,3.5c-1,2.9-1.1,5.8-1,8.8c0.1,1.7,0.5,1.9,2.2,1.7
						c0.2,0.6,1.1,0.8,1.1,1.7C382.5,697.6,371.9,697.1,361.2,696.7z M286.5,479.1c34.6,16.7,70,31.8,104,49.8
						C355.5,512.9,320.2,497.7,286.5,479.1z M399.4,694.7c-0.6,1.1-1,2.2-0.3,3.4c-2.5-0.6-4.8-1.2-7.1-1.8c1.9-1.9,1.3-4.9,2.9-7.2
						c1.4,1.1,2.5,2.6,4.1,3.5C399.8,693.2,399.8,694.1,399.4,694.7z M425.6,654.1c-6.4-1-12.5-3.1-18.4-5.7
						c6.2,1.7,12.4,3.4,18.6,5.1C425.8,653.7,425.7,653.9,425.6,654.1z M534.5,683.5c-4.1-1-8.2-2-12.2-3.2
						c-13.9-4.5-27.6-9.7-41.2-15.1c-11.6-4.6-23.2-9.3-34.7-14c-6.1-2.5-12-5.2-18.1-7.9h0c36.8,13.4,73,27.8,110.5,40.1
						C537.2,683.8,535.8,683.8,534.5,683.5z M554.6,591.5c-3.3,0.5-6.2-0.5-9-1.2c-9.6-2.3-19-5-28.6-7c-6.9-1.4-13.6-3.5-19.7-7
						c-6.4-3.8-12.4-8.3-18.5-12.7c-4.9-3.5-9.3-7.6-14.5-10.6c-14-7.9-27.9-15.8-41.8-23.8c-1.4-0.8-1.4-1.5-0.7-2.5
						c1.9-2.5,3.9-5,5.8-7.5c0.6-0.8,1.3-0.9,2.1-0.3c2.3,1.8,4.9,3.2,7.4,4.6c6.4,3.5,13.2,5.9,20.1,8c1.8,0.6,3.9,0.8,5.5-0.9
						c4-4.1,8.4-7.8,11.8-12.6c0.5-0.7,1-1,1.9-0.8c3.5,0.8,7.1,1.6,10.7,2.4c3,0.6,6.4,1.7,9,0.1c2.7-1.8,5.5-1.8,8.3-2.4
						c2.3-0.4,4.6-0.1,6.9-0.5c5.4-1,10.5-0.8,15.2,3c6.8,5.5,13.6,11.1,19.6,17.5c1.2,1.3,2.3,1.8,3.9,1c0.4-0.2,0.9-0.7,1.3,0
						c0.2,0.4,0.2,0.8-0.2,1.2c-3.1,2.7-4,6.8-6.2,10.2c-3.8-3.8-7.4-7.5-11.2-11.1c-2.8-2.6-5.7-5.2-8.9-7.3
						c-1.6-1.1-3.4-0.5-4.4,0.4c-1.5,1.3,0.5,2.2,1.3,3c5.4,6,11.1,11.7,16.8,17.4c2.6,2.6,2.5,2.4-0.4,4.7
						c-1.8,1.4-2.9,1.4-4.5-0.2c-2.3-2.2-5-4.1-7.6-6.1c-3.3-2.5-6.8-4.5-10.5-6.4c-0.7-0.3-1.5-0.6-2.1,0.1
						c-0.7,0.8,0.4,1.1,0.7,1.6c1.7,2.2,3.8,3.9,5.9,5.6c3.6,2.8,7.5,5.2,11.4,7.6c1.5,0.9,1.6,1.1,0.7,1.6
						c-3.8,2.2-7.5,4.5-11.9,6.1c0.8-1.5,1.6-3.1,0-4.3c-4.8-3.6-10-6.4-15.6-8.4c-1.8-0.6-2.9,0.5-3.9,1.8
						c-0.9,1.3-0.1,2.4,0.7,3.1c4.7,4.6,10.5,7.3,17,8.8c-5.6,2.8-11.5,4.4-17.7,5.6c1.1,1.3,2.1,3.3,2.7,3.5c3.2,0.8,5.8,3,9,3.5
						c12.8,1.9,25.3,5.1,37.7,8.9C551.8,589.5,553.4,589.8,554.6,591.5L554.6,591.5z M430.4,516c2-2.2,3.7-4.5,5.6-6.7
						c3-3.4,3-3.4,7-1.4c9,4.5,19,5.9,28.8,8.6c-3.1,4.4-6.1,8.6-9.1,12.9c-0.7,1-1.4,0.5-2.2,0.2c-3.4-1.3-6.8-2.5-10.2-3.6
						c-6.6-2.2-13-4.7-19.4-7.5C429.3,517.8,429.3,517.2,430.4,516z M605.2,593.1c-4.1-0.5-8.3-0.8-12.4-1.6
						c-9.6-1.9-19.3-2.8-29-3.4c-1.3-0.1-1.5,0.2-1.4,1.5c0.4,4.1-0.6,8.1-1.5,12.1c-0.4-2.3,0.6-4.6,0.1-7c-0.4-2.3,0.6-4.8-1.5-7
						h0c5.2-1.7,10.3-1.6,15.3-1.2c7.3,0.6,14.5,1.6,21.7,3c3,0.6,6,1,8.9,2.1c0.5,0.2,1,0.5,0.9,1.1
						C606.1,593.3,605.5,593.2,605.2,593.1z M592.8,519.1c-12.6,8.4-25,17-37.4,25.5c-0.5,0.3-0.9,0.6-1.4,0.3
						c-0.6-0.3-0.4-0.9-0.2-1.4c0.7-1.6,0.4-3.3,0.3-4.8c-0.2-2.2-0.6-4.7-3-5.4c-1.3-0.3-1.9-1-2.4-1.9c-2.6-4.2-5.5-8.2-9.1-11.7
						c-4.7-4.6-10-8.3-16.6-9.5c-2.8-0.5-5.6,0.3-8.3,0.7c-7,0.9-14.4,0-21,3.5c-0.4,0.2-1,0-1.5-0.2c-8.6-2-17.2-4-25.8-6
						c-7.6-1.8-15.4-3.4-22.6-6.6c-0.6-0.3-1.3,0-1-1.4c0.5-2.9-0.6-5.3-3.1-6.9c-7.5-4.8-15.3-8.9-23.7-11.7
						c-1.5-0.5-1.9-0.9-2-2.4c-0.2-2.1-1.1-3.8-3.3-4.7c-2.3-0.9-4.7-2-6.9-3.2c-9.7-5.7-19.8-10.5-30.6-13.9
						c-1.8-0.6-1.9-1.3-1.1-2.9c1.8-3.5,3-7.4,4-11.2c0.4-1.5,0.5-3-0.9-4.2c-2.4-2.2-3.6-5.1-5.2-7.9c-1-1.8-0.7-3,0.3-4.5
						c3.3-5.2,5.9-10.7,7.5-16.6c0.4-1.7-0.4-3.2-1.3-3.9c-1.2-0.8-2,0.9-2.7,1.8c-3.1,4.5-6,9.1-7.8,14.2c-0.9,2.7-2.1,5.4-0.1,8.2
						c2.3,3.2,5.2,6.1,3.8,11c-1.2,4.1-1.5,8.5-2.2,12.8c-0.1,1-0.6,1-1.4,1c-1.4-0.1-0.4-0.7-0.3-1.1c0.7-2.5-0.7-3.4-2.8-4.1
						c-6.1-2-12.4-1.7-18.6-1.4c-5,0.2-10,0.5-14.8,2.4c-0.8,0.3-1.6,0.6-1.5,1.4c0.2,1.1,1.3,0.8,1.9,0.5c1-0.5,2-0.3,3-0.4
						c7.3-0.4,14.5,0.6,21.8,1.1c1,0.1,2.6,0.2,2.7,1c0.4,3.1,3,3.7,5,4.5c16.2,6.2,31.3,15.1,48.1,19.7c0.5,0.1,1.3-0.3,1.1,1.1
						c-0.6,3.4,0.9,6,3.8,7.7c6.5,3.8,13,7.6,19.6,11.4c3,1.7,3,1.7,0.4,3.7c-1,0.8-2,1.7-2.7,2.7c-2.9,3.8-5.5,7.8-7.8,11.9
						c-0.8,1.5-1.2,3.9-2.8,4.2c-2.1,0.4-3.2,1.5-3.9,3.2c-0.6,1.3-1.2,1.1-2.2,0.6c-7.3-4.3-14.6-8.6-21.9-12.9
						c-14-8.3-28-16.4-42.4-23.8c-9.6-4.9-19.4-9.5-29.3-13.8c-10.5-4.6-20.8-9.4-31.1-14.2c-6.6-3-13.1-6.1-19.6-9.3
						c-0.5-0.2-1.8-0.3-0.9-1.4c3.5-5,4.8-10.9,8.6-15.9c7.3-9.6,13-20.4,17.3-31.8c0.9-2.4,1.5-5,2.9-7.1c3.2-4.6,5-9.6,6.4-14.9
						c1.8-7,3.3-14.1,5.4-21c3.2-10.5,7.4-20.8,9.8-31.6c2-9,4-18,4.5-27.3c0.3-6,0.9-12.1,2.9-17.9c0.5-1.4,1.1-2.3,2.5-2.7
						c1.8-0.5,3.6-1.3,4.1-3.2c0.6-2.2,1.9-3.1,3.9-3.6c2.9-0.7,5.7-1.6,8.5-2.4c12.2-3.8,23.8-8.9,34.9-15.1
						c10.8-6.1,21.1-12.9,30-21.6c1.5-1.4,2.9-2.4,4.9-2.2c1.2,0.1,2.3-0.2,3.1-1.2c2.3,4.6,4.5,9.2,6.9,13.7
						c4.6,8.3,9.6,16.4,13.8,24.9c4,8,8.5,15.6,14.7,22.2c-0.3-1.1-0.7-2.3-1.1-3.8c5.8,2,10.9,1.2,15.5-2c2.7-1.8,5.2-3.8,7.5-6.1
						c3.8-3.8,8.8-3.4,10.8,0.8c-2.6,0.5-3.8,1.8-3.3,3.8c0.6,2.2,2.4,4.4,4.4,4c3.4-0.7,4,1.3,5,3.4c0.2,0.5,0.5,1.2,1.2,1.1
						c0.7-1.2-0.4-2.1-0.4-3.2c0.3-5.5-1.7-10.1-5.2-14.3c-4-4.8-11.3-5.8-16.2-1.9c-3.3,2.6-6.3,5.5-9.7,8
						c-2.5,1.9-4.3,4.9-7.9,5.3c-1.6,0.2-2.9,0.3-3.6-1.6c-0.8-2.1-1.8-4-2.5-6.1c-1.9-5.2-3.5-10.5-6.1-15.4
						c-6.4-12.1-12.5-24.4-20.9-35.3c-0.3-0.4-1.2-1-0.3-1.7c3.7-2.5,4.5-6.5,5.3-10.5c0.4-1.7,0.9-3.3,2.8-3.9
						c3.8-1.2,7.6-2.2,11.8-1.7c-0.7,1.3,0.1,3.5-2.1,3.4c-2.5-0.2-2.1,1.3-1.7,2.6c0.9,3.3,1.9,6.5,2.4,9.9
						c1,7.1,5.5,12.7,9.8,18.2c5.9,7.6,13.6,13.1,21.8,18.1c7.7,4.7,15.1,9.7,23.9,12.3c1.2,0.4,1.8,1.2,1.2,2.6
						c-1,2.2-1.1,4.6-0.7,6.9c0.9,4.8,0.1,9.3-1.1,13.8c-1.7,6.8-2.5,13.9-3.2,20.9c-1,9.8-1.7,19.7-1.9,29.5
						c-0.3,12.4-0.1,24.7,0.8,37.1c0.4,5.3,1.5,10.5,1.3,15.9c0,1.5,0.2,3.2,0.5,4.8c1,7,1.9,14,3,20.9c0.9,5.7,1.2,11.6,5,16.5
						c-2.3-0.5-4.3-1.3-7.2-0.8c5.5,2.2,10.3,4.2,15,6.2c0.6,0.3,1.6,0.1,1.6,1.3c0,3.7,1.5,7.1,2.5,10.6c0.5,1.8,1.5,3.8,0.5,5.4
						c-1.2,1.8-0.5,3.1,0.2,4.6c2.5,5.2,5.3,10.2,8.4,15.1c1.7,2.6,2.3,6.3,6.7,6.3c-4.2,3.2-5.1,2.6-2.4,7.9
						c0.6,1.3-0.3,1.5-1.3,1.9c-3,1.1-5.1,3-6.4,6.2c0.6-0.1,1,0,1.1-0.2c2.5-3,6-4,9.4-5.3c4.1-1.6,4.3-1.9,2.6-5.7
						c1.1-0.3,2.1-0.6,3.2-0.9c9.5-3.1,18.3-7.4,26.9-12.5c10.7-6.4,20-14.6,28.7-23.4c0.8-0.8,2.2-1.8,1.1-3.2
						c-1-1.2-2.6-1.4-4.1-1c-0.6,0.2-1.1,0.4-1.6,0.7c-6.2,3.4-11.3,8.3-17,12.4c-12.2,9-25.5,15.9-39.1,22.6
						c-2.1-6.7-5.5-12.7-8.6-18.8c-1.3-2.6-3.7-4.5-4.6-7.2c-1.2-3.6-1.9-7.4-2.7-11.1c-0.7-3.4-1-6.7-4.8-8.7
						c-3.5-1.9-4.2-6.2-4.9-9.9c-2.1-10.7-3.7-21.6-5.9-32.3c-0.8-4-0.3-8.8-4.2-11.8c-0.1-0.1,0.1-0.6,0.1-0.9
						c0.5-8.6,1.2-17.3,1.5-25.9c0.3-7.9,0.3-15.9,0.5-23.8c0.3-9.2,0.8-18.3,1.3-27.5c0.1-2.4,0-4.8,0.5-7.2c1.6-8,3-16.1,4.2-24.2
						c0.9,1.8,2.7,2,4.5,0.5c1.6-1.3,3-2.8,4.5-4.2c0.8-0.7,1.6-1.5,2.9-0.6c5.6,3.9,11.2,7.8,18.3,8.6c2.2,0.3,4.1,0.1,6.1-1
						c1.1-0.6,0-2.2,1.4-2.4c1.3-0.3,1.8-1.2,1.2-2.3c-0.5-1-1.4-1.1-2.6-0.5c-0.9,0.5-2.3,0.7-2.4-1.1c-0.3-3-1.5-5.7-3.1-8.2
						c-1.9-3-3.3-5.8-2.8-9.8c0.6-5,1.1-10.2,0.6-15.9l0,0c1.7,1.5,2.9,2.6,4.2,3.6c6.6,4.8,13.7,8.7,20.6,13.1
						c10.1,6.5,20.1,13.2,30.6,19.1c2.3,1.3,4.5,2.5,6.4,4.6c1.6,1.8,2.7,4.1,4.5,5.8c1.4,1.3,2.5,2.7,2.3,4.9
						c-0.1,1.5,0.4,3,0.7,4.5c1,5.3,3.2,10.4,4.4,15.6c2.1,9.2,3.9,18.4,6.1,27.5c3.2,13,9.9,24.4,16.2,35.9
						c8.6,15.9,15.9,32.4,23.2,48.9c2.9,6.5,5.4,13.2,10.1,18.9c0.9,1.1,2.1,2.6,2,3.7c-0.3,3.1,0.1,6.1,0.4,9.2
						c0.4,4.6,0.3,9.3,2.2,13.7c0.5,1.3-0.3,1.2-0.9,1.5c-10.2,5.4-20.3,10.9-30.3,16.7C620.4,501.1,606.5,510,592.8,519.1z
						 M488.9,283.1c0.5-0.1,1.1-0.1,1.4,0.2c0.6,0.6,1.1,1.4,1.7,2.4c-1-0.2-1.8-0.4-2.6-0.6c-0.5-0.1-1.1,0-1-0.8
						C488.5,283.8,488.2,283.2,488.9,283.1z M634.6,610.1c-3.2,1.3-5.8,2.3-8.7,3.4c1-2.7,1.7-4.9,1.7-7.3
						C630.6,606.3,631.9,608.9,634.6,610.1z M623.1,613c-1.4-2.2-2.7-4.3-4.3-6.8C623.2,607.2,623.8,608.2,623.1,613z M763.2,685.9
						c-0.1,0.8-0.5,0.8-1,0.8c-3.3,0.1-6.2,1.7-9.2,2.6c-5.8,1.8-11.7,3.6-17.7,4.5c-7.3,1.2-14.7,1.3-22.1,1.5
						c-10.8,0.3-21.6,0.5-32.4,1c-8.8,0.4-17.5,0-26.3-0.5c-5.2-0.2-10.4-0.6-15.6-1.1c-7.4-0.7-14.9-1.7-22.3-2.5
						c-3.7-0.4-4.2-0.6-3.5-4c0.4-2-0.3-4.2,1.3-6.1c10.3-11.5,14-25.7,15-40.6c0.4-6.7-0.6-13.5-3-19.9c-0.5-1.5-0.4-2.3,1.2-2.9
						c4-1.6,8-3.4,12-5.2c1.6-0.7,3.1-1,4.9-0.6c11,2.4,22.1,3.7,33.3,4.8c3.8,0.4,7.6,0.6,11.5,1.7c-1.5,0.5-2.4,1.5-3.2,2.6
						c-3.3,4.6-5.3,9.9-6.9,15.2c-0.4,1.4-1,1.6-2.1,1c-2-1-4.1-1.5-6.3-2c-6.7-1.5-13.5-2.7-20.3-3.6c-4.7-0.6-9.5-1.4-14.3-1
						c-1.5,0.1-3.3,0-3.8,2c-0.7,2.7,0,3.4,3.4,3.6c4.5,0.3,9,0.7,13.5,1.4c5.4,0.8,10.8,1.4,16.2,2.2c3.4,0.5,6.8,1.2,10.3,1.6
						c1.1,0.1,2,0.4,1.6,2.3c-2,9.6-1.9,19.4,0.4,28.9c0.8,3.4,2.1,6.6,4.1,9.6c0.6,0.9,1.5,1.7,2.6,1.3c1-0.4,0.6-1.5,0.4-2.3
						c-0.5-3.5-1-7.1-1.6-10.6c-1.3-7.3-1.3-14.7-0.3-22c1.2-8.5,3.8-16.7,6.7-24.8c0.6-1.7,0.6-4.4,1.8-5.1
						c1.4-0.9,3.8-0.1,5.7-0.1c0.9,0,1.7-0.1,2.6-0.1c4.3,0.1,8.2-1.8,12.3-2.7c6.7-1.4,13.5-2.3,20-4.6c1.9-0.7,3.5-1.4,2.7-4.7
						l0,0c5.6,5.4,10.7,10.2,15.1,15.6c10.4,12.7,15.2,27.4,15.6,43.6C765.6,673.5,764,679.7,763.2,685.9z M777.8,668.2
						c-0.2,7.2-1.3,14.4-2.9,21.5c-0.3,1.4-0.9,1.9-2,2.2c-1.8,0.5-3.6,0.9-5.4,1.4c-1.5,0.4-3-0.7-2.7-1.6c0.6-1.8,0.4-3.6,0.9-5.4
						c2.9-9.8,5.6-19.6,4.1-30.1c-1.2-8.2-3.3-16.1-6.8-23.6c-4.7-9.9-11.8-17.9-20.8-25v0c13.1,1.8,22.1,8,27.2,19.7
						c3.1,7.2,4.9,14.8,6.6,22.4C777.2,655.7,778,661.9,777.8,668.2z"/>
				</g>
			</g>
		</g>
	</g>
</g>
</svg>
