<svg xmlns="http://www.w3.org/2000/svg" xmlns:xlink="http://www.w3.org/1999/xlink" viewBox="0 0 884.19 500"><defs><style>.ed6e3015-e47a-496f-86d2-ec72aa61e242{fill:none;}.f7a0854f-291b-4837-96e0-2d415644771e{isolation:isolate;}.fa94ea1f-385c-4986-af7d-8bb8dd74989a{clip-path:url(#a418e6ac-b572-4c4f-9d86-d6b868332cf7);}.e1890a42-9ccd-4e03-be5a-d3897637e6e4{fill:#fff;}.a78d6651-df9b-43e6-98b7-5e7f9c94aaad,.bbf320e2-d496-4fe0-a55b-408d459d4179{fill:#121212;mix-blend-mode:multiply;}.a78d6651-df9b-43e6-98b7-5e7f9c94aaad{opacity:0.5;}.bbf320e2-d496-4fe0-a55b-408d459d4179{opacity:0.75;}.f4fb184e-6647-4cbc-9336-7cb9a6e46dba{fill:#28282b;}.bf073869-f713-482c-b396-68b6f66700d0{fill:#f5e4d0;}</style><clipPath id="a418e6ac-b572-4c4f-9d86-d6b868332cf7"><rect class="ed6e3015-e47a-496f-86d2-ec72aa61e242" width="884.19" height="500"/></clipPath></defs><g class="f7a0854f-291b-4837-96e0-2d415644771e"><g id="e12ed1aa-5500-41a7-bb21-2035829e6912" data-name="Layer 1"><g class="fa94ea1f-385c-4986-af7d-8bb8dd74989a"><path class="e1890a42-9ccd-4e03-be5a-d3897637e6e4" d="M977.2,281.57S952.29,235.11,875.35,206c-69.28-26.22-105.59-77.14-112.13-87a.49.49,0,0,0-.41-.21c-1.63-3.55-3.08-6.93-4.29-10-14.73-37.85-31.9-84.56-36-95.87a.87.87,0,0,0-1.65.07,419.37,419.37,0,0,1-28.54,73.44q-3.13-20.61-6.59-44.07a.85.85,0,0,0-1.67-.08c-2.29,12.18-10.78,43.34-41.43,88.23-.12,0-.23,0-.33.06-7,7.12-52.25,51.31-121.64,86.54-75.71,38.43-89.69,83.86-89.69,83.86s-45.42,83.86,58.24,124.62a123.25,123.25,0,0,0,19.7,6c9.24,17.12,23.92,32.58,46.69,43.54,55.06,26.51,94,16.13,117,2.89,70.9,9.55,127.2-12.39,128.19-12.78h0c.53-.27,22.82-11.59,41.65-36.59,16.37,3.81,36.36,3,60.84-4.75C1031.36,383,977.2,281.57,977.2,281.57Z"/><path class="a78d6651-df9b-43e6-98b7-5e7f9c94aaad" d="M685.7,42.31a.85.85,0,0,0-1.67-.08C680.9,58.87,666.25,110.9,599.25,185c-82.12,90.85-94.35,122.29-94.35,122.29S461.23,429.62,555.57,475C648,519.52,695.1,460.14,697,457.65a.8.8,0,0,1,.17-.15c2.85-2,62.81-46.55,16.2-241v0C713.29,216,701.79,151.89,685.7,42.31Z"/><path class="a78d6651-df9b-43e6-98b7-5e7f9c94aaad" d="M643,130.87a.43.43,0,0,0-.74-.35c-7,7.12-52.25,51.31-121.64,86.54-75.71,38.43-89.69,83.86-89.69,83.86s-45.42,83.86,58.24,124.62,130.45-86.19,130.45-86.19,8.15-36.51,7.57-75.33C626.66,227.91,641,142.58,643,130.87Z"/><path class="a78d6651-df9b-43e6-98b7-5e7f9c94aaad" d="M722.48,12.87a.87.87,0,0,0-1.65.07c-4.22,15.19-27.33,92.51-69.75,130.74-46.89,42.26-90.9,132.85-91.43,133.93v0c-.5,1.31-53.09,138.22,46,181.69,98.91,43.38,193.79,6.34,195.08,5.83h0c1.25-.63,123-62.44,36.7-219.76l0,0c-.75-1.11-62.12-93.47-78.91-136.59C743.79,70.89,726.62,24.18,722.48,12.87Z"/><path class="bbf320e2-d496-4fe0-a55b-408d459d4179" d="M763.22,119a.56.56,0,0,0-1,.36l7.09,194.4s5.82,150.83,133.94,110.07,74-142.23,74-142.23S952.29,235.11,875.35,206C806.07,179.77,769.76,128.85,763.22,119Z"/><rect class="f4fb184e-6647-4cbc-9336-7cb9a6e46dba" x="151.87" y="244.35" width="328.15" height="88.62"/><path class="f4fb184e-6647-4cbc-9336-7cb9a6e46dba" d="M169.28,71.63h12.26v23.3a13.64,13.64,0,0,1,11-4.9,17.6,17.6,0,0,1,13.19,5.67,19.88,19.88,0,0,1,5.29,14,19.46,19.46,0,0,1-5.29,13.88,17.49,17.49,0,0,1-13.19,5.74,13.64,13.64,0,0,1-11-4.9v3.68H169.28Zm12.26,38a8.64,8.64,0,1,0,2.53-6.05A8.3,8.3,0,0,0,181.54,109.65Z"/><path class="f4fb184e-6647-4cbc-9336-7cb9a6e46dba" d="M217.72,128.05V71.63H230v56.42Z"/><path class="f4fb184e-6647-4cbc-9336-7cb9a6e46dba" d="M272.3,108.88v19.17H260V125a12.75,12.75,0,0,1-10,4.29q-6.21,0-9.73-3.75a12.59,12.59,0,0,1-3.61-9,10.1,10.1,0,0,1,3.61-8,15.4,15.4,0,0,1,8.73-3.68,31.63,31.63,0,0,1,10.81,1,5.72,5.72,0,0,0-1.88-4.14,6.85,6.85,0,0,0-4.71-1.53,16.78,16.78,0,0,0-8.59,2.37L241,93.71Q246.71,90,255.13,90a17.48,17.48,0,0,1,12.34,4.6Q272.3,99.22,272.3,108.88ZM260,113.48a13.47,13.47,0,0,0-7.67-.61q-3.37.84-3.37,3.83a3.66,3.66,0,0,0,1.26,2.88,4.56,4.56,0,0,0,3.11,1.11,6,6,0,0,0,4.37-2A8.73,8.73,0,0,0,260,113.48Z"/><path class="f4fb184e-6647-4cbc-9336-7cb9a6e46dba" d="M299.59,118.24a8.74,8.74,0,0,0,6.9-3.22l6.28,8.2A18,18,0,0,1,299,129.27q-9.36,0-15-5.59a20.38,20.38,0,0,1,0-28.06Q289.63,90,299,90a18.06,18.06,0,0,1,13.79,6l-6.28,8.21a9.13,9.13,0,0,0-13.23-.73,8.54,8.54,0,0,0,0,12.19A8.75,8.75,0,0,0,299.59,118.24Z"/><path class="f4fb184e-6647-4cbc-9336-7cb9a6e46dba" d="M343,107.58l15.18,20.47H343.43l-8.05-11.65-3,3.52v8.13H320.13V71.63h12.26v32.2l9.82-12.58h14.71Z"/><path class="f4fb184e-6647-4cbc-9336-7cb9a6e46dba" d="M196.26,186.92v-3.68h12.26V217q0,11.58-5.82,17.75t-16.25,6.17q-9.12,0-14.72-4.91l4.91-9.19a15.89,15.89,0,0,0,9.12,3.06,9.81,9.81,0,0,0,7.66-3.14,11.91,11.91,0,0,0,2.84-8.28v-2.07a13.63,13.63,0,0,1-11,4.91,17.12,17.12,0,0,1-13.11-5.75,19.26,19.26,0,0,1-5.36-13.88,19.54,19.54,0,0,1,5.36-13.95A17.22,17.22,0,0,1,185.3,182,13.63,13.63,0,0,1,196.26,186.92Zm-17.17,14.71a8.64,8.64,0,1,0,2.53-6A8.25,8.25,0,0,0,179.09,201.63Z"/><path class="f4fb184e-6647-4cbc-9336-7cb9a6e46dba" d="M250.22,200.87V220H238V217a12.73,12.73,0,0,1-10,4.3q-6.19,0-9.73-3.76a12.59,12.59,0,0,1-3.6-9,10.14,10.14,0,0,1,3.6-8,15.32,15.32,0,0,1,8.74-3.67,31.4,31.4,0,0,1,10.81,1,5.8,5.8,0,0,0-1.88-4.14,6.86,6.86,0,0,0-4.72-1.53,16.69,16.69,0,0,0-8.58,2.38L219,185.69q5.67-3.67,14.1-3.68a17.52,17.52,0,0,1,12.35,4.6Q250.22,191.22,250.22,200.87ZM238,205.47a13.47,13.47,0,0,0-7.67-.62c-2.24.57-3.37,1.84-3.37,3.84a3.63,3.63,0,0,0,1.27,2.87,4.53,4.53,0,0,0,3.1,1.11,6,6,0,0,0,4.37-1.95A8.67,8.67,0,0,0,238,205.47Z"/><path class="f4fb184e-6647-4cbc-9336-7cb9a6e46dba" d="M270.46,183.24v6.82a13.34,13.34,0,0,1,5.06-5.79A19.22,19.22,0,0,1,284,182V195.5a11.71,11.71,0,0,0-6.74,0,8.16,8.16,0,0,0-4.83,3.76,13,13,0,0,0-1.92,7.2V220H258.2V183.24Z"/><path class="f4fb184e-6647-4cbc-9336-7cb9a6e46dba" d="M290.7,220V163.61H303V220Z"/><path class="f4fb184e-6647-4cbc-9336-7cb9a6e46dba" d="M325.65,171a7.34,7.34,0,1,1-2.15-5.21A7.11,7.11,0,0,1,325.65,171ZM324.42,220H312.16V183.24h12.26Z"/><path class="f4fb184e-6647-4cbc-9336-7cb9a6e46dba" d="M351.71,210.22a8.71,8.71,0,0,0,6.9-3.22l6.29,8.2a18,18,0,0,1-13.8,6.06q-9.36,0-15-5.6a20.39,20.39,0,0,1,0-28q5.6-5.6,15-5.6a18,18,0,0,1,13.8,6.06l-6.29,8.2a9.12,9.12,0,0,0-13.22-.73,8.51,8.51,0,0,0,0,12.19A8.73,8.73,0,0,0,351.71,210.22Z"/><path class="bf073869-f713-482c-b396-68b6f66700d0" d="M168.05,284.42v-6.75H173v-9.35q0-6.44,2.95-9.89A10.08,10.08,0,0,1,184,255a12.65,12.65,0,0,1,7.35,2.45L188,263a5.36,5.36,0,0,0-3.45-1.23q-4.22,0-4.21,6.59v9.35h11v6.75h-11V312H173V284.42Z"/><path class="bf073869-f713-482c-b396-68b6f66700d0" d="M213.58,312.63q-6.59,0-10.11-4.37t-3.53-12.5V277.67h7.36v18.71q0,9.5,7.66,9.5a7.23,7.23,0,0,0,5.91-3.06,12.69,12.69,0,0,0,2.37-8V277.67h7.36V312h-7.36v-4.29a8.9,8.9,0,0,1-3.68,3.45A12.07,12.07,0,0,1,213.58,312.63Z"/><path class="bf073869-f713-482c-b396-68b6f66700d0" d="M249.61,277.67v5.45q3.45-6.06,12.26-6.06v7.82a11.12,11.12,0,0,0-6.13.31q-6.13,2.22-6.13,11.42V312h-7.36V277.67Z"/><path class="bf073869-f713-482c-b396-68b6f66700d0" d="M288.7,277.06q6.6,0,10.12,4.37t3.53,12.49V312H295V293.92q0-5.13-1.8-7.62c-1.21-1.66-3.16-2.49-5.87-2.49a7.28,7.28,0,0,0-5.9,2.95,11.51,11.51,0,0,0-2.38,7.47V312h-7.36V277.67H279V282a9,9,0,0,1,3.68-3.45A12.07,12.07,0,0,1,288.7,277.06Z"/><path class="bf073869-f713-482c-b396-68b6f66700d0" d="M322,266a5.5,5.5,0,1,1-1.61-3.91A5.32,5.32,0,0,1,322,266Zm-1.84,46h-7.36V277.67h7.36Z"/><path class="bf073869-f713-482c-b396-68b6f66700d0" d="M343.43,312h-7.36V284.42h-6.13v-6.75h6.13V264.18l7.36-2.45v15.94h9.81v6.75h-9.81Z"/><path class="bf073869-f713-482c-b396-68b6f66700d0" d="M375.47,312.63q-6.59,0-10.12-4.37t-3.52-12.5V277.67h7.36v18.71q0,9.5,7.66,9.5a7.2,7.2,0,0,0,5.9-3.06,12.63,12.63,0,0,0,2.38-8V277.67h7.36V312h-7.36v-4.29a9,9,0,0,1-3.68,3.45A12.07,12.07,0,0,1,375.47,312.63Z"/><path class="bf073869-f713-482c-b396-68b6f66700d0" d="M411.5,277.67v5.45q3.45-6.06,12.26-6.06v7.82a11.12,11.12,0,0,0-6.13.31q-6.13,2.22-6.13,11.42V312h-7.36V277.67Z"/><path class="bf073869-f713-482c-b396-68b6f66700d0" d="M446.45,305.88q4.53,0,8.51-4l4.22,5.36a16.92,16.92,0,0,1-12.73,5.37,17.79,17.79,0,0,1,0-35.57,15.21,15.21,0,0,1,9.81,3.26,16.17,16.17,0,0,1,5.52,8.85L439,302.36a7.86,7.86,0,0,0,3.18,2.53A9.89,9.89,0,0,0,446.45,305.88Zm0-22.07a9.66,9.66,0,0,0-7.28,3.37,10.91,10.91,0,0,0-3.14,7.66c0,.11.05.77.15,2l17-9.81A8,8,0,0,0,446.45,283.81Z"/></g></g></g></svg>