<svg xmlns="http://www.w3.org/2000/svg" xmlns:xlink="http://www.w3.org/1999/xlink" viewBox="0 0 364.66 500"><defs><style>.b8b7464b-b49f-45ac-9ec3-5ea56ca852e2{fill:none;}.a057ce4e-f4c2-4943-a56c-dd31c0856c03{isolation:isolate;}.a33bf361-97cd-4b3b-8f6d-bb7455b0a34e{clip-path:url(#e9f0c706-cd84-4d16-b09f-4425315a7348);}.fc92f580-b7e9-4aea-8877-299b8cb746a9{fill:#fff;}.a9412a3c-9ff0-4fac-9e7c-28438f20a238,.b4eb6b7f-14a2-4a68-84fd-215dacef4d8b{fill:#121212;mix-blend-mode:multiply;}.a9412a3c-9ff0-4fac-9e7c-28438f20a238{opacity:0.5;}.b4eb6b7f-14a2-4a68-84fd-215dacef4d8b{opacity:0.75;}.bcdaeb0c-2cda-4b6f-847e-615d9604ae5d{fill:#28282b;}.ededd565-4cd1-420b-bccb-4d3331f617d0{fill:#f5e4d0;}</style><clipPath id="e9f0c706-cd84-4d16-b09f-4425315a7348"><rect class="b8b7464b-b49f-45ac-9ec3-5ea56ca852e2" width="364.66" height="500"/></clipPath></defs><g class="a057ce4e-f4c2-4943-a56c-dd31c0856c03"><g id="e0a7e768-fe3d-406e-805f-c1c5d916ad3b" data-name="Layer 1"><g class="a33bf361-97cd-4b3b-8f6d-bb7455b0a34e"><path class="fc92f580-b7e9-4aea-8877-299b8cb746a9" d="M488.3,328.87S469.6,294,411.83,272.13c-52-19.69-79.27-57.92-84.19-65.34a.33.33,0,0,0-.3-.16c-1.22-2.67-2.31-5.2-3.22-7.52-11.06-28.42-23.95-63.49-27.06-72a.65.65,0,0,0-1.24.05,314.73,314.73,0,0,1-21.43,55.14q-2.36-15.47-4.94-33.09a.64.64,0,0,0-1.26-.06c-1.72,9.15-8.09,32.54-31.11,66.24-.08,0-.17,0-.24.05-5.3,5.35-39.23,38.52-91.33,65-56.84,28.86-67.33,63-67.33,63s-34.11,63,43.72,93.57a91.49,91.49,0,0,0,14.79,4.47c6.94,12.86,18,24.47,35.05,32.7,41.34,19.9,70.61,12.1,87.82,2.16,53.24,7.17,95.51-9.3,96.25-9.59h0c.4-.2,17.13-8.7,31.27-27.47,12.28,2.86,27.3,2.28,45.67-3.57C529,405,488.3,328.87,488.3,328.87Z"/><path class="a9412a3c-9ff0-4fac-9e7c-28438f20a238" d="M269.45,149.23a.64.64,0,0,0-1.26-.06c-2.34,12.5-13.35,51.56-63.65,107.21-61.65,68.21-70.83,91.82-70.83,91.82s-32.8,91.82,38,125.93C241.1,507.52,276.5,462.94,278,461.07a.63.63,0,0,1,.12-.11c2.14-1.5,47.16-34.95,12.17-180.95v0C290.16,279.61,281.53,231.51,269.45,149.23Z"/><path class="a9412a3c-9ff0-4fac-9e7c-28438f20a238" d="M237.39,215.72a.32.32,0,0,0-.55-.26c-5.3,5.35-39.23,38.52-91.33,65-56.84,28.86-67.33,63-67.33,63s-34.11,63,43.72,93.57,97.94-64.71,97.94-64.71,6.12-27.41,5.68-56.56C225.12,288.58,235.89,224.51,237.39,215.72Z"/><path class="a9412a3c-9ff0-4fac-9e7c-28438f20a238" d="M297.06,127.13a.65.65,0,0,0-1.24.05c-3.17,11.4-20.52,69.46-52.37,98.16-35.2,31.73-68.25,99.75-68.64,100.56h0c-.38,1-39.86,103.78,34.55,136.41,74.25,32.57,145.49,4.76,146.46,4.38h0c.93-.47,92.34-46.88,27.55-165l0,0c-.56-.84-46.64-70.18-59.24-102.55C313.06,170.69,300.17,135.62,297.06,127.13Z"/><path class="b4eb6b7f-14a2-4a68-84fd-215dacef4d8b" d="M327.64,206.79a.41.41,0,0,0-.75.27l5.32,146s4.37,113.25,100.56,82.64S488.3,328.87,488.3,328.87,469.6,294,411.83,272.13C359.82,252.44,332.56,214.21,327.64,206.79Z"/><rect class="bcdaeb0c-2cda-4b6f-847e-615d9604ae5d" x="60.37" y="155.46" width="246.37" height="66.54"/><path class="bcdaeb0c-2cda-4b6f-847e-615d9604ae5d" d="M73.45,25.78h9.2V43.27a10.27,10.27,0,0,1,8.23-3.68,13.2,13.2,0,0,1,9.9,4.26,14.89,14.89,0,0,1,4,10.47,14.58,14.58,0,0,1-4,10.42,13.1,13.1,0,0,1-9.9,4.31,10.24,10.24,0,0,1-8.23-3.68v2.76h-9.2Zm9.2,28.54a6.49,6.49,0,1,0,1.9-4.54A6.23,6.23,0,0,0,82.65,54.32Z"/><path class="bcdaeb0c-2cda-4b6f-847e-615d9604ae5d" d="M109.82,68.13V25.78H119V68.13Z"/><path class="bcdaeb0c-2cda-4b6f-847e-615d9604ae5d" d="M150.79,53.75V68.13h-9.2v-2.3a10.58,10.58,0,0,1-14.79.4,9.41,9.41,0,0,1-2.71-6.79,7.57,7.57,0,0,1,2.71-6,11.49,11.49,0,0,1,6.56-2.76,23.81,23.81,0,0,1,8.11.74,4.31,4.31,0,0,0-1.41-3.1,5.11,5.11,0,0,0-3.54-1.15A12.54,12.54,0,0,0,130.08,49l-2.77-6.62a19.09,19.09,0,0,1,10.59-2.76A13.16,13.16,0,0,1,147.17,43Q150.8,46.49,150.79,53.75Zm-9.2,3.45a10.1,10.1,0,0,0-5.76-.46c-1.69.42-2.53,1.38-2.53,2.88a2.73,2.73,0,0,0,.95,2.15,3.39,3.39,0,0,0,2.33.84,4.47,4.47,0,0,0,3.28-1.47A6.56,6.56,0,0,0,141.59,57.2Z"/><path class="bcdaeb0c-2cda-4b6f-847e-615d9604ae5d" d="M171.28,60.77a6.55,6.55,0,0,0,5.18-2.42l4.72,6.16a13.54,13.54,0,0,1-10.36,4.54q-7,0-11.22-4.2a14.28,14.28,0,0,1-4.2-10.53,14.28,14.28,0,0,1,4.2-10.53q4.2-4.2,11.22-4.2a13.54,13.54,0,0,1,10.36,4.54l-4.72,6.16a6.86,6.86,0,0,0-9.93-.54,6.41,6.41,0,0,0,0,9.15A6.6,6.6,0,0,0,171.28,60.77Z"/><path class="bcdaeb0c-2cda-4b6f-847e-615d9604ae5d" d="M203.85,52.77l11.4,15.36H204.2l-6-8.74L195.91,62v6.1h-9.2V25.78h9.2V50l7.37-9.44h11.05Z"/><path class="bcdaeb0c-2cda-4b6f-847e-615d9604ae5d" d="M93.7,112.33v-2.76h9.21v25.32q0,8.7-4.37,13.32t-12.2,4.64q-6.86,0-11-3.68L79,142.26a12,12,0,0,0,6.85,2.3,7.36,7.36,0,0,0,5.75-2.36A8.9,8.9,0,0,0,93.7,136v-1.56a10.22,10.22,0,0,1-8.23,3.69,12.84,12.84,0,0,1-9.84-4.32,14.49,14.49,0,0,1-4-10.42,14.69,14.69,0,0,1,4-10.47,12.92,12.92,0,0,1,9.84-4.26A10.24,10.24,0,0,1,93.7,112.33Zm-12.89,11a6.49,6.49,0,1,0,1.9-4.54A6.23,6.23,0,0,0,80.81,123.38Z"/><path class="bcdaeb0c-2cda-4b6f-847e-615d9604ae5d" d="M134.22,122.81v14.38H125v-2.3a10.55,10.55,0,0,1-14.79.4,9.44,9.44,0,0,1-2.7-6.79,7.6,7.6,0,0,1,2.7-6,11.55,11.55,0,0,1,6.56-2.76,23.84,23.84,0,0,1,8.12.74,4.33,4.33,0,0,0-1.41-3.1,5.15,5.15,0,0,0-3.54-1.15A12.58,12.58,0,0,0,113.5,118l-2.76-6.62a19.09,19.09,0,0,1,10.59-2.76,13.18,13.18,0,0,1,9.27,3.45Q134.21,115.55,134.22,122.81ZM125,126.26a10.07,10.07,0,0,0-5.75-.46c-1.69.42-2.53,1.38-2.53,2.88a2.72,2.72,0,0,0,.94,2.15,3.41,3.41,0,0,0,2.34.84,4.49,4.49,0,0,0,3.28-1.47A6.55,6.55,0,0,0,125,126.26Z"/><path class="bcdaeb0c-2cda-4b6f-847e-615d9604ae5d" d="M149.41,109.57v5.12a10.06,10.06,0,0,1,3.8-4.34,14.31,14.31,0,0,1,6.33-1.7v10.13a8.72,8.72,0,0,0-5.06,0,6.12,6.12,0,0,0-3.63,2.82,9.79,9.79,0,0,0-1.44,5.41v10.18h-9.2V109.57Z"/><path class="bcdaeb0c-2cda-4b6f-847e-615d9604ae5d" d="M164.61,137.19V94.84h9.2v42.35Z"/><path class="bcdaeb0c-2cda-4b6f-847e-615d9604ae5d" d="M190.85,100.36a5.5,5.5,0,1,1-1.61-3.91A5.36,5.36,0,0,1,190.85,100.36Zm-.92,36.83h-9.21V109.57h9.21Z"/><path class="bcdaeb0c-2cda-4b6f-847e-615d9604ae5d" d="M210.42,129.83a6.55,6.55,0,0,0,5.18-2.42l4.72,6.16A13.56,13.56,0,0,1,210,138.12q-7,0-11.23-4.21a15.3,15.3,0,0,1,0-21.06q4.2-4.2,11.23-4.2a13.56,13.56,0,0,1,10.36,4.55l-4.72,6.15a6.86,6.86,0,0,0-9.93-.54,6.39,6.39,0,0,0,0,9.15A6.54,6.54,0,0,0,210.42,129.83Z"/><path class="ededd565-4cd1-420b-bccb-4d3331f617d0" d="M72.53,185.54v-5.07h3.68v-7c0-3.22.74-5.7,2.21-7.42a7.58,7.58,0,0,1,6.08-2.59A9.51,9.51,0,0,1,90,165.28l-2.53,4.14a4.06,4.06,0,0,0-2.59-.92q-3.16,0-3.17,4.95v7H90v5.07H81.73v20.72H76.21V185.54Z"/><path class="ededd565-4cd1-420b-bccb-4d3331f617d0" d="M106.71,206.72a9.23,9.23,0,0,1-7.6-3.28q-2.64-3.28-2.64-9.39V180.47H102v14.05q0,7.13,5.76,7.13a5.42,5.42,0,0,0,4.43-2.3,9.49,9.49,0,0,0,1.78-6V180.47h5.53v25.79H114V203a6.76,6.76,0,0,1-2.76,2.59A9.05,9.05,0,0,1,106.71,206.72Z"/><path class="ededd565-4cd1-420b-bccb-4d3331f617d0" d="M133.76,180.47v4.09Q136.36,180,143,180v5.87a8.55,8.55,0,0,0-4.61.23c-3.07,1.12-4.6,4-4.6,8.58v11.57h-5.53V180.47Z"/><path class="ededd565-4cd1-420b-bccb-4d3331f617d0" d="M163.11,180a9.23,9.23,0,0,1,7.6,3.28q2.64,3.28,2.64,9.38v13.59h-5.52V192.67c0-2.57-.45-4.47-1.35-5.72a5.07,5.07,0,0,0-4.41-1.87,5.5,5.5,0,0,0-4.43,2.21,8.67,8.67,0,0,0-1.78,5.61v13.36h-5.53V180.47h5.53v3.23a6.7,6.7,0,0,1,2.76-2.59A9,9,0,0,1,163.11,180Z"/><path class="ededd565-4cd1-420b-bccb-4d3331f617d0" d="M188.09,171.73a4.13,4.13,0,0,1-4.15,4.14,4.15,4.15,0,1,1,2.94-7.08A4,4,0,0,1,188.09,171.73Zm-1.39,34.53h-5.52V180.47h5.52Z"/><path class="ededd565-4cd1-420b-bccb-4d3331f617d0" d="M204.2,206.26h-5.53V185.54h-4.6v-5.07h4.6V170.34l5.53-1.84v12h7.37v5.07H204.2Z"/><path class="ededd565-4cd1-420b-bccb-4d3331f617d0" d="M228.26,206.72a9.22,9.22,0,0,1-7.6-3.28q-2.66-3.28-2.65-9.39V180.47h5.53v14.05q0,7.13,5.75,7.13a5.41,5.41,0,0,0,4.43-2.3,9.49,9.49,0,0,0,1.79-6V180.47H241v25.79h-5.52V203a6.73,6.73,0,0,1-2.77,2.59A9,9,0,0,1,228.26,206.72Z"/><path class="ededd565-4cd1-420b-bccb-4d3331f617d0" d="M255.3,180.47v4.09q2.59-4.55,9.21-4.55v5.87a8.52,8.52,0,0,0-4.6.23c-3.07,1.12-4.61,4-4.61,8.58v11.57h-5.52V180.47Z"/><path class="ededd565-4cd1-420b-bccb-4d3331f617d0" d="M281.55,201.65a9,9,0,0,0,6.38-3l3.17,4a12.7,12.7,0,0,1-9.55,4,13.36,13.36,0,0,1,0-26.71,11.38,11.38,0,0,1,7.36,2.45,12.15,12.15,0,0,1,4.15,6.65L276,199a5.77,5.77,0,0,0,2.38,1.9A7.42,7.42,0,0,0,281.55,201.65Zm0-16.57a7.26,7.26,0,0,0-5.47,2.53,8.23,8.23,0,0,0-2.36,5.75q0,.12.12,1.5l12.77-7.37A6,6,0,0,0,281.55,185.08Z"/></g></g></g></svg>